<svg width="100" height="96" viewBox="0 0 100 96" fill="none" xmlns="http://www.w3.org/2000/svg">
<path fill-rule="evenodd" clip-rule="evenodd" d="M1.08698 1.08698H94.8997L98.9131 4.59868H5.10035V81.3545L1.08698 77.6756V1.08698V1.08698ZM80.8529 77.6756H76.8395V75L79.5151 76.1706L80.8529 73.8294V77.6756V77.6756Z" stroke="#EF7F1A" stroke-width="2.17391" stroke-miterlimit="22.9256" stroke-linecap="round" stroke-linejoin="round"/>
<path fill-rule="evenodd" clip-rule="evenodd" d="M5.10034 4.59869H98.9131V81.3545H80.8529V73.8295L79.5151 76.1706L75.8361 74.4984L72.8261 77.3412L69.9833 74.6656L66.3044 76.0034V81.3545H5.10034V4.59869Z" stroke="#EF7F1A" stroke-width="2.17391" stroke-miterlimit="22.9256" stroke-linecap="round" stroke-linejoin="round"/>
<path fill-rule="evenodd" clip-rule="evenodd" d="M14.6321 13.2943H89.2141V47.7425L86.0368 46.5719L85.3679 42.7257H81.3545L79.5151 39.214L75.6689 40.7191L72.8261 38.0435L69.8161 40.7191L66.1372 39.214L64.1305 42.893L60.2843 42.7257L59.6154 46.7391L55.9365 47.9097L56.6054 51.9231L53.5954 54.2642L55.602 57.7759L53.5954 61.1204L56.7726 63.6288L55.9365 67.4749L59.7826 68.8127L60.2843 72.6589H14.6321V13.2943V13.2943ZM89.2141 50.4181V51.9231L89.0469 51.7558L89.2141 50.4181ZM89.2141 63.2943V64.6321L89.0469 63.4615L89.2141 63.2943V63.2943ZM89.2141 67.6421V72.6589H85.3679L86.0368 68.6455L89.2141 67.6421ZM85.0335 72.6589H81.3545L81.5218 72.4916L85.0335 72.6589ZM64.2977 72.6589H61.1204H64.2977Z" stroke="#EF7F1A" stroke-width="1.17057" stroke-miterlimit="22.9256" stroke-linecap="round" stroke-linejoin="round"/>
<path fill-rule="evenodd" clip-rule="evenodd" d="M72.8261 43.5619L75 45.4014L77.6756 44.398L79.0134 46.9064H81.8562L82.3579 49.582L85.0335 50.5853L84.5318 53.4281L86.7057 55.2676L85.2007 57.6087L86.7057 60.1171L84.5318 61.7893L85.0335 64.7994L82.3579 65.6355L81.8562 68.4783L79.0134 68.3111L77.6756 70.9866L75 69.8161L72.8261 71.8228L70.8194 69.8161L67.9766 70.9866L66.6388 68.4783H63.796L63.4616 65.6355L60.6187 64.7994L61.2876 61.9565L58.9465 60.1171L60.4515 57.7759L58.9465 55.2676L61.1204 53.4281L60.6187 50.5853L63.2943 49.7492L63.796 46.9064H66.6388L67.9766 44.398L70.6522 45.5686L72.8261 43.5619Z" stroke="#EF7F1A" stroke-width="1.17057" stroke-miterlimit="22.9256" stroke-linecap="round" stroke-linejoin="round"/>
<path fill-rule="evenodd" clip-rule="evenodd" d="M66.3044 94.2308V76.0034L69.9833 74.6656L72.8261 77.3412L75.8362 74.4984L79.5151 76.1706L80.8529 73.8295V94.2308L73.495 91.0535L66.3044 94.2308Z" stroke="#EF7F1A" stroke-width="2.17391" stroke-miterlimit="22.9256" stroke-linecap="round" stroke-linejoin="round"/>
<path fill-rule="evenodd" clip-rule="evenodd" d="M72.8261 38.0435L75.6689 40.7191L79.5151 39.2141L81.3545 42.7258H85.3679L86.0368 46.5719L89.883 47.9097L89.0468 51.7559L92.2241 54.2643L90.0502 57.6087L92.2241 61.1204L89.0468 63.4616L89.883 67.475L86.0368 68.6455L85.3679 72.6589L81.5218 72.4917L79.5151 76.1706L75.8361 74.4984L72.8261 77.3412L69.9833 74.6656L66.1371 76.1706L64.2977 72.6589H60.2843L59.7826 68.8127L55.9365 67.475L56.7726 63.6288L53.5953 61.1204L55.602 57.776L53.5953 54.2643L56.6054 51.9231L55.9365 47.9097L59.6154 46.7392L60.2843 42.7258L64.1305 42.893L66.1371 39.2141L69.8161 40.7191L72.8261 38.0435Z" stroke="#EF7F1A" stroke-width="2.17391" stroke-miterlimit="22.9256" stroke-linecap="round" stroke-linejoin="round"/>
<path d="M38.7124 22.6589H22.1572V31.8562H38.7124V22.6589Z" stroke="#EF7F1A" stroke-width="2.17391" stroke-miterlimit="22.9256" stroke-linecap="round" stroke-linejoin="round"/>
<path d="M21.99 41.388H54.097" stroke="#EF7F1A" stroke-width="2.17391" stroke-miterlimit="22.9256" stroke-linecap="round" stroke-linejoin="round"/>
<path d="M21.99 47.2408H40.7191" stroke="#EF7F1A" stroke-width="2.17391" stroke-miterlimit="22.9256" stroke-linecap="round" stroke-linejoin="round"/>
<path d="M21.99 53.2609H48.0769" stroke="#EF7F1A" stroke-width="2.17391" stroke-miterlimit="22.9256" stroke-linecap="round" stroke-linejoin="round"/>
<path d="M21.99 59.1137H40.7191" stroke="#EF7F1A" stroke-width="2.17391" stroke-miterlimit="22.9256" stroke-linecap="round" stroke-linejoin="round"/>
<path d="M80.3512 55.4348H76.1706V63.6288H80.3512V55.4348Z" stroke="#EF7F1A" stroke-width="1.17057" stroke-miterlimit="22.9256" stroke-linecap="round" stroke-linejoin="round"/>
<path d="M76.1706 56.2709C75.1672 55.6021 74.3311 54.7659 73.6622 54.097C73.1605 53.5954 72.8261 53.0937 72.6589 52.592C72.4917 51.9231 72.3244 51.4215 72.1572 50.9198C72.1572 50.4181 72.1572 50.0837 71.99 49.7492C71.99 49.4148 71.8228 49.2475 71.6555 49.2475C71.4883 49.0803 71.1539 49.2475 70.9866 49.2475C70.6522 49.2475 70.485 49.4148 70.3177 49.582C70.1505 49.9164 69.9833 50.4181 69.9833 50.9198C69.8161 51.5887 69.8161 52.2576 69.9833 52.9265C69.9833 53.5954 70.1505 54.2643 70.3177 54.5987C70.485 55.1004 70.6522 55.2676 70.6522 55.2676C70.8194 55.4348 70.6522 55.4348 69.8161 55.4348C68.8127 55.4348 67.3077 55.4348 66.3044 55.4348C65.4682 55.4348 65.301 55.6021 65.301 55.7693C65.1338 55.9365 64.9666 56.1037 64.7993 56.4382C64.7993 56.6054 64.7993 56.9398 64.9666 57.1071C64.9666 57.4415 65.301 57.6087 65.4682 57.776C65.4682 57.9432 65.4682 57.9432 65.4682 57.9432C65.301 58.1104 65.301 58.2776 65.301 58.4449C65.1338 58.6121 65.1338 58.9465 65.301 59.1138C65.4682 59.281 65.6355 59.6154 65.8027 59.6154C65.9699 59.7827 65.9699 59.7827 65.9699 59.9499C66.1371 59.9499 65.9699 59.9499 65.9699 60.1171C65.8027 60.2843 65.8027 60.4516 65.8027 60.786C65.8027 61.1205 65.8027 61.2877 66.1371 61.6221C66.3044 61.7893 66.6388 61.9566 66.806 61.9566C66.9733 62.1238 66.806 62.1238 66.806 62.291C66.806 62.291 66.6388 62.4582 66.6388 62.6255C66.806 62.7927 66.806 63.1271 66.9733 63.2944C67.3077 63.6288 67.4749 63.796 68.6455 63.796C69.6488 63.796 71.6555 63.796 72.9933 63.6288C74.4983 63.2944 75.3345 62.9599 76.1706 62.4582" stroke="#EF7F1A" stroke-width="1.17057" stroke-miterlimit="22.9256" stroke-linecap="round" stroke-linejoin="round"/>
</svg>
