<svg width="100" height="80" viewBox="0 0 100 80" fill="none" xmlns="http://www.w3.org/2000/svg">
<path fill-rule="evenodd" clip-rule="evenodd" d="M41.1765 16.4438H35.2941V31.1497C42.9144 31.1497 49.0642 37.2995 49.0642 44.9198C49.0642 52.5401 42.9144 58.6898 35.2941 58.6898V73.3957H41.1765V66.9786C43.1818 66.4439 45.0535 65.6417 46.7915 64.5722L51.3369 69.2513L59.6257 60.9626L55.0802 56.2834C56.0161 54.5455 56.8182 52.6738 57.353 50.8021H63.9038V39.0374H57.353C56.8182 37.0321 56.0161 35.1604 55.0802 33.5561L59.6257 28.877L51.3369 20.5882L46.7915 25.1337C45.0535 24.1979 43.1818 23.3957 41.1765 22.861V16.4438V16.4438Z" stroke="#EF7F1A" stroke-width="2.13904" stroke-miterlimit="22.9256" stroke-linecap="round" stroke-linejoin="round"/>
<path d="M34.6257 52.0054C38.4651 52.0054 41.5775 48.8929 41.5775 45.0535C41.5775 41.2141 38.4651 38.1016 34.6257 38.1016C30.7863 38.1016 27.6738 41.2141 27.6738 45.0535C27.6738 48.8929 30.7863 52.0054 34.6257 52.0054Z" stroke="#EF7F1A" stroke-width="1.06952" stroke-miterlimit="22.9256" stroke-linecap="round" stroke-linejoin="round"/>
<path d="M29.9465 39.9733H23.5294V30.7487" stroke="#EF7F1A" stroke-width="1.06952" stroke-miterlimit="22.9256" stroke-linecap="round" stroke-linejoin="round"/>
<path d="M27.6738 45.0535H14.9733" stroke="#EF7F1A" stroke-width="1.06952" stroke-miterlimit="22.9256" stroke-linecap="round" stroke-linejoin="round"/>
<path d="M29.9465 50.1337H23.5294V59.7593" stroke="#EF7F1A" stroke-width="1.06952" stroke-miterlimit="22.9256" stroke-linecap="round" stroke-linejoin="round"/>
<path d="M23.3957 67.5134C25.5369 67.5134 27.2727 65.7776 27.2727 63.6363C27.2727 61.4951 25.5369 59.7593 23.3957 59.7593C21.2545 59.7593 19.5187 61.4951 19.5187 63.6363C19.5187 65.7776 21.2545 67.5134 23.3957 67.5134Z" stroke="#EF7F1A" stroke-width="1.06952" stroke-miterlimit="22.9256" stroke-linecap="round" stroke-linejoin="round"/>
<path d="M23.3957 30.7486C25.5369 30.7486 27.2727 29.0128 27.2727 26.8716C27.2727 24.7304 25.5369 22.9946 23.3957 22.9946C21.2545 22.9946 19.5187 24.7304 19.5187 26.8716C19.5187 29.0128 21.2545 30.7486 23.3957 30.7486Z" stroke="#EF7F1A" stroke-width="1.06952" stroke-miterlimit="22.9256" stroke-linecap="round" stroke-linejoin="round"/>
<path d="M11.2299 48.5294C13.3712 48.5294 15.1069 46.7936 15.1069 44.6524C15.1069 42.5112 13.3712 40.7754 11.2299 40.7754C9.08873 40.7754 7.35294 42.5112 7.35294 44.6524C7.35294 46.7936 9.08873 48.5294 11.2299 48.5294Z" stroke="#EF7F1A" stroke-width="1.06952" stroke-miterlimit="22.9256" stroke-linecap="round" stroke-linejoin="round"/>
<path d="M72.0588 11.3636H1.06952V78.6096H72.0588V11.3636Z" stroke="#EF7F1A" stroke-width="2.13904" stroke-miterlimit="22.9256" stroke-linecap="round" stroke-linejoin="round"/>
<path d="M98.7968 28.3422H72.0588V70.0535H98.7968V28.3422Z" stroke="#EF7F1A" stroke-width="2.13904" stroke-miterlimit="22.9256" stroke-linecap="round" stroke-linejoin="round"/>
<path fill-rule="evenodd" clip-rule="evenodd" d="M8.42246 1.06952H65.9091L72.0588 11.3636H1.06952L8.42246 1.06952Z" stroke="#EF7F1A" stroke-width="2.13904" stroke-miterlimit="22.9256" stroke-linecap="round" stroke-linejoin="round"/>
<path fill-rule="evenodd" clip-rule="evenodd" d="M72.0588 20.7219H94.1176L98.9305 28.3422H72.0588V20.7219Z" stroke="#EF7F1A" stroke-width="2.13904" stroke-miterlimit="22.9256" stroke-linecap="round" stroke-linejoin="round"/>
<path d="M94.5187 35.5615H72.0588V41.9786H94.5187V35.5615Z" stroke="#EF7F1A" stroke-width="1.06952" stroke-miterlimit="22.9256" stroke-linecap="round" stroke-linejoin="round"/>
<path d="M94.5187 46.9251H72.0588V53.3422H94.5187V46.9251Z" stroke="#EF7F1A" stroke-width="1.06952" stroke-miterlimit="22.9256" stroke-linecap="round" stroke-linejoin="round"/>
<path d="M94.5187 58.2888H72.0588V64.7059H94.5187V58.2888Z" stroke="#EF7F1A" stroke-width="1.06952" stroke-miterlimit="22.9256" stroke-linecap="round" stroke-linejoin="round"/>
</svg>
