<svg width="100" height="77" viewBox="0 0 100 77" fill="none" xmlns="http://www.w3.org/2000/svg">
<path fill-rule="evenodd" clip-rule="evenodd" d="M79.1537 2.96954C83.1131 2.96954 86.2389 6.19958 86.2389 10.0548V14.0142C86.2389 16.7233 84.676 19.1197 82.3837 20.2659C81.446 20.7869 80.2998 21.0994 79.1537 21.0994C77.9033 21.0994 76.653 20.6827 75.6111 20.0575C75.6111 16.5149 75.6111 5.99119 75.6111 5.67861H79.0495V2.96954H79.1537Z" stroke="#EF7F1A" stroke-width="2.18809" stroke-miterlimit="22.9256" stroke-linecap="round" stroke-linejoin="round"/>
<path fill-rule="evenodd" clip-rule="evenodd" d="M20.0752 2.96954C20.1794 2.96954 20.1794 2.96954 20.2836 2.96954V5.67861H23.3052C23.3052 5.99119 23.3052 16.9317 23.3052 20.2659C22.3675 20.7869 21.2213 21.0994 20.0752 21.0994C16.1158 21.0994 12.9899 17.8694 12.9899 14.0142V10.0548C12.9899 6.19958 16.1158 2.96954 20.0752 2.96954V2.96954Z" stroke="#EF7F1A" stroke-width="2.18809" stroke-miterlimit="22.9256" stroke-linecap="round" stroke-linejoin="round"/>
<path fill-rule="evenodd" clip-rule="evenodd" d="M75.6111 5.67865C75.6111 5.99123 75.6111 21.0995 75.6111 21.3079C75.6111 31.519 67.2755 39.8546 57.0644 39.8546H41.8519C31.6408 39.8546 23.3052 31.519 23.3052 21.3079C23.3052 21.0995 23.3052 5.99123 23.3052 5.67865H42.7897L42.2687 6.82479L38.8303 6.7206L38.3093 10.159L34.9751 11.201L35.7044 14.7436L32.9954 16.8275L34.8709 19.8491L32.9954 22.6624L35.7044 24.9547L34.9751 28.2889L38.4135 29.4351L38.8303 32.7693H42.3729L43.9358 35.791L47.2701 34.4364L49.7707 36.8329L52.4798 34.4364L55.6056 35.791L57.2728 32.6651L60.7112 32.7693L61.2322 29.3309L64.5664 28.2889L63.837 24.7463L66.5461 22.6624L64.6706 19.6408L66.5461 16.8275L63.837 14.5352L64.5664 11.201L61.128 10.0548L60.7112 6.7206H57.1686L56.6476 5.67865H75.6111V5.67865Z" stroke="#EF7F1A" stroke-width="2.18809" stroke-miterlimit="22.9256" stroke-linecap="round" stroke-linejoin="round"/>
<path fill-rule="evenodd" clip-rule="evenodd" d="M20.2836 1.09406H79.0495V5.67863H56.6476L55.6056 3.69893L52.2714 5.05346L49.7707 2.65698L47.0617 5.05346L43.9358 3.69893L42.7897 5.67863H20.2836V1.09406Z" stroke="#EF7F1A" stroke-width="2.18809" stroke-miterlimit="22.9256" stroke-linecap="round" stroke-linejoin="round"/>
<path fill-rule="evenodd" clip-rule="evenodd" d="M49.7707 2.65698L52.2714 5.05346L55.6056 3.69893L57.1686 6.72058H60.7112L61.128 10.0548L64.5664 11.201L63.837 14.5352L66.5461 16.8275L64.6706 19.6407L66.5461 22.6624L63.837 24.7463L64.5664 28.2889L61.2322 29.3309L60.7112 32.7693L57.2728 32.6651L55.6056 35.7909L52.4798 34.4364L49.7707 36.8329L47.2701 34.4364L43.9358 35.7909L42.3729 32.7693H38.8303L38.4135 29.4351L34.9751 28.2889L35.7044 24.9547L32.9954 22.6624L34.8709 19.8491L32.9954 16.8275L35.7044 14.7436L34.9751 11.201L38.3093 10.159L38.8303 6.72058L42.2687 6.82478L43.9358 3.69893L47.0617 5.05346L49.7707 2.65698Z" stroke="#EF7F1A" stroke-width="2.18809" stroke-miterlimit="22.9256" stroke-linecap="round" stroke-linejoin="round"/>
<path fill-rule="evenodd" clip-rule="evenodd" d="M49.7707 7.44995L51.542 9.11707L53.9385 8.17932L55.0847 10.3674H57.6895L58.0021 12.7639L60.3986 13.5974L59.8776 15.9939L61.8573 17.661L60.5028 19.7449L61.8573 21.933L59.8776 23.3918L60.3986 25.8924L58.1063 26.6218L57.6895 29.1225L55.1889 29.0183L53.9385 31.3106L51.6462 30.3728L49.7707 32.0399L47.9994 30.3728L45.6029 31.3106L44.4568 29.1225H41.8519L41.5393 26.726L39.1429 25.8924L39.6638 23.496L37.6841 21.933L39.0387 19.8491L37.6841 17.661L39.6638 16.0981L39.1429 13.5974L41.4351 12.8681L41.8519 10.3674L44.3526 10.4716L45.6029 8.17932L47.8952 9.11707L49.7707 7.44995Z" stroke="#EF7F1A" stroke-width="1.04195" stroke-miterlimit="22.9256" stroke-linecap="round" stroke-linejoin="round"/>
<path fill-rule="evenodd" clip-rule="evenodd" d="M47.2701 14.7436V11.9303H53.105V14.7436H51.6462V24.7463H53.105V27.5595H47.2701V24.7463H48.7288V14.7436H47.2701Z" stroke="#EF7F1A" stroke-width="1.04195" stroke-miterlimit="22.9256" stroke-linecap="round" stroke-linejoin="round"/>
<path fill-rule="evenodd" clip-rule="evenodd" d="M39.6638 63.611L40.7058 64.9655L42.3729 65.5907L41.4351 66.9452L41.3309 68.8207L39.768 68.2997L37.9967 68.8207V67.1536L36.9548 65.5907L38.5177 65.0697L39.6638 63.611Z" stroke="#EF7F1A" stroke-width="1.04195" stroke-miterlimit="22.9256" stroke-linecap="round" stroke-linejoin="round"/>
<path fill-rule="evenodd" clip-rule="evenodd" d="M50.2917 63.611L51.3337 64.9655L53.0008 65.5907L52.063 66.9452L51.9588 68.8207L50.3959 68.2997L48.6246 68.8207V67.1536L47.5826 65.5907L49.1456 65.0697L50.2917 63.611Z" stroke="#EF7F1A" stroke-width="1.04195" stroke-miterlimit="22.9256" stroke-linecap="round" stroke-linejoin="round"/>
<path fill-rule="evenodd" clip-rule="evenodd" d="M61.2322 63.611L62.1699 64.9655L63.9412 65.5907L63.0035 66.9452L62.8993 68.8207L61.2322 68.2997L59.565 68.8207L59.4609 67.1536L58.5231 65.5907L60.086 65.0697L61.2322 63.611Z" stroke="#EF7F1A" stroke-width="1.04195" stroke-miterlimit="22.9256" stroke-linecap="round" stroke-linejoin="round"/>
<path d="M54.9805 39.8546H44.4568C42.7304 39.8546 41.3309 40.6476 41.3309 41.6259C41.3309 42.6041 42.7304 43.3972 44.4568 43.3972H54.9805C56.7068 43.3972 58.1063 42.6041 58.1063 41.6259C58.1063 40.6476 56.7068 39.8546 54.9805 39.8546Z" stroke="#EF7F1A" stroke-width="2.18809" stroke-miterlimit="22.9256" stroke-linecap="round" stroke-linejoin="round"/>
<path d="M55.3973 43.3972H43.9358V49.2321H55.3973V43.3972Z" stroke="#EF7F1A" stroke-width="2.18809" stroke-miterlimit="22.9256" stroke-linecap="round" stroke-linejoin="round"/>
<path fill-rule="evenodd" clip-rule="evenodd" d="M68.2132 56.3173C67.0671 52.2537 60.9196 49.2321 53.5217 49.2321H45.7071C38.3093 49.2321 32.1618 52.2537 31.0157 56.3173H68.2132V56.3173Z" stroke="#EF7F1A" stroke-width="2.18809" stroke-miterlimit="22.9256" stroke-linecap="round" stroke-linejoin="round"/>
<path d="M77.4866 56.3173H21.8465V75.906H77.4866V56.3173Z" stroke="#EF7F1A" stroke-width="2.18809" stroke-miterlimit="22.9256" stroke-linecap="round" stroke-linejoin="round"/>
<path d="M67.4839 60.0684H31.9534V72.0508H67.4839V60.0684Z" stroke="#EF7F1A" stroke-width="1.04195" stroke-miterlimit="22.9256" stroke-linecap="round" stroke-linejoin="round"/>
<path fill-rule="evenodd" clip-rule="evenodd" d="M83.3215 52.9831C83.5299 51.6285 83.6341 49.2321 84.5718 47.8775C85.4054 46.523 86.8641 46.1062 89.3648 45.7936C91.8655 45.3769 95.3039 45.1685 96.8668 45.0643C98.4297 45.0643 98.1171 45.2727 97.1794 46.7314C96.3458 48.0859 94.8871 50.6908 93.741 52.4621C92.5948 54.2334 91.7613 55.2754 89.8858 55.5879C88.0102 55.9005 85.0928 55.4838 83.8425 55.1712C82.5921 54.7544 83.0089 54.3376 83.3215 52.9831V52.9831Z" stroke="#EF7F1A" stroke-width="1.04195" stroke-miterlimit="22.9256"/>
<path fill-rule="evenodd" clip-rule="evenodd" d="M87.2809 41.0007C87.2809 39.6461 87.0725 37.5622 87.5935 36.2077C88.0102 34.9574 89.3648 34.3322 91.5529 33.6028C93.6368 32.8735 96.6584 32.0399 98.0129 31.8315C99.3675 31.5189 99.0549 31.7273 98.5339 33.1861C98.0129 34.5406 97.1794 37.0413 96.45 38.8126C95.7207 40.5839 95.1997 41.6258 93.5326 42.1468C91.9696 42.772 89.2606 42.8762 88.1144 42.772C86.9683 42.6678 87.2809 42.251 87.2809 41.0007V41.0007Z" stroke="#EF7F1A" stroke-width="1.04195" stroke-miterlimit="22.9256"/>
<path fill-rule="evenodd" clip-rule="evenodd" d="M84.676 31.8315C84.3634 30.8938 83.5299 29.435 83.4257 28.3931C83.4257 27.2469 84.155 26.4134 85.5096 25.2672C86.7599 24.1211 88.6354 22.5582 89.5732 21.933C90.4067 21.3078 90.3025 21.6204 90.3025 22.7666C90.3025 23.9127 90.5109 25.9966 90.5109 27.4553C90.6151 28.9141 90.5109 29.8518 89.5732 30.6854C88.5312 31.6231 86.7599 32.5609 85.8222 32.8735C84.9886 33.0819 85.0928 32.6651 84.676 31.8315V31.8315Z" stroke="#EF7F1A" stroke-width="1.04195" stroke-miterlimit="22.9256"/>
<path fill-rule="evenodd" clip-rule="evenodd" d="M16.22 52.9831C15.9074 51.6285 15.8032 49.2321 14.9696 47.8775C14.1361 46.523 12.5732 46.1062 10.0725 45.7936C7.57181 45.3769 4.13338 45.1685 2.57046 45.0643C1.11173 45.0643 1.42431 45.2727 2.25787 46.7314C3.19563 48.0859 4.65435 50.6908 5.8005 52.4621C6.84245 54.2334 7.67601 55.2754 9.65571 55.5879C11.5312 55.9005 14.4487 55.4838 15.699 55.1712C16.9493 54.7544 16.5326 54.3376 16.22 52.9831V52.9831Z" stroke="#EF7F1A" stroke-width="1.04195" stroke-miterlimit="22.9256"/>
<path fill-rule="evenodd" clip-rule="evenodd" d="M12.2606 41.0007C12.1564 39.6461 12.469 37.5622 11.948 36.2077C11.427 34.9574 10.1767 34.3322 7.98859 33.6028C5.8005 32.8735 2.88304 32.0399 1.52851 31.8315C0.173978 31.5189 0.382367 31.7273 1.00754 33.1861C1.52851 34.5406 2.36207 37.0413 3.09143 38.8126C3.8208 40.5839 4.34177 41.6258 5.90469 42.1468C7.57181 42.772 10.2809 42.8762 11.427 42.772C12.5732 42.6678 12.2606 42.251 12.2606 41.0007V41.0007Z" stroke="#EF7F1A" stroke-width="1.04195" stroke-miterlimit="22.9256"/>
<path fill-rule="evenodd" clip-rule="evenodd" d="M14.7613 31.8315C15.178 30.8938 16.0116 29.435 16.0116 28.3931C16.1158 27.2469 15.3864 26.4134 14.0319 25.2672C12.7816 24.1211 10.906 22.5582 9.96829 21.933C9.13474 21.3078 9.23893 21.6204 9.13474 22.7666C9.13474 23.9127 9.03054 25.9966 8.92635 27.4553C8.92635 28.9141 9.03054 29.8518 9.96829 30.6854C10.906 31.6231 12.7816 32.5609 13.6151 32.8735C14.5529 33.0819 14.4487 32.6651 14.7613 31.8315V31.8315Z" stroke="#EF7F1A" stroke-width="1.04195" stroke-miterlimit="22.9256"/>
</svg>
