<svg width="100" height="94" viewBox="0 0 100 94" fill="none" xmlns="http://www.w3.org/2000/svg">
<path d="M92.8318 79.1251H7.08699C3.81812 79.1251 1.16818 82.176 1.16818 85.9395C1.16818 89.703 3.81812 92.754 7.08699 92.754H92.8318C96.1007 92.754 98.7506 89.703 98.7506 85.9395C98.7506 82.176 96.1007 79.1251 92.8318 79.1251Z" stroke="#EF7F1A" stroke-width="2.33637" stroke-miterlimit="22.9256" stroke-linecap="round" stroke-linejoin="round"/>
<path d="M8.64458 89.4052C10.4941 89.4052 11.9934 87.9059 11.9934 86.0564C11.9934 84.2069 10.4941 82.7076 8.64458 82.7076C6.79508 82.7076 5.29578 84.2069 5.29578 86.0564C5.29578 87.9059 6.79508 89.4052 8.64458 89.4052Z" stroke="#EF7F1A" stroke-width="1.16819" stroke-miterlimit="22.9256" stroke-linecap="round" stroke-linejoin="round"/>
<path d="M22.1176 89.4052C23.9671 89.4052 25.4664 87.9059 25.4664 86.0564C25.4664 84.2069 23.9671 82.7076 22.1176 82.7076C20.2682 82.7076 18.7688 84.2069 18.7688 86.0564C18.7688 87.9059 20.2682 89.4052 22.1176 89.4052Z" stroke="#EF7F1A" stroke-width="1.16819" stroke-miterlimit="22.9256" stroke-linecap="round" stroke-linejoin="round"/>
<path d="M36.2137 89.4052C38.0632 89.4052 39.5625 87.9059 39.5625 86.0564C39.5625 84.2069 38.0632 82.7076 36.2137 82.7076C34.3643 82.7076 32.8649 84.2069 32.8649 86.0564C32.8649 87.9059 34.3643 89.4052 36.2137 89.4052Z" stroke="#EF7F1A" stroke-width="1.16819" stroke-miterlimit="22.9256" stroke-linecap="round" stroke-linejoin="round"/>
<path d="M49.8426 89.4052C51.6921 89.4052 53.1914 87.9059 53.1914 86.0564C53.1914 84.2069 51.6921 82.7076 49.8426 82.7076C47.9931 82.7076 46.4938 84.2069 46.4938 86.0564C46.4938 87.9059 47.9931 89.4052 49.8426 89.4052Z" stroke="#EF7F1A" stroke-width="1.16819" stroke-miterlimit="22.9256" stroke-linecap="round" stroke-linejoin="round"/>
<path d="M63.4714 89.4052C65.3209 89.4052 66.8202 87.9059 66.8202 86.0564C66.8202 84.2069 65.3209 82.7076 63.4714 82.7076C61.6219 82.7076 60.1226 84.2069 60.1226 86.0564C60.1226 87.9059 61.6219 89.4052 63.4714 89.4052Z" stroke="#EF7F1A" stroke-width="1.16819" stroke-miterlimit="22.9256" stroke-linecap="round" stroke-linejoin="round"/>
<path d="M77.4118 89.4052C79.2612 89.4052 80.7606 87.9059 80.7606 86.0564C80.7606 84.2069 79.2612 82.7076 77.4118 82.7076C75.5623 82.7076 74.063 84.2069 74.063 86.0564C74.063 87.9059 75.5623 89.4052 77.4118 89.4052Z" stroke="#EF7F1A" stroke-width="1.16819" stroke-miterlimit="22.9256" stroke-linecap="round" stroke-linejoin="round"/>
<path d="M91.5079 89.4052C93.3573 89.4052 94.8567 87.9059 94.8567 86.0564C94.8567 84.2069 93.3573 82.7076 91.5079 82.7076C89.6584 82.7076 88.1591 84.2069 88.1591 86.0564C88.1591 87.9059 89.6584 89.4052 91.5079 89.4052Z" stroke="#EF7F1A" stroke-width="1.16819" stroke-miterlimit="22.9256" stroke-linecap="round" stroke-linejoin="round"/>
<path d="M92.7539 43.4565H45.715V79.1251H92.7539V43.4565Z" stroke="#EF7F1A" stroke-width="2.33637" stroke-miterlimit="22.9256" stroke-linecap="round" stroke-linejoin="round"/>
<path d="M69.2345 43.4565V79.1251" stroke="#EF7F1A" stroke-width="2.33637" stroke-miterlimit="22.9256" stroke-linecap="round" stroke-linejoin="round"/>
<path d="M65.9635 46.8053H48.8302V65.7299H65.9635V46.8053Z" stroke="#EF7F1A" stroke-width="1.16819" stroke-miterlimit="22.9256" stroke-linecap="round" stroke-linejoin="round"/>
<path d="M89.6388 46.8053H72.5054V58.1756H89.6388V46.8053Z" stroke="#EF7F1A" stroke-width="1.16819" stroke-miterlimit="22.9256" stroke-linecap="round" stroke-linejoin="round"/>
<path d="M89.6388 59.9669H72.5054V65.652H89.6388V59.9669Z" stroke="#EF7F1A" stroke-width="1.16819" stroke-miterlimit="22.9256" stroke-linecap="round" stroke-linejoin="round"/>
<path d="M80.2933 68.1442H72.5054V73.8293H80.2933V68.1442Z" stroke="#EF7F1A" stroke-width="1.16819" stroke-miterlimit="22.9256" stroke-linecap="round" stroke-linejoin="round"/>
<path d="M89.7167 68.1442H82.3181V73.8293H89.7167V68.1442Z" stroke="#EF7F1A" stroke-width="1.16819" stroke-miterlimit="22.9256" stroke-linecap="round" stroke-linejoin="round"/>
<path d="M16.5882 55.5278C18.0076 55.5278 19.1582 54.3771 19.1582 52.9578C19.1582 51.5384 18.0076 50.3878 16.5882 50.3878C15.1689 50.3878 14.0182 51.5384 14.0182 52.9578C14.0182 54.3771 15.1689 55.5278 16.5882 55.5278Z" stroke="#EF7F1A" stroke-width="2.33637" stroke-miterlimit="22.9256" stroke-linecap="round" stroke-linejoin="round"/>
<path fill-rule="evenodd" clip-rule="evenodd" d="M19.3919 27.3356V45.4035C18.691 45.3256 17.9901 45.2477 17.2113 45.2477H16.1988C15.42 45.2477 14.7191 45.3256 14.0182 45.4035V27.5692C14.7191 27.8028 15.5758 27.9586 16.4325 27.9586C17.5228 27.9586 18.5352 27.725 19.3919 27.3356V27.3356Z" stroke="#EF7F1A" stroke-width="2.33637" stroke-miterlimit="22.9256" stroke-linecap="round" stroke-linejoin="round"/>
<path d="M16.4325 23.1301C17.7658 23.1301 18.8467 22.0492 18.8467 20.7158C18.8467 19.3825 17.7658 18.3016 16.4325 18.3016C15.0991 18.3016 14.0182 19.3825 14.0182 20.7158C14.0182 22.0492 15.0991 23.1301 16.4325 23.1301Z" stroke="#EF7F1A" stroke-width="2.33637" stroke-miterlimit="22.9256" stroke-linecap="round" stroke-linejoin="round"/>
<path fill-rule="evenodd" clip-rule="evenodd" d="M43.3786 6.61975L23.3637 18.7689C22.8964 16.9777 21.6504 15.4201 20.0928 14.4855L41.821 1.16821H69.3902V6.61975H43.3786V6.61975Z" stroke="#EF7F1A" stroke-width="2.33637" stroke-miterlimit="22.9256" stroke-linecap="round" stroke-linejoin="round"/>
<path fill-rule="evenodd" clip-rule="evenodd" d="M16.1988 45.2477H17.2113C22.1176 45.2477 26.0895 47.7399 26.0895 50.7772V79.1251H7.32063V50.7772C7.32063 47.7399 11.2925 45.2477 16.1988 45.2477V45.2477Z" stroke="#EF7F1A" stroke-width="2.33637" stroke-miterlimit="22.9256" stroke-linecap="round" stroke-linejoin="round"/>
<path d="M16.4325 27.9586C20.4325 27.9586 23.6752 24.7159 23.6752 20.7158C23.6752 16.7158 20.4325 13.4731 16.4325 13.4731C12.4324 13.4731 9.18973 16.7158 9.18973 20.7158C9.18973 24.7159 12.4324 27.9586 16.4325 27.9586Z" stroke="#EF7F1A" stroke-width="2.33637" stroke-miterlimit="22.9256" stroke-linecap="round" stroke-linejoin="round"/>
<path d="M67.0538 6.61975H63.4714V13.3173H67.0538V6.61975Z" stroke="#EF7F1A" stroke-width="1.16819" stroke-miterlimit="22.9256" stroke-linecap="round" stroke-linejoin="round"/>
<path d="M75.2311 13.3173H55.2162V21.4946H75.2311V13.3173Z" stroke="#EF7F1A" stroke-width="1.16819" stroke-miterlimit="22.9256" stroke-linecap="round" stroke-linejoin="round"/>
<path d="M59.7332 21.5725H57.2411V26.4789H59.7332V21.5725Z" stroke="#EF7F1A" stroke-width="1.16819" stroke-miterlimit="22.9256" stroke-linecap="round" stroke-linejoin="round"/>
<path d="M73.1284 21.5725H70.6363V26.4789H73.1284V21.5725Z" stroke="#EF7F1A" stroke-width="1.16819" stroke-miterlimit="22.9256" stroke-linecap="round" stroke-linejoin="round"/>
</svg>
