<svg width="95" height="98" viewBox="0 0 95 98" fill="none" xmlns="http://www.w3.org/2000/svg">
<path d="M5.81709 13.998H75.3344C75.9019 13.998 76.4221 14.471 76.4221 15.0857V89.2376C76.4221 89.8523 75.9019 90.3252 75.3344 90.3252H5.81709C5.20231 90.3252 4.7294 89.8523 4.7294 89.2376V77.4149H6.85748V88.1972H74.2467V16.1734H6.85748V77.4149H4.7294V15.0857C4.7294 14.471 5.20231 13.998 5.81709 13.998Z" fill="#EF7F1A"/>
<path d="M9.88412 18.9163H71.2202C71.5039 18.9163 71.7403 19.1527 71.7403 19.4365V84.8868C71.7403 85.1705 71.5039 85.407 71.2202 85.407H9.88412C9.60038 85.407 9.36392 85.1705 9.36392 84.8868V19.4365C9.36392 19.1527 9.60038 18.9163 9.88412 18.9163ZM70.7 20.0039H10.4516V76.5163V76.8947V77.9351V78.9282V84.3193H70.7V20.0039ZM12.3432 76.8947V76.5163V22.6522C12.3432 22.3685 12.5797 22.132 12.9107 22.132H35.894C36.1777 22.132 36.4142 22.3685 36.4142 22.6522V81.671C36.4142 82.0021 36.1777 82.2385 35.894 82.2385H12.9107C12.5797 82.2385 12.3432 82.0021 12.3432 81.671V78.9282V77.9351V76.8947ZM13.4309 77.4149V81.1508H35.3738V23.1724H13.4309V77.4149Z" fill="#EF7F1A"/>
<path fill-rule="evenodd" clip-rule="evenodd" d="M12.9107 22.6523H35.894V81.6711H12.9107V77.4149V55.0937V22.6523Z" stroke="#EF7F1A" stroke-width="1.25502" stroke-miterlimit="22.9256" stroke-linecap="round" stroke-linejoin="round"/>
<path fill-rule="evenodd" clip-rule="evenodd" d="M38.3058 20.9498H69.7541V83.4208H38.3058V20.9498ZM41.1905 23.7872H66.8694V80.5361H41.1905V51.8779H40.3393C39.7245 51.8779 39.2516 51.405 39.2516 50.8375C39.2516 50.27 39.7245 49.7971 40.3393 49.7971H41.1905V23.7872V23.7872Z" stroke="#EF7F1A" stroke-width="1.25502" stroke-miterlimit="22.9256" stroke-linecap="round" stroke-linejoin="round"/>
<path d="M78.5029 89.6158H1.22992V96.6622H78.5029V89.6158Z" stroke="#EF7F1A" stroke-width="2.45984" stroke-miterlimit="22.9256" stroke-linecap="round" stroke-linejoin="round"/>
<path d="M44.5955 49.7971H39.6773C39.1027 49.7971 38.6369 50.2629 38.6369 50.8375V50.8848C38.6369 51.4594 39.1027 51.9252 39.6773 51.9252H44.5955C45.1701 51.9252 45.6359 51.4594 45.6359 50.8848V50.8375C45.6359 50.2629 45.1701 49.7971 44.5955 49.7971Z" stroke="#EF7F1A" stroke-width="1.25502" stroke-miterlimit="22.9256" stroke-linecap="round" stroke-linejoin="round"/>
<path d="M13.0999 7.04633H82.6172C83.232 7.04633 83.7049 7.56652 83.7049 8.13401V82.3331C83.7049 82.9006 83.232 83.3735 82.6172 83.3735H75.4763V81.2454H81.5768V9.2217H14.1876V15.0857H12.0595V8.13401C12.0595 7.56652 12.5324 7.04633 13.0999 7.04633Z" fill="#EF7F1A"/>
<path fill-rule="evenodd" clip-rule="evenodd" d="M75.4763 82.7114H85.7857V89.7577H75.4763V82.7114Z" stroke="#EF7F1A" stroke-width="2.45984" stroke-miterlimit="22.9256" stroke-linecap="round" stroke-linejoin="round"/>
<path d="M20.4299 0H89.9473C90.5148 0 90.9877 0.472907 90.9877 1.08769V75.2395C90.9877 75.8543 90.5148 76.3272 89.9473 76.3272H82.7591V74.1991H88.8596V2.17537H21.4703V7.99213H19.3423V1.08769C19.3423 0.472907 19.8152 0 20.4299 0V0Z" fill="#EF7F1A"/>
<path fill-rule="evenodd" clip-rule="evenodd" d="M82.7591 75.6178H93.1157V82.7114H82.7591V75.6178Z" stroke="#EF7F1A" stroke-width="2.45984" stroke-miterlimit="22.9256" stroke-linecap="round" stroke-linejoin="round"/>
</svg>
