<svg width="102" height="86" viewBox="0 0 102 86" fill="none" xmlns="http://www.w3.org/2000/svg">
<path fill-rule="evenodd" clip-rule="evenodd" d="M12.7816 17.193H16.8658C16.8658 19.2351 18.091 20.4603 19.7247 20.4603H31.9773C32.3857 20.4603 33.2025 20.4603 33.6109 20.0519C34.0194 20.4603 34.8362 20.4603 35.2446 20.4603H38.1035C38.512 20.4603 39.3288 20.4603 39.7372 20.0519C40.1456 20.4603 40.5541 20.4603 40.9625 20.4603H53.6234C54.8487 20.4603 56.074 18.8267 56.074 17.193H60.975C63.4255 17.193 65.4676 19.2351 65.4676 21.6856V69.4706C65.4676 71.9211 63.4255 73.9632 60.975 73.9632H40.9625C40.9625 73.9632 40.9625 73.9632 40.9625 73.5548C40.9625 67.4285 36.0614 62.5275 29.9352 62.5275C23.8089 62.5275 18.9079 67.4285 18.9079 73.5548C18.9079 73.9632 18.9079 73.9632 18.9079 73.9632H12.7816C10.3311 73.9632 8.69739 71.9211 8.69739 69.4706V40.0644C8.69739 44.1486 10.3311 47.416 15.2321 47.0076L15.6405 51.0918C15.6405 54.3591 18.091 57.218 21.7668 57.218H32.7941C36.0614 57.218 38.9204 54.3591 38.9204 51.0918V31.4876C38.9204 28.2203 36.0614 25.3614 32.7941 25.3614H8.69739V21.6856C8.69739 19.2351 10.3311 17.193 12.7816 17.193V17.193Z" stroke="#EF7F1A" stroke-width="2" stroke-miterlimit="22.9256" stroke-linecap="round" stroke-linejoin="round"/>
<path fill-rule="evenodd" clip-rule="evenodd" d="M69.1433 28.6288H82.2127C84.2548 28.6288 84.6632 30.6709 85.8885 32.3046L101 49.8666V69.4707C101 71.5128 99.3663 73.1464 97.3242 73.1464H94.4653C94.0568 67.0201 89.1558 62.5275 83.0295 62.5275C77.3117 62.5275 72.4106 67.0201 72.0022 73.1464H69.1433C67.1012 73.1464 65.4675 71.5128 65.4675 69.4707V32.3046C65.4675 30.2625 67.1012 28.6288 69.1433 28.6288V28.6288Z" stroke="#EF7F1A" stroke-width="2" stroke-miterlimit="22.9256" stroke-linecap="round" stroke-linejoin="round"/>
<path d="M29.9351 84.5823C36.0254 84.5823 40.9625 79.6452 40.9625 73.555C40.9625 67.4648 36.0254 62.5277 29.9351 62.5277C23.8449 62.5277 18.9078 67.4648 18.9078 73.555C18.9078 79.6452 23.8449 84.5823 29.9351 84.5823Z" stroke="#EF7F1A" stroke-width="2" stroke-miterlimit="22.9256" stroke-linecap="round" stroke-linejoin="round"/>
<path d="M29.9352 78.8644C32.8675 78.8644 35.2446 76.4873 35.2446 73.5549C35.2446 70.6226 32.8675 68.2455 29.9352 68.2455C27.0029 68.2455 24.6257 70.6226 24.6257 73.5549C24.6257 76.4873 27.0029 78.8644 29.9352 78.8644Z" stroke="#EF7F1A" stroke-miterlimit="22.9256" stroke-linecap="round" stroke-linejoin="round"/>
<path d="M83.0296 84.5823C89.1198 84.5823 94.0569 79.6452 94.0569 73.555C94.0569 67.4648 89.1198 62.5277 83.0296 62.5277C76.9394 62.5277 72.0023 67.4648 72.0023 73.555C72.0023 79.6452 76.9394 84.5823 83.0296 84.5823Z" stroke="#EF7F1A" stroke-width="2" stroke-miterlimit="22.9256" stroke-linecap="round" stroke-linejoin="round"/>
<path d="M83.0297 78.8644C85.962 78.8644 88.3391 76.4873 88.3391 73.5549C88.3391 70.6226 85.962 68.2455 83.0297 68.2455C80.0973 68.2455 77.7202 70.6226 77.7202 73.5549C77.7202 76.4873 80.0973 78.8644 83.0297 78.8644Z" stroke="#EF7F1A" stroke-miterlimit="22.9256" stroke-linecap="round" stroke-linejoin="round"/>
<path fill-rule="evenodd" clip-rule="evenodd" d="M70.3685 34.7552H79.7622L90.7895 47.4162V50.2752H70.3685V34.7552Z" stroke="#EF7F1A" stroke-miterlimit="22.9256" stroke-linecap="round" stroke-linejoin="round"/>
<path d="M76.9032 53.951H73.2274C72.3252 53.951 71.5938 54.591 71.5938 55.3805C71.5938 56.17 72.3252 56.81 73.2274 56.81H76.9032C77.8054 56.81 78.5369 56.17 78.5369 55.3805C78.5369 54.591 77.8054 53.951 76.9032 53.951Z" stroke="#EF7F1A" stroke-miterlimit="22.9256" stroke-linecap="round" stroke-linejoin="round"/>
<path fill-rule="evenodd" clip-rule="evenodd" d="M4.20474 25.3616H32.7941C36.0614 25.3616 38.9203 28.2205 38.9203 31.4879V51.092C38.9203 54.3593 36.0614 57.2182 32.7941 57.2182H21.7667C18.091 57.2182 15.6405 54.3593 15.6405 51.092L15.232 47.0078C9.51419 47.8246 8.28893 43.332 8.69735 38.8394C-1.1047 38.431 -0.287864 25.3616 4.20474 25.3616V25.3616Z" stroke="#EF7F1A" stroke-width="2" stroke-miterlimit="22.9256" stroke-linecap="round" stroke-linejoin="round"/>
<path fill-rule="evenodd" clip-rule="evenodd" d="M20.5415 1.26473L30.752 7.79944C31.9772 8.20785 32.7941 9.02469 33.6109 9.84153C32.7941 10.2499 31.9772 11.8836 31.9772 13.1089H19.7247C19.7247 13.1089 19.7247 13.1089 19.3162 13.1089H18.9078V13.5173H18.4994H18.091C18.091 13.5173 18.091 13.5173 18.091 13.9257H17.6826V14.3341L17.2741 14.7426C17.2741 15.151 17.2741 15.151 16.8657 15.5594C16.8657 15.9678 16.8657 15.9678 16.8657 16.3762C16.8657 15.9678 16.8657 15.9678 16.8657 15.5594V6.16576C16.8657 3.71525 18.9078 0.0394784 20.5415 1.26473V1.26473Z" stroke="#EF7F1A" stroke-width="2" stroke-miterlimit="22.9256" stroke-linecap="round" stroke-linejoin="round"/>
<path fill-rule="evenodd" clip-rule="evenodd" d="M19.7247 13.1088H31.9772V16.3761V17.193C31.9772 18.4182 32.7941 19.235 33.6109 20.0519C33.2025 20.4603 32.3856 20.4603 31.9772 20.4603H19.7247C18.091 20.4603 16.8657 18.8266 16.8657 16.7845C16.8657 14.7424 18.091 13.1088 19.7247 13.1088V13.1088Z" stroke="#EF7F1A" stroke-width="1.40476" stroke-miterlimit="22.9256" stroke-linecap="round" stroke-linejoin="round"/>
<path fill-rule="evenodd" clip-rule="evenodd" d="M52.3981 1.26481L42.1877 7.39109C40.9624 8.20793 40.1456 8.61635 39.3287 9.43318C40.554 10.25 40.9624 11.4753 40.9624 13.109H53.215H53.6234C54.8486 13.109 55.6655 14.3342 56.0739 15.9679C56.0739 15.5595 56.0739 15.5595 56.0739 15.5595V6.16583C56.0739 3.3069 54.4402 0.039551 52.3981 1.26481V1.26481Z" stroke="#EF7F1A" stroke-width="2" stroke-miterlimit="22.9256" stroke-linecap="round" stroke-linejoin="round"/>
<path fill-rule="evenodd" clip-rule="evenodd" d="M40.9626 13.1088H53.6235C54.8488 13.1088 56.0741 14.7424 56.0741 16.7845C56.0741 18.8266 54.8488 20.4603 53.6235 20.4603H40.9626C40.5541 20.4603 40.1457 20.4603 39.7373 20.0519C40.5541 19.235 40.9626 18.4182 40.9626 17.193V16.3761V13.1088V13.1088Z" stroke="#EF7F1A" stroke-width="1.40476" stroke-miterlimit="22.9256" stroke-linecap="round" stroke-linejoin="round"/>
<path d="M38.1036 9.0249H34.8362C33.2573 9.0249 31.9773 10.8535 31.9773 13.1091V16.3764C31.9773 18.6321 33.2573 20.4606 34.8362 20.4606H38.1036C39.6825 20.4606 40.9625 18.6321 40.9625 16.3764V13.1091C40.9625 10.8535 39.6825 9.0249 38.1036 9.0249Z" stroke="#EF7F1A" stroke-width="2" stroke-miterlimit="22.9256" stroke-linecap="round" stroke-linejoin="round"/>
<path d="M11.9647 38.0225H33.2025" stroke="#EF7F1A" stroke-miterlimit="22.9256" stroke-linecap="round" stroke-linejoin="round"/>
<path d="M18.4994 46.191H33.6109" stroke="#EF7F1A" stroke-miterlimit="22.9256" stroke-linecap="round" stroke-linejoin="round"/>
<path d="M51.7393 56.903L46.6799 56.903L46.6799 57.7755L45.9117 57.7755L45.9117 56.903L45.2916 56.903C44.9002 56.903 44.6094 56.8683 44.4191 56.7988C44.1631 56.7036 43.9564 56.5372 43.7991 56.2994C43.6381 56.058 43.5576 55.7214 43.5576 55.2897C43.5576 55.0117 43.5905 54.7044 43.6564 54.3679L44.5179 54.516C44.4813 54.7209 44.463 54.9148 44.463 55.0977C44.463 55.3976 44.527 55.6098 44.6551 55.7342C44.7831 55.8586 45.0227 55.9208 45.3739 55.9208L45.9117 55.9208L45.9117 54.7849L46.6799 54.7849L46.6799 55.9208L51.7393 55.9208L51.7393 56.903ZM51.7393 54.0222L45.9117 54.0222L45.9117 53.1332L46.7952 53.1332C46.3818 52.9064 46.1092 52.6979 45.9775 52.5076C45.8458 52.3138 45.78 52.1016 45.78 51.8711C45.78 51.5382 45.8861 51.1998 46.0983 50.856L47.0146 51.1962C46.872 51.4376 46.8006 51.6791 46.8006 51.9205C46.8006 52.1363 46.8665 52.3302 46.9982 52.5022C47.1262 52.6741 47.3055 52.7966 47.5359 52.8698C47.8871 52.9796 48.2713 53.0344 48.6883 53.0344L51.7393 53.0344L51.7393 54.0222ZM49.8626 46.2795L49.9888 45.2589C50.5851 45.4198 51.0479 45.718 51.3771 46.1533C51.7063 46.5886 51.871 47.1447 51.871 47.8214C51.871 48.6738 51.6094 49.3506 51.0863 49.8518C50.5595 50.3493 49.8223 50.598 48.8749 50.598C47.8945 50.598 47.1335 50.3456 46.5921 49.8408C46.0507 49.336 45.78 48.6811 45.78 47.8763C45.78 47.0971 46.0452 46.4606 46.5757 45.9667C47.1061 45.4729 47.8524 45.2259 48.8145 45.2259C48.873 45.2259 48.9608 45.2278 49.0779 45.2314L49.0779 49.5774C49.7181 49.5408 50.2083 49.3597 50.5485 49.0342C50.8887 48.7086 51.0588 48.3025 51.0588 47.816C51.0588 47.4538 50.9637 47.1447 50.7735 46.8886C50.5833 46.6325 50.2796 46.4295 49.8626 46.2795ZM48.2658 49.5225L48.2658 46.2685C47.7756 46.3124 47.4079 46.4368 47.1628 46.6417C46.7824 46.9563 46.5921 47.3642 46.5921 47.8653C46.5921 48.319 46.7439 48.7013 47.0476 49.0122C47.3512 49.3195 47.7573 49.4896 48.2658 49.5225ZM49.8626 40.0239L49.9888 39.0033C50.5851 39.1642 51.0479 39.4624 51.3771 39.8977C51.7063 40.333 51.871 40.8891 51.871 41.5659C51.871 42.4182 51.6094 43.095 51.0863 43.5962C50.5595 44.0937 49.8223 44.3425 48.8749 44.3425C47.8945 44.3425 47.1335 44.09 46.5921 43.5852C46.0507 43.0804 45.78 42.4256 45.78 41.6207C45.78 40.8415 46.0452 40.205 46.5757 39.7111C47.1061 39.2173 47.8524 38.9703 48.8145 38.9703C48.873 38.9703 48.9608 38.9722 49.0779 38.9758L49.0779 43.3218C49.7181 43.2852 50.2083 43.1042 50.5485 42.7786C50.8887 42.453 51.0588 42.0469 51.0588 41.5604C51.0588 41.1982 50.9637 40.8891 50.7735 40.633C50.5833 40.3769 50.2796 40.1739 49.8626 40.0239ZM48.2658 43.2669L48.2658 40.0129C47.7756 40.0568 47.4079 40.1812 47.1628 40.3861C46.7824 40.7007 46.5921 41.1086 46.5921 41.6098C46.5921 42.0634 46.7439 42.4457 47.0476 42.7566C47.3512 43.0639 47.7573 43.234 48.2658 43.2669Z" fill="#EF7F1A"/>
</svg>
