<svg width="92" height="87" viewBox="0 0 92 87" fill="none" xmlns="http://www.w3.org/2000/svg">
<path fill-rule="evenodd" clip-rule="evenodd" d="M15.8147 5.81482H43.9628C43.9628 6.92593 44.7036 7.66667 45.8147 7.66667C46.9258 7.66667 47.6665 6.92593 47.6665 5.81482H75.8147C81.3702 5.81482 85.4443 10.2593 85.4443 15.4444V41C84.7036 41 83.9628 41.7407 83.9628 42.8519C83.9628 43.5926 84.7036 44.3333 85.4443 44.3333V70.2593C85.4443 75.4444 81.3702 79.8889 75.8147 79.8889H47.6665C47.6665 78.7778 46.9258 78.037 45.8147 78.037C44.7036 78.037 43.9628 78.7778 43.9628 79.8889H15.8147C10.6295 79.8889 6.18506 75.4444 6.18506 70.2593V44.3333C7.29617 44.3333 8.03691 43.5926 8.03691 42.8519C8.03691 41.7407 7.29617 41 6.18506 41V15.4444C6.18506 10.2593 10.6295 5.81482 15.8147 5.81482V5.81482Z" stroke="#EF7F1A" stroke-miterlimit="22.9256" stroke-linecap="round" stroke-linejoin="round"/>
<path d="M81 1H11C5.47715 1 1 5.97461 1 12.1111V73.963C1 80.0995 5.47715 85.0741 11 85.0741H81C86.5229 85.0741 91 80.0995 91 73.963V12.1111C91 5.97461 86.5229 1 81 1Z" stroke="#EF7F1A" stroke-width="2" stroke-miterlimit="22.9256" stroke-linecap="round" stroke-linejoin="round"/>
<path d="M46.1852 73.5926C63.1628 73.5926 76.9259 59.8295 76.9259 42.8518C76.9259 25.8742 63.1628 12.1111 46.1852 12.1111C29.2076 12.1111 15.4445 25.8742 15.4445 42.8518C15.4445 59.8295 29.2076 73.5926 46.1852 73.5926Z" stroke="#EF7F1A" stroke-width="2" stroke-miterlimit="22.9256" stroke-linecap="round" stroke-linejoin="round"/>
<path d="M45.8147 18.0371C45.8147 18.0371 45.8147 18.0371 46.1851 18.0371C59.5184 18.0371 70.6295 29.1482 70.6295 42.8519C70.6295 56.1853 59.5184 67.2964 46.1851 67.2964C32.4814 67.2964 21.3702 56.1853 21.3702 42.8519C21.3702 34.7038 25.4443 26.926 32.4814 22.1112" stroke="#EF7F1A" stroke-miterlimit="22.9256" stroke-linecap="round" stroke-linejoin="round"/>
<path fill-rule="evenodd" clip-rule="evenodd" d="M45.8148 78.0371C46.926 78.0371 47.6667 78.7778 47.6667 79.8889C47.6667 80.6297 46.926 81.7408 45.8148 81.7408C44.7037 81.7408 43.963 80.6297 43.963 79.8889C43.963 78.7778 44.7037 78.0371 45.8148 78.0371ZM4.70374 42.8519C4.70374 41.7408 5.44448 41 6.18522 41C7.29633 41 8.03707 41.7408 8.03707 42.8519C8.03707 43.5926 7.29633 44.3334 6.18522 44.3334C5.44448 44.3334 4.70374 43.5926 4.70374 42.8519V42.8519ZM45.8148 4.33337C46.926 4.33337 47.6667 5.07411 47.6667 5.81486C47.6667 6.92597 46.926 7.66671 45.8148 7.66671C44.7037 7.66671 43.963 6.92597 43.963 5.81486C43.963 5.07411 44.7037 4.33337 45.8148 4.33337V4.33337ZM83.963 42.8519C83.963 41.7408 84.7037 41 85.4445 41C86.5556 41 87.2963 41.7408 87.2963 42.8519C87.2963 43.5926 86.5556 44.3334 85.4445 44.3334C84.7037 44.3334 83.963 43.5926 83.963 42.8519Z" stroke="#EF7F1A" stroke-miterlimit="22.9256" stroke-linecap="round" stroke-linejoin="round"/>
<path d="M45.8147 44.7037C46.8375 44.7037 47.6666 43.8746 47.6666 42.8519C47.6666 41.8291 46.8375 41 45.8147 41C44.792 41 43.9629 41.8291 43.9629 42.8519C43.9629 43.8746 44.792 44.7037 45.8147 44.7037Z" stroke="#EF7F1A" stroke-miterlimit="22.9256" stroke-linecap="round" stroke-linejoin="round"/>
<path d="M45.8148 40.9999V18.4073" stroke="#EF7F1A" stroke-miterlimit="22.9256" stroke-linecap="round" stroke-linejoin="round"/>
<path d="M43.9629 42.8518H32.1111" stroke="#EF7F1A" stroke-miterlimit="22.9256" stroke-linecap="round" stroke-linejoin="round"/>
<path d="M24.7036 25.4444L32.4814 22.1111L28.7777 29.5185" stroke="#EF7F1A" stroke-miterlimit="22.9256" stroke-linecap="round" stroke-linejoin="round"/>
</svg>
