<svg width="122" height="86" viewBox="0 0 122 86" fill="none" xmlns="http://www.w3.org/2000/svg">
<path d="M25.2963 0H115.963C116.852 0 117.444 0.592592 117.444 1.18518V77.0369C117.444 77.6295 116.852 78.2221 115.963 78.2221H25.2963C24.7037 78.2221 24.1111 77.6295 24.1111 77.0369V64.8888H26.7777V75.8517H114.481V2.07407H26.7777V42.074H24.1111V1.18518C24.1111 0.592592 24.7037 0 25.2963 0V0Z" fill="#EF7F1A"/>
<path fill-rule="evenodd" clip-rule="evenodd" d="M32.4077 8.88892H63.8151V69.3333H32.4077V64.8888H46.9262C49.2966 64.8888 51.3706 62.8148 51.3706 60.1481V46.8148C51.3706 44.1481 49.2966 42.074 46.9262 42.074H32.4077V8.88892V8.88892Z" stroke="#EF7F1A" stroke-miterlimit="22.9256" stroke-linecap="round" stroke-linejoin="round"/>
<path fill-rule="evenodd" clip-rule="evenodd" d="M66.7776 7.11108H109.444V71.111H66.7776V7.11108V7.11108ZM69.7405 10.074H106.481V68.148H69.7405V38.8147H68.8517C68.2591 38.8147 67.6665 38.2221 67.6665 37.6295C67.6665 37.037 68.2591 36.7407 68.8517 36.7407H69.7405V10.074V10.074Z" stroke="#EF7F1A" stroke-miterlimit="22.9256" stroke-linecap="round" stroke-linejoin="round"/>
<path d="M121 77.3331H20.5557V84.4442H121V77.3331Z" stroke="#EF7F1A" stroke-width="2" stroke-miterlimit="22.9256" stroke-linecap="round" stroke-linejoin="round"/>
<path d="M73.5924 36.7407H68.8517C68.1971 36.7407 67.6665 37.205 67.6665 37.7778C67.6665 38.3505 68.1971 38.8148 68.8517 38.8148H73.5924C74.247 38.8148 74.7776 38.3505 74.7776 37.7778C74.7776 37.205 74.247 36.7407 73.5924 36.7407Z" stroke="#EF7F1A" stroke-miterlimit="22.9256" stroke-linecap="round" stroke-linejoin="round"/>
<path fill-rule="evenodd" clip-rule="evenodd" d="M12.8518 42.074H46.9259C49.2962 42.074 51.3703 44.148 51.3703 46.8147V60.148C51.3703 62.8147 49.2962 64.8888 46.9259 64.8888H12.8518C10.4815 64.8888 8.70369 63.4073 8.1111 61.3332C4.25925 61.0369 1 57.7777 1 53.6295C1 49.4814 4.25925 46.2221 8.1111 45.9258C8.70369 43.5555 10.4815 42.074 12.8518 42.074V42.074Z" stroke="#EF7F1A" stroke-width="2" stroke-miterlimit="22.9256"/>
<path d="M8.40729 56.2962C10.0437 56.2962 11.3703 54.9696 11.3703 53.3332C11.3703 51.6968 10.0437 50.3702 8.40729 50.3702C6.7709 50.3702 5.44434 51.6968 5.44434 53.3332C5.44434 54.9696 6.7709 56.2962 8.40729 56.2962Z" stroke="#EF7F1A" stroke-miterlimit="22.9256"/>
<path d="M38.0371 52.4443H33.8889V60.7406H38.0371V52.4443Z" stroke="#EF7F1A" stroke-miterlimit="22.9256"/>
<path d="M33.8885 53.037C32.7034 52.4444 31.8145 51.5555 31.2219 50.9629C30.6293 50.3703 30.333 49.7777 30.333 49.4815C30.0367 48.8889 29.7404 48.2963 29.7404 47.7037C29.7404 47.4074 29.7404 46.8148 29.4441 46.5185C29.4441 46.2222 29.4441 46.2222 29.1478 45.9259C29.1478 45.9259 28.8515 45.9259 28.5552 45.9259C28.2589 46.2222 27.9626 46.2222 27.9626 46.5185C27.6663 46.8148 27.6663 47.1111 27.37 47.7037C27.37 48.2963 27.37 49.1852 27.37 49.7777C27.6663 50.3703 27.6663 50.9629 27.9626 51.5555C27.9626 51.8518 28.2589 52.1481 28.2589 52.1481C28.2589 52.4444 28.2589 52.4444 27.37 52.4444C26.4811 52.4444 24.7034 52.4444 23.8145 52.4444C22.9256 52.4444 22.9256 52.4444 22.6293 52.7407C22.6293 52.7407 22.333 53.037 22.333 53.3333C22.333 53.6296 22.333 53.9259 22.333 53.9259C22.6293 54.2222 22.9256 54.5185 22.9256 54.8148C22.9256 55.1111 22.6293 55.1111 22.6293 55.4074C22.6293 55.7037 22.6293 55.7037 22.9256 56C22.9256 56.2963 23.2219 56.5926 23.2219 56.5926C23.5182 56.8888 23.5182 56.8888 23.5182 56.8888C23.5182 56.8888 23.5182 56.8888 23.5182 57.1851C23.2219 57.1851 23.2219 57.4814 23.2219 57.7777C23.2219 58.074 23.5182 58.3703 23.5182 58.3703C23.8145 58.6666 24.1108 58.9629 24.4071 58.9629C24.4071 58.9629 24.4071 58.9629 24.4071 59.2592C24.1108 59.2592 24.1108 59.2592 24.1108 59.5555C24.1108 59.8518 24.4071 60.1481 24.7034 60.4444C24.7034 60.4444 24.9997 60.7407 26.1849 60.7407C27.37 60.7407 29.1478 60.7407 30.6293 60.4444C32.1108 60.4444 32.9997 59.8518 33.8885 59.5555" stroke="#EF7F1A" stroke-miterlimit="22.9256"/>
<path d="M9.2964 55.9999C9.2964 55.111 9.5927 54.2222 9.00011 53.9259C8.11122 53.3333 6.92604 53.3333 5.44456 54.5185C3.96308 55.4073 2.4816 57.4814 2.1853 59.8518C2.1853 61.9259 3.07419 64.5925 5.14826 66.3703C7.22233 68.1481 10.4816 69.3332 13.1482 70.2221C15.5186 71.111 17.5927 71.9999 18.7779 73.1851C19.963 74.3703 20.2593 75.8518 20.5556 77.3332" stroke="#EF7F1A" stroke-miterlimit="22.9256"/>
<path d="M12.8518 64.8888C14.3333 66.6666 15.5185 68.4443 16.9999 69.9258C18.1851 71.111 19.3703 71.9999 19.9629 73.1851C20.5555 74.3703 20.5555 75.8517 20.5555 77.3332" stroke="#EF7F1A" stroke-miterlimit="22.9256"/>
</svg>
