<svg width="55" height="39" viewBox="0 0 55 39" fill="none" xmlns="http://www.w3.org/2000/svg">
<path fill-rule="evenodd" clip-rule="evenodd" d="M17.551 6.80272V2.58503H10.3401V12.8231C10.3401 12.9592 9.18367 13.8435 9.08163 13.9456C8.84354 14.1497 8.63945 14.2857 8.43537 14.4898C8.19728 14.6939 7.9932 14.8299 7.7551 15.034C7.34694 15.4422 6.90476 15.7483 6.46258 16.1224L3.87755 18.2993C3.77551 18.4014 3.67347 18.5034 3.57143 18.5714L0.170068 21.4286C0.0680272 21.5306 0.0680272 21.4966 0 21.5986H10.3401V38.5714H18.4354C18.5374 38.5714 18.5374 38.5034 18.6054 38.4013C18.6395 38.2993 18.6735 38.2653 18.7075 38.1633C18.8095 38.0272 18.8775 37.8911 18.9796 37.7551L20.4422 35.136C20.5782 35.2041 21.3265 36.6667 21.4286 36.8367L22.415 38.5714H25.2041C25.2041 38.2993 21.9048 32.7891 21.9048 32.585C21.9048 32.517 22.619 31.2925 22.7211 31.1224C22.9932 30.5782 23.2653 30.102 23.5714 29.5918L25.034 27.0068C25.102 26.8707 25.1701 26.7347 25.2381 26.6326H22.449L20.9524 29.2177C20.8503 29.4218 20.5442 29.8639 20.4762 30.102L20.3401 29.898C19.7619 28.8095 19.0476 27.6871 18.4694 26.5986H15.7143C15.7143 26.7007 15.7823 26.8027 15.8503 26.9048L17.415 29.6939C17.517 29.8979 17.6531 30.102 17.7551 30.3061L18.4694 31.5646C18.6395 31.8707 18.8435 32.1769 18.9796 32.483C19.0816 32.6871 18.7075 33.1633 18.5714 33.4354L16.9728 36.2245C16.9048 36.3265 16.8707 36.4966 16.7687 36.4966H12.3469V19.5238H5.64626C5.81633 19.2857 8.12925 17.449 8.57143 17.0408C8.74149 16.9048 8.87755 16.8027 9.0136 16.6667L11.9728 14.2177C12.0408 14.1497 12.3469 13.9116 12.3469 13.8095V4.62585H15.4762V11.2245L21.2245 6.42857C21.3265 6.36054 21.4286 6.2585 21.5306 6.19047C21.6326 6.08843 21.7347 5.98639 21.8367 5.91837C22.619 5.27211 23.6395 4.35374 24.4218 3.7415C24.5238 3.67347 24.5918 3.60544 24.7279 3.5034C24.8299 3.40136 24.932 3.29932 25.034 3.23129C25.136 3.12925 25.2381 3.06122 25.3741 2.95918C25.4762 2.85714 25.5782 2.78911 25.6803 2.65306C25.9524 2.78911 26.5986 3.40136 26.8707 3.63945L29.2517 5.64626C29.3197 5.71428 29.3537 5.71428 29.3878 5.7483L29.8639 6.12245C30.7143 6.87075 32.2449 8.09524 32.9932 8.77551C33.0612 8.84353 33.0612 8.84353 33.1292 8.91156C33.2653 8.97959 33.3333 9.04762 33.4354 9.14966L34.6258 10.1361C34.7279 10.2381 34.8299 10.3061 34.932 10.4082C35 10.4422 35.2041 10.6463 35.2721 10.6463H52.1769C52.3129 10.6463 52.2789 10.5782 52.2449 10.4762L52.0748 9.65986C52.0068 9.35374 51.9048 8.80952 51.8027 8.57143H36.6667C35.6122 8.57143 36.0884 8.60544 35.1701 7.89115L34.8639 7.65306C34.7619 7.58503 34.6939 7.517 34.5918 7.41496L34.1497 7.04081C33.0952 6.12245 32.0068 5.23809 30.9184 4.35374L29.2857 2.9932C29.2177 2.92517 29.2177 2.92517 29.1497 2.85714L25.8843 0.136054C25.8163 0.0680272 25.8163 0.0340136 25.7483 0C25.5442 0.0340136 25.3741 0.272109 25.2381 0.408163L24.2177 1.22449C24.1156 1.32653 24.0476 1.36054 23.9456 1.46258L20.7823 4.11565C20.034 4.72789 19.3537 5.37415 18.6054 5.95238L17.8231 6.59864C17.7551 6.66667 17.619 6.76871 17.551 6.80272ZM30.3741 28.8435C30.4762 28.9116 30.5442 29.3197 30.5442 29.4558L31.5646 34.2857H29.2177L30.3741 28.8435ZM39.3537 35.8163C39.3537 36.2245 39.0136 36.4966 38.5714 36.5306C38.0952 36.5646 37.483 36.5306 37.0068 36.5306L37.483 38.6054C39.0136 38.6054 40.034 38.6054 41.1905 37.6871C41.3945 37.517 41.4966 37.415 41.6326 37.2109C41.7347 37.0748 41.8027 36.9728 41.8707 36.8367C42.0408 36.5646 42.1769 36.2585 42.2789 35.9864L42.8571 34.0816C43.2993 32.8231 43.6735 31.5986 44.0816 30.3401C44.1497 30.136 45.2721 26.7687 45.2721 26.5986H42.449L40.9864 31.8367C40.9184 32.0068 40.7823 32.449 40.7823 32.619L40.136 31.1224C39.932 30.6122 39.7279 30.136 39.5238 29.6258L38.6394 27.3469C38.5714 27.2109 38.5374 27.0748 38.5034 26.9728C38.4354 26.8367 38.3673 26.7007 38.3673 26.5986H35.6803C35.7483 26.8027 36.0204 27.483 36.1224 27.7551C36.2925 28.1292 36.4286 28.5034 36.5986 28.9116L39.3537 35.8163ZM46.1905 29.2177V35.9184C46.1905 36.8367 46.7007 37.619 47.415 38.0612C48.7415 38.9116 51.4966 38.9116 52.9252 38.0612C53.2313 37.8571 53.5714 37.551 53.7755 37.2109C54.2857 36.2925 54.1496 35.4082 54.1496 34.2517H51.6326C51.6326 35.3401 51.8707 36.7007 50.4762 36.7007C49.6258 36.7007 48.8435 36.6667 48.8435 35.4762V29.6599C48.8435 28.7075 49.3537 28.4014 50.3401 28.4014C51.8027 28.4014 51.6326 29.5238 51.6326 30.4422H54.1496C54.1496 29.0816 54.2857 27.9932 52.9252 27.1088C52.3469 26.7007 51.7007 26.5986 51.0204 26.4966C50.6803 26.4626 49.7279 26.4286 49.3877 26.4966C48.3673 26.6326 47.415 26.8707 46.7687 27.6531C46.4626 27.9932 46.1905 28.6394 46.1905 29.2177ZM25.8503 38.5714H28.2993L28.7415 36.5986C28.7415 36.4966 28.7415 36.3945 28.8775 36.3945H32.0748L32.2789 37.449C32.3469 37.8231 32.449 38.1973 32.517 38.5714H35.2381L34.8639 36.9048C34.8299 36.7347 34.7619 36.4626 34.7279 36.3265H35.5102L35.034 34.2857H34.2857L32.7211 27.585C32.6871 27.415 32.6531 27.2449 32.619 27.0748C32.585 26.9728 32.517 26.7347 32.517 26.5986H28.6735C28.5374 26.5986 28.5374 26.7687 28.5034 26.9048C28.2653 28.1633 27.8231 29.6939 27.551 31.0204C27.449 31.4966 27.3129 32.0068 27.2109 32.517L26.0204 37.7891C25.9864 37.8911 25.9524 38.0272 25.9184 38.1633C25.9184 38.2993 25.8503 38.4354 25.8503 38.5714Z" fill="#EF7D00"/>
<path fill-rule="evenodd" clip-rule="evenodd" d="M35.6462 12.7551V24.6259H38.3673V22.483H41.3605V24.6259H43.9796C44.0476 24.6259 44.0816 24.5918 44.0816 24.5238V12.7551C44.0816 12.6531 44.0476 12.6531 43.9796 12.6531H41.3605V20.4422H38.3673V12.7551C38.3673 12.6531 38.3333 12.6531 38.2313 12.6531H35.7483C35.6803 12.6531 35.6462 12.6531 35.6462 12.7551ZM25.6122 24.5918H28.2653V20.9524C28.2653 20.8844 28.5714 20.5102 28.6394 20.4422C28.7415 20.3061 29.0136 19.966 29.0476 19.8639C29.1837 19.966 29.1496 20 29.2177 20.1361L30.034 21.6327C30.2381 22.0408 31.5986 24.4218 31.6326 24.5918H34.4218C34.3877 24.4558 34.0816 23.9116 33.9796 23.7415C33.3673 22.7211 32.7211 21.4966 32.1428 20.4762L30.7143 17.9932C31.3265 17.0748 31.9388 16.2245 32.551 15.3401L33.4354 13.9796C33.6054 13.7415 33.7415 13.5714 33.9115 13.3333C34.0476 13.0952 34.2177 12.8571 34.3537 12.6531H31.6326C31.5986 12.7551 31.3605 13.0952 31.2585 13.2653C31.0884 13.4694 30.9524 13.6395 30.8163 13.8435C30.5442 14.2857 30.2721 14.6599 29.966 15.068L28.2653 17.517V12.6531H25.6122V24.5918ZM49.8979 14.8639C49.8979 15.034 50 15.3742 50.034 15.5442C50.102 15.7823 50.17 16.0544 50.2041 16.2585C50.3061 16.7347 50.4081 17.2109 50.5442 17.6871L51.1564 20.4762H48.6054C49.0136 18.7755 49.3877 16.9048 49.7959 15.2041C49.8299 15.1361 49.8299 15.1361 49.8299 15.034L49.8979 14.8639ZM45.3401 24.6259H47.7891C47.9592 23.9116 48.0952 23.1973 48.2653 22.517H51.5646C51.5646 22.7211 51.9728 24.5578 52.0068 24.6259H54.7279L54.2177 22.517H55L54.5578 20.4762H53.7755L53.0952 17.517C53.0272 17.2109 52.9592 16.8708 52.8571 16.5306L52.0408 12.8231C52.0068 12.7211 52.0408 12.6531 51.9047 12.6531H48.1632C48.0272 12.6531 48.0272 12.8231 47.9932 12.9252L47.3809 15.5782C47.1768 16.5986 46.9388 17.551 46.7007 18.5714L45.5102 23.8435C45.4422 24.0136 45.3401 24.4218 45.3401 24.6259ZM19.932 22.7891C19.3537 22.7891 18.7075 22.7551 18.4694 22.1088C18.4354 21.9388 18.4013 21.7687 18.4013 21.5646V15.7143C18.4013 15.2381 18.5034 14.966 18.7755 14.7619C19.2517 14.3537 20.4081 14.3878 20.8503 14.7959C21.1224 15.034 21.1905 15.4082 21.1905 15.8844V21.4626C21.1905 22.2789 20.8163 22.7891 19.932 22.7891ZM15.7143 15.8163C15.7143 16.8027 15.6462 21.7347 15.7823 22.381C16.1564 24.1837 17.8911 24.7619 19.7619 24.7619C20.8503 24.7619 21.9388 24.5238 22.585 24.1157C23.2993 23.6395 23.8435 22.9252 23.8435 21.9388V15.3061C23.8435 14.8299 23.6735 14.3878 23.4694 14.0476C22.8571 12.9932 21.4626 12.551 20.1701 12.551C18.8775 12.551 17.7211 12.585 16.7347 13.3333C15.9184 13.9456 15.7143 14.7619 15.7143 15.8163Z" fill="white"/>
</svg>
