<svg width="75" height="85" viewBox="0 0 75 85" fill="none" xmlns="http://www.w3.org/2000/svg">
<path fill-rule="evenodd" clip-rule="evenodd" d="M0.903954 6.62964H15.6948V9.96951H43.8451V6.62964H59.1131V50.0479C58.636 50.0479 57.6817 50.0479 57.2046 50.0479C55.2961 50.0479 53.8647 50.0479 52.4334 50.5251V14.7407H15.2177L8.06082 20.9434V66.2702H40.5053V66.7473C40.5053 69.1329 40.9824 71.5185 41.9366 73.427H0.903954V6.62964V6.62964Z" stroke="#EF7F1A" stroke-width="1.80791" stroke-miterlimit="22.9256" stroke-linecap="round" stroke-linejoin="round"/>
<path fill-rule="evenodd" clip-rule="evenodd" d="M15.6948 3.28955H24.283V4.2438H34.7798V3.28955H43.8451V9.96929H15.6948V3.28955Z" stroke="#EF7F1A" stroke-width="1.80791" stroke-miterlimit="22.9256" stroke-linecap="round" stroke-linejoin="round"/>
<path d="M34.7798 0.904053H24.283V4.24392H34.7798V0.904053Z" stroke="#EF7F1A" stroke-width="1.80791" stroke-miterlimit="22.9256" stroke-linecap="round" stroke-linejoin="round"/>
<path fill-rule="evenodd" clip-rule="evenodd" d="M15.2177 14.7407H52.4334V50.525C45.7536 52.4335 40.5053 58.6361 40.5053 66.2701H8.06082V20.9433L15.2177 14.7407V14.7407Z" stroke="#EF7F1A" stroke-width="1.80791" stroke-miterlimit="22.9256" stroke-linecap="round" stroke-linejoin="round"/>
<path fill-rule="evenodd" clip-rule="evenodd" d="M15.2177 14.7407L8.06082 20.9433H15.2177V14.7407Z" stroke="#EF7F1A" stroke-width="0.903955" stroke-miterlimit="22.9256" stroke-linecap="round" stroke-linejoin="round"/>
<path d="M20.9432 27.1458H13.7863V33.8255H20.9432V27.1458Z" stroke="#EF7F1A" stroke-width="0.903955" stroke-miterlimit="22.9256" stroke-linecap="round" stroke-linejoin="round"/>
<path d="M20.9432 40.5054H13.7863V47.1851H20.9432V40.5054Z" stroke="#EF7F1A" stroke-width="0.903955" stroke-miterlimit="22.9256" stroke-linecap="round" stroke-linejoin="round"/>
<path d="M20.9432 52.9106H13.7863V59.5904H20.9432V52.9106Z" stroke="#EF7F1A" stroke-width="0.903955" stroke-miterlimit="22.9256" stroke-linecap="round" stroke-linejoin="round"/>
<path d="M25.2373 29.5315H47.185" stroke="#EF7F1A" stroke-width="0.903955" stroke-miterlimit="22.9256" stroke-linecap="round" stroke-linejoin="round"/>
<path d="M25.7144 31.917H39.0739" stroke="#EF7F1A" stroke-width="0.903955" stroke-miterlimit="22.9256" stroke-linecap="round" stroke-linejoin="round"/>
<path d="M25.2373 42.4138H47.185" stroke="#EF7F1A" stroke-width="0.903955" stroke-miterlimit="22.9256" stroke-linecap="round" stroke-linejoin="round"/>
<path d="M25.7144 44.7996H39.0739" stroke="#EF7F1A" stroke-width="0.903955" stroke-miterlimit="22.9256" stroke-linecap="round" stroke-linejoin="round"/>
<path d="M25.2373 55.2961H44.7994" stroke="#EF7F1A" stroke-width="0.903955" stroke-miterlimit="22.9256" stroke-linecap="round" stroke-linejoin="round"/>
<path d="M25.7144 57.6819H39.0739" stroke="#EF7F1A" stroke-width="0.903955" stroke-miterlimit="22.9256" stroke-linecap="round" stroke-linejoin="round"/>
<path d="M15.2177 30.4856L17.1262 32.3941L19.9889 28.5771" stroke="#EF7F1A" stroke-width="0.903955" stroke-miterlimit="22.9256" stroke-linecap="round" stroke-linejoin="round"/>
<path d="M15.2177 43.3681L17.1262 45.7538L19.9889 41.9368" stroke="#EF7F1A" stroke-width="0.903955" stroke-miterlimit="22.9256" stroke-linecap="round" stroke-linejoin="round"/>
<path d="M15.2177 56.2505L17.1262 58.159L19.9889 54.342" stroke="#EF7F1A" stroke-width="0.903955" stroke-miterlimit="22.9256" stroke-linecap="round" stroke-linejoin="round"/>
<path d="M57.2046 83.4465C66.4274 83.4465 73.904 75.97 73.904 66.7472C73.904 57.5244 66.4274 50.0479 57.2046 50.0479C47.9818 50.0479 40.5053 57.5244 40.5053 66.7472C40.5053 75.97 47.9818 83.4465 57.2046 83.4465Z" stroke="#EF7F1A" stroke-width="1.80791" stroke-miterlimit="22.9256"/>
<path d="M66.7471 64.3616H61.4987V74.8583H66.7471V64.3616Z" stroke="#EF7F1A" stroke-width="0.903955" stroke-miterlimit="22.9256"/>
<path d="M61.4987 65.3159C60.5445 64.3616 59.1131 63.4074 58.636 62.4531C57.6817 61.976 57.2046 61.0217 57.2046 60.5446C56.7275 60.0675 56.7275 59.1132 56.7275 58.6361C56.2504 57.6819 56.2504 57.2047 56.2504 56.7276C56.2504 56.7276 56.2504 56.2505 55.7732 56.2505C55.7732 56.2505 55.2961 56.2505 54.819 56.2505C54.3419 56.2505 54.3419 56.2505 54.3419 56.7276C53.8647 57.2047 53.8647 57.6819 53.8647 58.6361C53.3876 59.1132 53.3876 60.0675 53.8647 61.0217C53.8647 61.976 53.8647 62.4531 54.3419 63.4074C54.3419 63.8845 54.819 63.8845 54.819 63.8845C54.819 64.3616 54.3419 64.3616 53.3876 64.3616C52.4334 64.3616 50.0477 64.3616 49.0935 64.3616C48.1392 64.3616 47.6621 64.3616 47.6621 64.3616C47.6621 64.8387 47.185 65.3159 47.185 65.3159C47.185 65.793 47.185 66.2701 47.185 66.2701C47.6621 66.7472 47.6621 67.2243 48.1392 67.2243C48.1392 67.2243 48.1392 67.2243 48.1392 67.7015C47.6621 67.7015 47.6621 67.7015 47.6621 68.1786V68.6557C48.1392 69.1328 48.1392 69.61 48.1392 69.61C48.6164 69.61 48.6164 69.61 48.6164 70.0871C48.6164 70.5642 48.1392 70.5642 48.1392 71.0413C48.1392 71.5185 48.6164 71.5185 48.6164 71.9956C49.0935 72.4727 49.5706 72.4727 49.5706 72.4727V72.9498C49.5706 72.9498 49.5706 72.9498 49.5706 73.427C49.5706 73.427 49.5706 73.9041 50.0477 74.3812C50.0477 74.3812 50.5249 74.8583 51.9562 74.8583C53.3876 74.8583 55.7732 74.8583 57.6817 74.3812C59.5902 74.3812 60.5445 73.9041 61.4987 73.427" stroke="#EF7F1A" stroke-width="0.903955" stroke-miterlimit="22.9256"/>
</svg>
