<svg width="95" height="81" viewBox="0 0 95 81" fill="none" xmlns="http://www.w3.org/2000/svg">
<path d="M23.6957 0H90.2174C90.6522 0 91.087 0.434783 91.087 0.869565V72.1739C91.087 72.6087 90.6522 73.0435 90.2174 73.0435H23.6957C23.2609 73.0435 22.8261 72.6087 22.8261 72.1739V60.8696H24.5652V70.8696H89.3478V2.17391H24.5652V39.1304H22.8261V0.869565C22.8261 0.434783 23.2609 0 23.6957 0V0Z" fill="#EF7F1A"/>
<path fill-rule="evenodd" clip-rule="evenodd" d="M27.6087 5.21729H86.3044V67.826H27.6087V60.8695H30.6522V64.7825H52.3913V8.26076H30.6522V39.1303H27.6087V5.21729Z" stroke="#EF7F1A" stroke-width="0.869565" stroke-miterlimit="22.9256" stroke-linecap="round" stroke-linejoin="round"/>
<path fill-rule="evenodd" clip-rule="evenodd" d="M30.6522 8.26099H52.3913V64.7827H30.6522V60.8697H44.1305C46.3044 60.8697 48.4783 58.6958 48.4783 56.0871V43.4784C48.4783 41.3045 46.3044 39.1306 44.1305 39.1306H30.6522V8.26099V8.26099Z" stroke="#EF7F1A" stroke-width="0.869565" stroke-miterlimit="22.9256" stroke-linecap="round" stroke-linejoin="round"/>
<path fill-rule="evenodd" clip-rule="evenodd" d="M55 6.52173H85V66.5217H55V6.52173V6.52173ZM57.6087 9.56521H81.9566V63.4783H57.6087V36.0869H56.7392C56.3044 36.0869 55.8696 35.6522 55.8696 35.2174C55.8696 34.7826 56.3044 34.3478 56.7392 34.3478H57.6087V9.56521V9.56521Z" stroke="#EF7F1A" stroke-width="0.869565" stroke-miterlimit="22.9256" stroke-linecap="round" stroke-linejoin="round"/>
<path d="M93.2609 72.1738H19.3478V79.1304H93.2609V72.1738Z" stroke="#EF7F1A" stroke-width="2.17391" stroke-miterlimit="22.9256" stroke-linecap="round" stroke-linejoin="round"/>
<path d="M60.6522 34.3479H55.8696C55.3893 34.3479 55 34.7372 55 35.2175V35.6522C55 36.1325 55.3893 36.5218 55.8696 36.5218H60.6522C61.1325 36.5218 61.5218 36.1325 61.5218 35.6522V35.2175C61.5218 34.7372 61.1325 34.3479 60.6522 34.3479Z" stroke="#EF7F1A" stroke-width="0.869565" stroke-miterlimit="22.9256" stroke-linecap="round" stroke-linejoin="round"/>
<path fill-rule="evenodd" clip-rule="evenodd" d="M11.9565 39.1304H44.1305C46.3044 39.1304 48.4783 41.3043 48.4783 43.4782V56.0869C48.4783 58.6956 46.3044 60.8695 44.1305 60.8695H11.9565C10.2174 60.8695 8.47828 59.1304 8.0435 57.3912C4.13045 56.9565 1.08698 53.913 1.08698 49.9999C1.08698 46.5217 4.13045 43.0434 8.0435 42.6086C8.47828 40.8695 10.2174 39.1304 11.9565 39.1304V39.1304Z" stroke="#EF7F1A" stroke-width="2.17391" stroke-miterlimit="22.9256"/>
<path d="M8.04351 52.6087C9.48425 52.6087 10.6522 51.4408 10.6522 50.0001C10.6522 48.5593 9.48425 47.3914 8.04351 47.3914C6.60277 47.3914 5.43481 48.5593 5.43481 50.0001C5.43481 51.4408 6.60277 52.6087 8.04351 52.6087Z" stroke="#EF7F1A" stroke-width="0.869565" stroke-miterlimit="22.9256"/>
<path d="M35.8696 48.6956H31.9565V56.5216H35.8696V48.6956Z" stroke="#EF7F1A" stroke-width="0.869565" stroke-miterlimit="22.9256"/>
<path d="M31.9565 49.5652C31.087 49.1304 29.7826 48.2608 29.3478 47.8261C28.9131 46.9565 28.4783 46.5217 28.4783 46.0869C28.4783 45.6521 28.0435 45.2174 28.0435 44.7826C28.0435 44.3478 28.0435 43.913 28.0435 43.4782C27.6087 43.0435 27.6087 43.0435 27.6087 43.0435C27.1739 43.0435 27.1739 43.0435 26.7391 43.0435C26.7391 43.0435 26.3044 43.0435 26.3044 43.4782C25.8696 43.4782 25.8696 43.913 25.8696 44.7826C25.8696 45.2174 25.8696 46.0869 25.8696 46.5217C25.8696 46.9565 25.8696 47.8261 26.3044 48.2608C26.3044 48.6956 26.7391 48.6956 26.7391 48.6956C26.7391 48.6956 26.7391 48.6956 25.8696 48.6956C25 48.6956 23.2609 48.6956 22.3913 49.1304C21.5218 49.1304 21.5218 49.1304 21.5218 49.1304C21.5218 49.1304 21.087 49.5652 21.087 50V50.4348C21.087 50.8695 21.5218 50.8695 21.5218 51.3043V51.7391V52.1739C21.5218 52.6087 21.9565 52.6087 21.9565 53.0435H22.3913C22.3913 53.0435 22.3913 53.0435 21.9565 53.4782C21.9565 53.4782 21.9565 53.4782 21.9565 53.913C21.9565 54.3478 21.9565 54.3478 22.3913 54.7826L22.8261 55.2174V55.6522C22.8261 56.0869 22.8261 56.0869 23.2609 56.5217C23.2609 56.5217 23.6957 56.5217 24.5652 56.9565C25.8696 56.9565 27.6087 56.9565 28.9131 56.5217C30.2174 56.5217 31.087 56.0869 31.9565 55.6522" stroke="#EF7F1A" stroke-width="0.869565" stroke-miterlimit="22.9256"/>
<path d="M8.91307 52.1739C8.91307 51.7391 8.91307 50.8695 8.47829 50.4348C8.04351 50 6.73916 50 5.43481 50.8695C3.69568 51.7391 2.39134 53.913 2.39134 55.6522C1.95655 57.8261 3.2609 60.4348 5.00003 62.1739C7.17394 63.4782 10.2174 64.7826 12.3913 65.6522C15 66.5217 16.7392 67.3913 17.6087 68.2608C18.9131 69.5652 18.9131 70.8695 19.3479 72.1739" stroke="#EF7F1A" stroke-width="0.869565" stroke-miterlimit="22.9256"/>
<path d="M11.9565 60.8696C13.6957 62.174 15 63.9131 15.8696 65.2175C17.1739 66.5218 18.4783 67.3914 18.9131 68.2609C19.3478 69.5653 19.3478 70.8696 19.3478 72.174" stroke="#EF7F1A" stroke-width="0.869565" stroke-miterlimit="22.9256"/>
</svg>
