<svg width="24" height="24" viewBox="0 0 24 24" fill="none" xmlns="http://www.w3.org/2000/svg">
<path d="M18.41 22H18.78C19.09 21.99 19.38 21.83 19.56 21.57L21.83 18.3C21.98 18.08 22.04 17.81 21.99 17.54C21.9655 17.4084 21.9148 17.283 21.8409 17.1714C21.7671 17.0597 21.6715 16.964 21.56 16.89L16.65 13.62C16.24 13.35 15.69 13.41 15.36 13.77L13.48 15.8C12.72 15.35 11.45 14.54 10.45 13.54C9.44999 12.54 8.63999 11.27 8.18999 10.52L10.22 8.63998C10.58 8.30998 10.65 7.75998 10.37 7.34998L7.09999 2.43998C6.94999 2.21998 6.71999 2.05998 6.45999 2.00998C6.18999 1.95998 5.91999 2.00998 5.69999 2.16998L2.42999 4.42998C2.16999 4.60998 2.00999 4.89998 1.99999 5.20998C1.96999 5.91998 1.83999 12.25 6.78999 17.19C11.25 21.65 16.83 21.99 18.41 21.99V22ZM15.5 1.99998C13.76 1.99998 12.13 2.67998 10.9 3.89998L12.31 5.30998C13.16 4.45998 14.29 3.98998 15.49 3.98998C16.69 3.98998 17.82 4.45998 18.67 5.30998C19.52 6.15998 19.99 7.28998 19.99 8.48998C19.99 9.68998 19.52 10.82 18.67 11.67L20.08 13.08C21.31 11.85 21.98 10.22 21.98 8.47998C21.98 6.73998 21.3 5.10998 20.08 3.87998C18.86 2.64998 17.22 1.97998 15.48 1.97998L15.5 1.99998Z" fill="#EF7F1A"/>
<path d="M17.71 10.71C18.0001 10.4208 18.2302 10.0771 18.3873 9.69872C18.5443 9.32035 18.6251 8.91471 18.6251 8.50504C18.6251 8.09537 18.5443 7.68973 18.3873 7.31136C18.2302 6.93298 18.0001 6.58931 17.71 6.30004C16.53 5.12004 14.47 5.12004 13.3 6.30004L14.71 7.71004C15.13 7.29004 15.87 7.29004 16.3 7.71004C16.74 8.15004 16.74 8.86004 16.3 9.30004L17.71 10.71Z" fill="#EF7F1A"/>
</svg>
