<svg width="63" height="71" viewBox="0 0 63 71" fill="none" xmlns="http://www.w3.org/2000/svg">
<path fill-rule="evenodd" clip-rule="evenodd" d="M1.48804 11.6157H61.1199V22.6476V69.4881H40.5064V69.3072H1.48804V11.6157Z" stroke="#9494A8" stroke-width="2.97619" stroke-miterlimit="22.9256" stroke-linecap="round" stroke-linejoin="round"/>
<path d="M16.0279 13.7859H4.24878V43.988H16.0279V13.7859Z" stroke="#9494A8" stroke-width="1.4881" stroke-miterlimit="22.9256" stroke-linecap="round" stroke-linejoin="round"/>
<path d="M30.1999 13.7859H17.5005V43.988H30.1999V13.7859Z" stroke="#9494A8" stroke-width="1.4881" stroke-miterlimit="22.9256" stroke-linecap="round" stroke-linejoin="round"/>
<path d="M44.9235 13.7859H32.2241V43.988H44.9235V13.7859Z" stroke="#9494A8" stroke-width="1.4881" stroke-miterlimit="22.9256" stroke-linecap="round" stroke-linejoin="round"/>
<path d="M58.5433 13.7859H46.7642V43.988H58.5433V13.7859Z" stroke="#9494A8" stroke-width="1.4881" stroke-miterlimit="22.9256" stroke-linecap="round" stroke-linejoin="round"/>
<path d="M16.0279 45.6157H4.24878V66.5944H16.0279V45.6157Z" stroke="#9494A8" stroke-width="1.4881" stroke-miterlimit="22.9256" stroke-linecap="round" stroke-linejoin="round"/>
<path d="M30.1999 45.6157H17.5005V66.5944H30.1999V45.6157Z" stroke="#9494A8" stroke-width="1.4881" stroke-miterlimit="22.9256" stroke-linecap="round" stroke-linejoin="round"/>
<path d="M44.9235 45.6157H32.2241V66.5944H44.9235V45.6157Z" stroke="#9494A8" stroke-width="1.4881" stroke-miterlimit="22.9256" stroke-linecap="round" stroke-linejoin="round"/>
<path d="M58.5433 45.6157H46.7642V66.5944H58.5433V45.6157Z" stroke="#9494A8" stroke-width="1.4881" stroke-miterlimit="22.9256" stroke-linecap="round" stroke-linejoin="round"/>
<path fill-rule="evenodd" clip-rule="evenodd" d="M7.19341 1.48804H56.1505C57.0707 3.29655 61.4879 11.4348 61.4879 11.6157L2.04004 11.4348L7.19341 1.48804V1.48804Z" stroke="#9494A8" stroke-width="2.97619" stroke-miterlimit="22.9256" stroke-linecap="round" stroke-linejoin="round"/>
<path d="M11.6109 4.20068L9.21826 8.36026" stroke="#9494A8" stroke-width="1.4881" stroke-miterlimit="22.9256" stroke-linecap="round" stroke-linejoin="round"/>
<path d="M17.8685 4.38184L16.9482 8.36056" stroke="#9494A8" stroke-width="1.4881" stroke-miterlimit="22.9256" stroke-linecap="round" stroke-linejoin="round"/>
<path d="M24.6781 4.38184L24.126 8.36056" stroke="#9494A8" stroke-width="1.4881" stroke-miterlimit="22.9256" stroke-linecap="round" stroke-linejoin="round"/>
<path d="M31.6719 4.20068V8.36026" stroke="#9494A8" stroke-width="1.4881" stroke-miterlimit="22.9256" stroke-linecap="round" stroke-linejoin="round"/>
<path d="M45.4756 4.38153L46.3958 8.36026M51.7332 4.20068L54.1259 8.36026L51.7332 4.20068ZM31.6719 4.20068V8.36026V4.20068ZM38.6657 4.38153L39.0338 8.36026L38.6657 4.38153Z" stroke="#9494A8" stroke-width="1.4881" stroke-miterlimit="22.9256" stroke-linecap="round" stroke-linejoin="round"/>
</svg>
