<svg width="82" height="71" viewBox="0 0 82 71" fill="none" xmlns="http://www.w3.org/2000/svg">
<path d="M16.1007 14.5294H4.5293V44.3866H16.1007V14.5294Z" stroke="#9494A8" stroke-width="1.3865" stroke-miterlimit="22.9256" stroke-linecap="round" stroke-linejoin="round"/>
<path d="M30.5295 14.5294H17.8152V44.3866H30.5295V14.5294Z" stroke="#9494A8" stroke-width="1.3865" stroke-miterlimit="22.9256" stroke-linecap="round" stroke-linejoin="round"/>
<path d="M44.9579 14.5294H32.2437V44.3866H44.9579V14.5294Z" stroke="#9494A8" stroke-width="1.3865" stroke-miterlimit="22.9256" stroke-linecap="round" stroke-linejoin="round"/>
<path d="M58.3866 14.5294H46.8152V44.3866H58.3866V14.5294Z" stroke="#9494A8" stroke-width="1.3865" stroke-miterlimit="22.9256" stroke-linecap="round" stroke-linejoin="round"/>
<path fill-rule="evenodd" clip-rule="evenodd" d="M1.38647 11.958H61.3865V18.6723H61.2436V47.5294H40.5293V47.3866H1.38647V11.958Z" stroke="#9494A8" stroke-width="2.77301" stroke-miterlimit="22.9256" stroke-linecap="round" stroke-linejoin="round"/>
<path d="M7.67236 53.8149V64.6721" stroke="#9494A8" stroke-width="1.3865" stroke-miterlimit="22.9256" stroke-linecap="round" stroke-linejoin="round"/>
<path d="M14.3865 53.8149V64.6721" stroke="#9494A8" stroke-width="1.3865" stroke-miterlimit="22.9256" stroke-linecap="round" stroke-linejoin="round"/>
<path d="M20.5293 53.8149V64.6721" stroke="#9494A8" stroke-width="1.3865" stroke-miterlimit="22.9256" stroke-linecap="round" stroke-linejoin="round"/>
<path d="M27.1008 53.8149V64.6721" stroke="#9494A8" stroke-width="1.3865" stroke-miterlimit="22.9256" stroke-linecap="round" stroke-linejoin="round"/>
<path d="M33.3865 53.8149V64.6721" stroke="#9494A8" stroke-width="1.3865" stroke-miterlimit="22.9256" stroke-linecap="round" stroke-linejoin="round"/>
<path d="M39.9578 53.8149V64.6721" stroke="#9494A8" stroke-width="1.3865" stroke-miterlimit="22.9256" stroke-linecap="round" stroke-linejoin="round"/>
<path d="M46.2437 53.8149V64.6721" stroke="#9494A8" stroke-width="1.3865" stroke-miterlimit="22.9256" stroke-linecap="round" stroke-linejoin="round"/>
<path d="M52.9578 53.8149V64.6721" stroke="#9494A8" stroke-width="1.3865" stroke-miterlimit="22.9256" stroke-linecap="round" stroke-linejoin="round"/>
<path fill-rule="evenodd" clip-rule="evenodd" d="M6.67219 1.38647H55.9579L61.3865 12.1008V14.3865H61.2436V69.3865H40.5293V69.2436H1.38647V11.6722L6.67219 1.38647Z" stroke="#9494A8" stroke-width="2.77301" stroke-miterlimit="22.9256" stroke-linecap="round" stroke-linejoin="round"/>
<path fill-rule="evenodd" clip-rule="evenodd" d="M8.95787 3.24377H18.2436L16.6722 9.8152H5.5293L8.95787 3.24377V3.24377ZM19.6722 3.24377H30.5293V9.8152H18.2436L19.6722 3.24377Z" stroke="#9494A8" stroke-width="1.3865" stroke-miterlimit="22.9256" stroke-linecap="round" stroke-linejoin="round"/>
<path fill-rule="evenodd" clip-rule="evenodd" d="M53.8149 3.24377H44.3863L45.9577 9.8152H57.2434L53.8149 3.24377V3.24377ZM42.9577 3.24377H32.1006V9.8152H44.3863L42.9577 3.24377Z" stroke="#9494A8" stroke-width="1.3865" stroke-miterlimit="22.9256" stroke-linecap="round" stroke-linejoin="round"/>
</svg>
