<svg width="70" height="76" viewBox="0 0 70 76" fill="none" xmlns="http://www.w3.org/2000/svg">
<path fill-rule="evenodd" clip-rule="evenodd" d="M0.915031 13.268L40.2614 0.915039V75.0327H0.915031V13.268Z" stroke="#EF7F1A" stroke-width="1.83007" stroke-miterlimit="22.9256" stroke-linecap="round" stroke-linejoin="round"/>
<path fill-rule="evenodd" clip-rule="evenodd" d="M39.8039 21.5032H69.085V75.0326H39.8039V21.5032Z" stroke="#EF7F1A" stroke-width="1.83007" stroke-miterlimit="22.9256" stroke-linecap="round" stroke-linejoin="round"/>
<path d="M64.9673 8.69287H40.2614V21.5033H64.9673V8.69287Z" stroke="#EF7F1A" stroke-width="1.83007" stroke-miterlimit="22.9256" stroke-linecap="round" stroke-linejoin="round"/>
<path d="M50.7843 1.83008V8.69282" stroke="#EF7F1A" stroke-width="1.83007" stroke-miterlimit="22.9256" stroke-linecap="round" stroke-linejoin="round"/>
<path d="M61.3072 11.438H43.0065V17.8432H61.3072V11.438Z" stroke="#EF7F1A" stroke-width="0.915033" stroke-miterlimit="22.9256" stroke-linecap="round" stroke-linejoin="round"/>
<path d="M65.8823 24.7058H39.8039V29.7385H65.8823V24.7058Z" stroke="#EF7F1A" stroke-width="0.915033" stroke-miterlimit="22.9256" stroke-linecap="round" stroke-linejoin="round"/>
<path d="M65.8823 32.9412H39.8039V37.9738H65.8823V32.9412Z" stroke="#EF7F1A" stroke-width="0.915033" stroke-miterlimit="22.9256" stroke-linecap="round" stroke-linejoin="round"/>
<path d="M65.8823 41.1765H39.8039V46.2092H65.8823V41.1765Z" stroke="#EF7F1A" stroke-width="0.915033" stroke-miterlimit="22.9256" stroke-linecap="round" stroke-linejoin="round"/>
<path d="M65.8823 49.4117H39.8039V54.4444H65.8823V49.4117Z" stroke="#EF7F1A" stroke-width="0.915033" stroke-miterlimit="22.9256" stroke-linecap="round" stroke-linejoin="round"/>
<path d="M65.8823 57.6471H39.8039V62.6798H65.8823V57.6471Z" stroke="#EF7F1A" stroke-width="0.915033" stroke-miterlimit="22.9256" stroke-linecap="round" stroke-linejoin="round"/>
<path d="M65.8823 65.8823H39.8039V70.915H65.8823V65.8823Z" stroke="#EF7F1A" stroke-width="0.915033" stroke-miterlimit="22.9256" stroke-linecap="round" stroke-linejoin="round"/>
<path d="M10.0654 10.5229V75.0328" stroke="#EF7F1A" stroke-width="0.915033" stroke-miterlimit="22.9256" stroke-linecap="round" stroke-linejoin="round"/>
<path d="M19.6732 7.32031V75.0327" stroke="#EF7F1A" stroke-width="0.915033" stroke-miterlimit="22.9256" stroke-linecap="round" stroke-linejoin="round"/>
<path d="M29.7386 4.11768V75.0327" stroke="#EF7F1A" stroke-width="0.915033" stroke-miterlimit="22.9256" stroke-linecap="round" stroke-linejoin="round"/>
<path d="M0.915031 20.5881H40.2614" stroke="#EF7F1A" stroke-width="0.915033" stroke-miterlimit="22.9256" stroke-linecap="round" stroke-linejoin="round"/>
<path d="M0.915031 39.3464H40.2614" stroke="#EF7F1A" stroke-width="0.915033" stroke-miterlimit="22.9256" stroke-linecap="round" stroke-linejoin="round"/>
<path d="M0.915031 56.7321H40.2614" stroke="#EF7F1A" stroke-width="0.915033" stroke-miterlimit="22.9256" stroke-linecap="round" stroke-linejoin="round"/>
</svg>
