<svg width="83" height="71" viewBox="0 0 83 71" fill="none" xmlns="http://www.w3.org/2000/svg">
<path fill-rule="evenodd" clip-rule="evenodd" d="M1.13477 11.4562H61.0831V18.3371C60.6697 18.3371 60.4629 18.1347 60.0495 18.1347C57.1554 18.1347 54.8815 20.5633 54.8815 23.3967V47.6824H1.13477V11.4562V11.4562Z" stroke="#8C8C94" stroke-width="2.26957" stroke-miterlimit="22.9256" stroke-linecap="round" stroke-linejoin="round"/>
<path fill-rule="evenodd" clip-rule="evenodd" d="M1.13477 47.6824H54.8815V52.1348C53.0211 53.5514 51.7808 55.7776 51.7808 58.2062C51.7808 62.4562 55.5017 66.099 59.8428 66.099C60.2562 66.099 60.6697 65.8967 61.0831 65.8967V69.1348H1.13477V47.6824V47.6824Z" stroke="#8C8C94" stroke-width="2.26957" stroke-miterlimit="22.9256" stroke-linecap="round" stroke-linejoin="round"/>
<path d="M15.605 13.48H4.02881V45.6586H15.605V13.48Z" stroke="#8C8C94" stroke-width="1.0087" stroke-miterlimit="22.9256" stroke-linecap="round" stroke-linejoin="round"/>
<path d="M30.2821 13.48H17.4656V45.6586H30.2821V13.48Z" stroke="#8C8C94" stroke-width="1.0087" stroke-miterlimit="22.9256" stroke-linecap="round" stroke-linejoin="round"/>
<path d="M44.7523 13.48H31.9358V45.6586H44.7523V13.48Z" stroke="#8C8C94" stroke-width="1.0087" stroke-miterlimit="22.9256" stroke-linecap="round" stroke-linejoin="round"/>
<path fill-rule="evenodd" clip-rule="evenodd" d="M46.6128 13.48H59.4293V18.3371C56.742 18.5395 54.8815 20.7657 54.8815 23.3966V45.6586H46.6128V13.48V13.48Z" stroke="#8C8C94" stroke-width="1.0087" stroke-miterlimit="22.9256" stroke-linecap="round" stroke-linejoin="round"/>
<path d="M8.36987 52.7419V63.8729" stroke="#8C8C94" stroke-width="1.0087" stroke-miterlimit="22.9256" stroke-linecap="round" stroke-linejoin="round"/>
<path d="M15.1917 52.7419V63.8729" stroke="#8C8C94" stroke-width="1.0087" stroke-miterlimit="22.9256" stroke-linecap="round" stroke-linejoin="round"/>
<path d="M21.5999 52.7419V63.8729" stroke="#8C8C94" stroke-width="1.0087" stroke-miterlimit="22.9256" stroke-linecap="round" stroke-linejoin="round"/>
<path d="M28.4216 52.7419V63.8729" stroke="#8C8C94" stroke-width="1.0087" stroke-miterlimit="22.9256" stroke-linecap="round" stroke-linejoin="round"/>
<path d="M34.8298 52.7419V63.8729" stroke="#8C8C94" stroke-width="1.0087" stroke-miterlimit="22.9256" stroke-linecap="round" stroke-linejoin="round"/>
<path d="M41.6516 52.7419V63.8729" stroke="#8C8C94" stroke-width="1.0087" stroke-miterlimit="22.9256" stroke-linecap="round" stroke-linejoin="round"/>
<path d="M48.0598 52.7419V63.8729" stroke="#8C8C94" stroke-width="1.0087" stroke-miterlimit="22.9256" stroke-linecap="round" stroke-linejoin="round"/>
<path fill-rule="evenodd" clip-rule="evenodd" d="M65.2175 52.3371C66.8712 53.7538 67.9048 55.7776 67.9048 58.2062C67.9048 62.4562 64.3906 66.099 59.8428 66.099C55.5017 66.099 51.7808 62.4562 51.7808 58.2062C51.7808 55.7776 53.0211 53.5514 54.8815 52.1348V23.3967C54.8815 20.5633 57.1554 18.1348 60.0495 18.1348C62.9436 18.1348 65.2175 20.5633 65.2175 23.3967V52.3371V52.3371Z" stroke="#8C8C94" stroke-width="2.26957" stroke-miterlimit="22.9256" stroke-linecap="round" stroke-linejoin="round"/>
<path fill-rule="evenodd" clip-rule="evenodd" d="M60.0494 23.1942C61.083 23.1942 61.9099 24.2061 61.9099 25.218V55.1704C62.9435 55.7775 63.7703 56.9918 63.7703 58.4085C63.7703 60.4323 62.1166 62.2537 59.8427 62.2537C57.7755 62.2537 55.915 60.4323 55.915 58.4085C55.915 56.7894 56.7419 55.5752 58.1889 54.968V25.218C58.1889 24.2061 59.0158 23.1942 60.0494 23.1942V23.1942Z" stroke="#8C8C94" stroke-width="2.26957" stroke-miterlimit="22.9256" stroke-linecap="round" stroke-linejoin="round"/>
<path fill-rule="evenodd" clip-rule="evenodd" d="M61.9099 26.4325V55.1706C62.9435 55.7777 63.7703 56.992 63.7703 58.4087C63.7703 60.4325 62.1166 62.2539 59.8427 62.2539C57.7755 62.2539 55.915 60.4325 55.915 58.4087C55.915 56.7896 56.7419 55.5754 58.1889 54.9682V26.4325H61.9099V26.4325Z" fill="#9494A8" stroke="#8C8C94" stroke-width="2.26957" stroke-miterlimit="22.9256" stroke-linecap="round" stroke-linejoin="round"/>
<path fill-rule="evenodd" clip-rule="evenodd" d="M74.7266 36.349V40.1942V36.349ZM74.7266 47.0752V51.1228V47.0752Z" stroke="#8C8C94" stroke-width="2.26957" stroke-miterlimit="22.9256" stroke-linecap="round" stroke-linejoin="round"/>
<path fill-rule="evenodd" clip-rule="evenodd" d="M81.1348 47.48L77.6206 45.4562L81.1348 47.48ZM71.6258 42.0158L68.1116 39.9919L71.6258 42.0158Z" stroke="#8C8C94" stroke-width="2.26957" stroke-miterlimit="22.9256" stroke-linecap="round" stroke-linejoin="round"/>
<path d="M77.6206 42.0158L81.1348 39.9919M68.1116 47.48L71.6258 45.4562L68.1116 47.48Z" stroke="#8C8C94" stroke-width="2.26957" stroke-miterlimit="22.9256" stroke-linecap="round" stroke-linejoin="round"/>
<path d="M74.7264 47.0752C76.6672 47.0752 78.2406 45.5348 78.2406 43.6347C78.2406 41.7346 76.6672 40.1942 74.7264 40.1942C72.7855 40.1942 71.2122 41.7346 71.2122 43.6347C71.2122 45.5348 72.7855 47.0752 74.7264 47.0752Z" stroke="#8C8C94" stroke-width="2.26957" stroke-miterlimit="22.9256" stroke-linecap="round" stroke-linejoin="round"/>
<path fill-rule="evenodd" clip-rule="evenodd" d="M6.50951 1.13477H55.7085C56.5354 3.15857 61.0832 11.2538 61.0832 11.4562L1.34155 11.2538L6.50951 1.13477V1.13477Z" stroke="#8C8C94" stroke-width="2.26957" stroke-miterlimit="22.9256" stroke-linecap="round" stroke-linejoin="round"/>
<path d="M11.0573 3.96802L8.57666 8.21802" stroke="#8C8C94" stroke-width="1.0087" stroke-miterlimit="22.9256" stroke-linecap="round" stroke-linejoin="round"/>
<path d="M17.2587 4.17041L16.2251 8.01565" stroke="#8C8C94" stroke-width="1.0087" stroke-miterlimit="22.9256" stroke-linecap="round" stroke-linejoin="round"/>
<path d="M24.0804 4.17041L23.667 8.01565" stroke="#8C8C94" stroke-width="1.0087" stroke-miterlimit="22.9256" stroke-linecap="round" stroke-linejoin="round"/>
<path d="M31.1089 3.96802V8.21802" stroke="#8C8C94" stroke-width="1.0087" stroke-miterlimit="22.9256" stroke-linecap="round" stroke-linejoin="round"/>
<path d="M44.959 4.1704L45.9926 8.01564M51.1606 3.96802L53.6412 8.21802L51.1606 3.96802ZM31.1089 3.96802V8.21802V3.96802ZM38.1373 4.1704L38.5507 8.01564L38.1373 4.1704Z" stroke="#8C8C94" stroke-width="1.0087" stroke-miterlimit="22.9256" stroke-linecap="round" stroke-linejoin="round"/>
</svg>
