<svg width="70" height="74" viewBox="0 0 70 74" fill="none" xmlns="http://www.w3.org/2000/svg">
<path d="M4.77273 0H66.2879C66.2879 0 66.8182 0.530303 66.8182 1.06061V66.2879C66.8182 66.8182 66.2879 66.8182 66.2879 66.8182H4.77273C4.24243 66.8182 4.24243 66.8182 4.24243 66.2879V55.6818H5.83334V65.2273H65.2273V2.12121H5.83334V55.6818H4.24243V1.06061C4.24243 0.530303 4.24243 0 4.77273 0V0Z" fill="#EF7F1A"/>
<path d="M8.48487 4.24243H62.5758L63.1061 4.77273V62.0455C63.1061 62.5758 62.5758 62.5758 62.5758 62.5758H8.48487C8.48487 62.5758 7.95457 62.5758 7.95457 62.0455V4.77273L8.48487 4.24243ZM62.0455 5.30304H9.01517V54.6212V56.2121V57.2727V61.5152H62.0455V5.30304ZM11.1364 6.89395C-22.2727 6.89395 82.197 6.89395 11.1364 6.89395V6.89395Z" fill="#EF7F1A"/>
<path fill-rule="evenodd" clip-rule="evenodd" d="M12.197 8.48486H31.8182V58.3334H12.197V54.6212V36.0606V8.48486Z" stroke="#EF7F1A" stroke-width="1.06061" stroke-miterlimit="22.9256" stroke-linecap="round" stroke-linejoin="round"/>
<path fill-rule="evenodd" clip-rule="evenodd" d="M33.4091 7.42432H59.9243V59.9243H33.4091V7.42432V7.42432ZM36.0606 9.54553H57.8031V57.2728H36.0606V33.4092H35.5303C35 33.4092 34.4697 32.8789 34.4697 32.3486C34.4697 31.8183 35 31.288 35.5303 31.288H36.0606V9.54553V9.54553Z" stroke="#EF7F1A" stroke-width="1.06061" stroke-miterlimit="22.9256" stroke-linecap="round" stroke-linejoin="round"/>
<path d="M68.9394 66.2878H1.06061V72.6515H68.9394V66.2878Z" stroke="#EF7F1A" stroke-width="2.12121" stroke-miterlimit="22.9256" stroke-linecap="round" stroke-linejoin="round"/>
<path d="M41.894 31.2878H35.5303C34.9446 31.2878 34.4697 31.644 34.4697 32.0833C34.4697 32.5226 34.9446 32.8788 35.5303 32.8788H41.894C42.4797 32.8788 42.9546 32.5226 42.9546 32.0833C42.9546 31.644 42.4797 31.2878 41.894 31.2878Z" stroke="#EF7F1A" stroke-width="1.06061" stroke-miterlimit="22.9256" stroke-linecap="round" stroke-linejoin="round"/>
</svg>
