<svg width="71" height="79" viewBox="0 0 71 79" fill="none" xmlns="http://www.w3.org/2000/svg">
<path d="M18.0719 15.4902H4.64706V49.5687H18.0719V15.4902Z" stroke="#EF7F1A" stroke-width="1.03268" stroke-miterlimit="22.9256" stroke-linecap="round" stroke-linejoin="round"/>
<path d="M34.0784 15.4902H19.6209V49.5687H34.0784V15.4902Z" stroke="#EF7F1A" stroke-width="1.03268" stroke-miterlimit="22.9256" stroke-linecap="round" stroke-linejoin="round"/>
<path d="M50.6013 15.4902H36.1438V49.5687H50.6013V15.4902Z" stroke="#EF7F1A" stroke-width="1.03268" stroke-miterlimit="22.9256" stroke-linecap="round" stroke-linejoin="round"/>
<path d="M66.0915 15.4902H52.6667V49.5687H66.0915V15.4902Z" stroke="#EF7F1A" stroke-width="1.03268" stroke-miterlimit="22.9256" stroke-linecap="round" stroke-linejoin="round"/>
<path fill-rule="evenodd" clip-rule="evenodd" d="M1.03268 12.3921H69.1895V20.1372H68.6732V53.1829H45.4379V52.6666H1.03268V12.3921Z" stroke="#EF7F1A" stroke-width="2.06536" stroke-miterlimit="22.9256" stroke-linecap="round" stroke-linejoin="round"/>
<path d="M8.26144 59.8955V72.2877" stroke="#EF7F1A" stroke-width="1.03268" stroke-miterlimit="22.9256" stroke-linecap="round" stroke-linejoin="round"/>
<path d="M15.4902 59.8955V72.2877" stroke="#EF7F1A" stroke-width="1.03268" stroke-miterlimit="22.9256" stroke-linecap="round" stroke-linejoin="round"/>
<path d="M22.719 59.8955V72.2877" stroke="#EF7F1A" stroke-width="1.03268" stroke-miterlimit="22.9256" stroke-linecap="round" stroke-linejoin="round"/>
<path d="M29.9477 59.8955V72.2877" stroke="#EF7F1A" stroke-width="1.03268" stroke-miterlimit="22.9256" stroke-linecap="round" stroke-linejoin="round"/>
<path d="M37.1765 59.8955V72.2877" stroke="#EF7F1A" stroke-width="1.03268" stroke-miterlimit="22.9256" stroke-linecap="round" stroke-linejoin="round"/>
<path d="M44.9216 59.8955V72.2877" stroke="#EF7F1A" stroke-width="1.03268" stroke-miterlimit="22.9256" stroke-linecap="round" stroke-linejoin="round"/>
<path d="M51.634 59.8955V72.2877" stroke="#EF7F1A" stroke-width="1.03268" stroke-miterlimit="22.9256" stroke-linecap="round" stroke-linejoin="round"/>
<path d="M59.3791 59.8955V72.2877" stroke="#EF7F1A" stroke-width="1.03268" stroke-miterlimit="22.9256" stroke-linecap="round" stroke-linejoin="round"/>
<path fill-rule="evenodd" clip-rule="evenodd" d="M68.6732 12.3921L69.1895 12.9084V15.4901H68.6732V77.9673H45.4379V77.4509H1.03268V12.3921H68.6732Z" stroke="#EF7F1A" stroke-width="2.06536" stroke-miterlimit="22.9256" stroke-linecap="round" stroke-linejoin="round"/>
<path fill-rule="evenodd" clip-rule="evenodd" d="M7.22876 1.03271H62.9935C64.0261 3.09807 68.6732 12.3922 68.6732 12.3922H1.03268L7.22876 1.03271V1.03271Z" stroke="#EF7F1A" stroke-width="2.06536" stroke-miterlimit="22.9256" stroke-linecap="round" stroke-linejoin="round"/>
<path d="M11.8758 4.13086L9.29412 8.77792" stroke="#EF7F1A" stroke-width="1.03268" stroke-miterlimit="22.9256" stroke-linecap="round" stroke-linejoin="round"/>
<path d="M19.1046 4.13086L18.0719 8.77792" stroke="#EF7F1A" stroke-width="1.03268" stroke-miterlimit="22.9256" stroke-linecap="round" stroke-linejoin="round"/>
<path d="M26.8497 4.13086L26.3333 8.77792" stroke="#EF7F1A" stroke-width="1.03268" stroke-miterlimit="22.9256" stroke-linecap="round" stroke-linejoin="round"/>
<path d="M35.1111 4.13086V8.77792" stroke="#EF7F1A" stroke-width="1.03268" stroke-miterlimit="22.9256" stroke-linecap="round" stroke-linejoin="round"/>
<path d="M50.6013 4.13086L51.634 8.77792M57.8301 4.13086L60.4118 8.77792L57.8301 4.13086ZM35.1111 4.13086V8.77792V4.13086ZM42.8562 4.13086L43.3725 8.77792L42.8562 4.13086Z" stroke="#EF7F1A" stroke-width="1.03268" stroke-miterlimit="22.9256" stroke-linecap="round" stroke-linejoin="round"/>
</svg>
