<svg width="68" height="77" viewBox="0 0 68 77" fill="none" xmlns="http://www.w3.org/2000/svg">
<path d="M17.327 15.6246H4.79126V47.9699H17.327V15.6246Z" stroke="#9494A8" stroke-width="1.3865" stroke-miterlimit="22.9256" stroke-linecap="round" stroke-linejoin="round"/>
<path d="M32.9579 15.6246H19.1841V47.9699H32.9579V15.6246Z" stroke="#9494A8" stroke-width="1.3865" stroke-miterlimit="22.9256" stroke-linecap="round" stroke-linejoin="round"/>
<path d="M48.5889 15.6246H34.8151V47.9699H48.5889V15.6246Z" stroke="#9494A8" stroke-width="1.3865" stroke-miterlimit="22.9256" stroke-linecap="round" stroke-linejoin="round"/>
<path d="M63.1364 15.6246H50.6007V47.9699H63.1364V15.6246Z" stroke="#9494A8" stroke-width="1.3865" stroke-miterlimit="22.9256" stroke-linecap="round" stroke-linejoin="round"/>
<path fill-rule="evenodd" clip-rule="evenodd" d="M1.38647 12.8389H66.3865V20.1127H66.2317V51.3746H43.7912V51.2198H1.38647V12.8389Z" stroke="#9494A8" stroke-width="2.77301" stroke-miterlimit="22.9256" stroke-linecap="round" stroke-linejoin="round"/>
<path d="M8.19604 58.1841V69.946" stroke="#9494A8" stroke-width="1.3865" stroke-miterlimit="22.9256" stroke-linecap="round" stroke-linejoin="round"/>
<path d="M15.4698 58.1841V69.946" stroke="#9494A8" stroke-width="1.3865" stroke-miterlimit="22.9256" stroke-linecap="round" stroke-linejoin="round"/>
<path d="M22.1245 58.1841V69.946" stroke="#9494A8" stroke-width="1.3865" stroke-miterlimit="22.9256" stroke-linecap="round" stroke-linejoin="round"/>
<path d="M29.2437 58.1841V69.946" stroke="#9494A8" stroke-width="1.3865" stroke-miterlimit="22.9256" stroke-linecap="round" stroke-linejoin="round"/>
<path d="M36.0532 58.1841V69.946" stroke="#9494A8" stroke-width="1.3865" stroke-miterlimit="22.9256" stroke-linecap="round" stroke-linejoin="round"/>
<path d="M43.1722 58.1841V69.946" stroke="#9494A8" stroke-width="1.3865" stroke-miterlimit="22.9256" stroke-linecap="round" stroke-linejoin="round"/>
<path d="M49.9817 58.1841V69.946" stroke="#9494A8" stroke-width="1.3865" stroke-miterlimit="22.9256" stroke-linecap="round" stroke-linejoin="round"/>
<path d="M57.2555 58.1841V69.946" stroke="#9494A8" stroke-width="1.3865" stroke-miterlimit="22.9256" stroke-linecap="round" stroke-linejoin="round"/>
<path fill-rule="evenodd" clip-rule="evenodd" d="M7.11266 1.38647H60.5055L66.3865 12.9936V15.4698H66.2317V75.0531H43.7912V74.8984H1.38647V12.5293L7.11266 1.38647Z" stroke="#9494A8" stroke-width="2.77301" stroke-miterlimit="22.9256" stroke-linecap="round" stroke-linejoin="round"/>
<path fill-rule="evenodd" clip-rule="evenodd" d="M9.58892 3.39844H19.6484L17.9461 10.5175H5.87463L9.58892 3.39844V3.39844ZM21.1961 3.39844H32.958V10.5175H19.6484L21.1961 3.39844Z" stroke="#9494A8" stroke-width="1.3865" stroke-miterlimit="22.9256" stroke-linecap="round" stroke-linejoin="round"/>
<path fill-rule="evenodd" clip-rule="evenodd" d="M58.184 3.39844H47.9697L49.6721 10.5175H61.8982L58.184 3.39844V3.39844ZM46.4221 3.39844H34.6602V10.5175H47.9697L46.4221 3.39844Z" stroke="#9494A8" stroke-width="1.3865" stroke-miterlimit="22.9256" stroke-linecap="round" stroke-linejoin="round"/>
</svg>
