<svg width="82" height="71" viewBox="0 0 82 71" fill="none" xmlns="http://www.w3.org/2000/svg">
<path d="M61.3672 1.36719H1.36719V69.3672H61.3672V1.36719Z" stroke="#9494A8" stroke-width="2.73438" stroke-miterlimit="22.9256" stroke-linecap="round" stroke-linejoin="round"/>
<path d="M41.1262 41.7996H1.36719V69.3671H41.1262V41.7996Z" stroke="#9494A8" stroke-width="2.73438" stroke-miterlimit="22.9256" stroke-linecap="round" stroke-linejoin="round"/>
<path d="M42.813 37.7301H1.36719V41.7996H42.813V37.7301Z" stroke="#9494A8" stroke-width="2.73438" stroke-miterlimit="22.9256" stroke-linecap="round" stroke-linejoin="round"/>
<path fill-rule="evenodd" clip-rule="evenodd" d="M1.36719 1.36719H61.3672L56.7889 10.9502H6.78887L1.36719 1.36719Z" stroke="#9494A8" stroke-width="1.36719" stroke-miterlimit="22.9256" stroke-linecap="round" stroke-linejoin="round"/>
<path d="M6.78906 10.9502V37.7301" stroke="#9494A8" stroke-width="1.36719" stroke-miterlimit="22.9256" stroke-linecap="round" stroke-linejoin="round"/>
<path d="M56.7888 10.9502V69.3672" stroke="#9494A8" stroke-width="1.36719" stroke-miterlimit="22.9256" stroke-linecap="round" stroke-linejoin="round"/>
<path d="M41.1262 44.5564H56.7889" stroke="#9494A8" stroke-width="1.36719" stroke-miterlimit="22.9256" stroke-linecap="round" stroke-linejoin="round"/>
<path d="M18.837 13.9695H8.95752V37.7301H18.837V13.9695Z" stroke="#9494A8" stroke-width="1.36719" stroke-miterlimit="22.9256" stroke-linecap="round" stroke-linejoin="round"/>
<path d="M30.8851 13.9695H21.0056V37.7301H30.8851V13.9695Z" stroke="#9494A8" stroke-width="1.36719" stroke-miterlimit="22.9256" stroke-linecap="round" stroke-linejoin="round"/>
<path d="M42.6927 13.9695H32.8132V37.7301H42.6927V13.9695Z" stroke="#9494A8" stroke-width="1.36719" stroke-miterlimit="22.9256" stroke-linecap="round" stroke-linejoin="round"/>
<path d="M54.4996 13.9695H44.6201V44.5563H54.4996V13.9695Z" stroke="#9494A8" stroke-width="1.36719" stroke-miterlimit="22.9256" stroke-linecap="round" stroke-linejoin="round"/>
<path d="M42.572 39.9618V44.5564" stroke="#9494A8" stroke-width="1.36719" stroke-miterlimit="22.9256" stroke-linecap="round" stroke-linejoin="round"/>
<path d="M22.0902 41.7996L1.96973 69.3671" stroke="#9494A8" stroke-width="1.36719" stroke-miterlimit="22.9256" stroke-linecap="round" stroke-linejoin="round"/>
<path d="M31.3673 41.7996L11.2468 69.3671" stroke="#9494A8" stroke-width="1.36719" stroke-miterlimit="22.9256" stroke-linecap="round" stroke-linejoin="round"/>
<path d="M41.2467 41.7996L21.1262 69.3671" stroke="#9494A8" stroke-width="1.36719" stroke-miterlimit="22.9256" stroke-linecap="round" stroke-linejoin="round"/>
<path d="M41.1262 55.5834L31.1262 69.3672" stroke="#9494A8" stroke-width="1.36719" stroke-miterlimit="22.9256" stroke-linecap="round" stroke-linejoin="round"/>
<path d="M13.2949 41.7996L1.36719 58.2088" stroke="#9494A8" stroke-width="1.36719" stroke-miterlimit="22.9256" stroke-linecap="round" stroke-linejoin="round"/>
</svg>
