<svg width="24" height="21" viewBox="0 0 24 21" fill="none" xmlns="http://www.w3.org/2000/svg">
<path d="M22.1128 0.657959H1V20.5008H22.1128V0.657959Z" stroke="#EF7F1A" stroke-width="2" stroke-miterlimit="22.9256" stroke-linecap="round" stroke-linejoin="round"/>
<path d="M11.6358 14.786C14.0029 14.786 15.9219 12.8671 15.9219 10.4999C15.9219 8.1328 14.0029 6.21387 11.6358 6.21387C9.26867 6.21387 7.34973 8.1328 7.34973 10.4999C7.34973 12.8671 9.26867 14.786 11.6358 14.786Z" stroke="#EF7F1A" stroke-width="2" stroke-miterlimit="22.9256" stroke-linecap="round" stroke-linejoin="round"/>
<path d="M18.7792 5.2615C19.2176 5.2615 19.5729 4.90614 19.5729 4.46779C19.5729 4.02943 19.2176 3.67407 18.7792 3.67407C18.3409 3.67407 17.9855 4.02943 17.9855 4.46779C17.9855 4.90614 18.3409 5.2615 18.7792 5.2615Z" stroke="#EF7F1A" stroke-width="2" stroke-miterlimit="22.9256" stroke-linecap="round" stroke-linejoin="round"/>
</svg>
