<svg width="24" height="21" viewBox="0 0 24 21" fill="none" xmlns="http://www.w3.org/2000/svg">
<path d="M22.1128 0.657959H1V20.5008H22.1128V0.657959Z" stroke="#EF7F1A" stroke-width="2" stroke-miterlimit="22.9256" stroke-linecap="round" stroke-linejoin="round"/>
<path d="M12.8855 19.9436V10.4878H11.2549V9.05202H12.8855V7.89312C12.8855 7.16155 12.9505 6.61799 13.0804 6.26246C13.2581 5.78386 13.5692 5.39756 14.0136 5.10357C14.4649 4.80273 15.0939 4.65231 15.9007 4.65231C16.4203 4.65231 16.9946 4.71385 17.6237 4.83692L17.3468 6.44707C16.9639 6.37869 16.6015 6.34451 16.2597 6.34451C15.699 6.34451 15.3025 6.46416 15.07 6.70346C14.8375 6.94276 14.7213 7.39059 14.7213 8.04696V9.05202H16.8442V10.4878H14.7213V19.9436H12.8855Z" fill="#EF7F1A"/>
</svg>
