<svg width="89" height="81" viewBox="0 0 89 81" fill="none" xmlns="http://www.w3.org/2000/svg">
<path d="M79.0816 0.686691H8.93161C4.37807 0.686691 0.686707 4.68397 0.686707 9.61487V70.7455C0.686707 75.6764 4.37807 79.6737 8.93161 79.6737H79.0816C83.6351 79.6737 87.3265 75.6764 87.3265 70.7455V9.61487C87.3265 4.68397 83.6351 0.686691 79.0816 0.686691Z" stroke="#EF7F1A" stroke-width="1.37339" stroke-miterlimit="22.9256"/>
<path fill-rule="evenodd" clip-rule="evenodd" d="M17.4954 57.8999H21.1851L21.3673 58.9021C20.2285 58.5377 18.7253 58.7654 17.4954 58.7654V57.8999ZM46.7397 24.0549L46.6942 23.9638C46.9675 22.8705 47.0586 22.3239 47.5141 21.2306C48.334 19.0441 50.5661 16.5843 52.7981 15.7644L51.5227 24.2371C51.9782 24.4193 52.5248 24.4648 52.9348 24.647C53.2992 23.9182 54.7569 13.2135 55.0757 12.6213C55.5312 11.7558 56.1234 11.7558 57.3533 11.7558C57.8088 11.7558 58.3099 11.7103 58.7199 11.8469C59.4032 12.0291 58.9932 11.8925 59.1754 12.1203C60.132 13.0313 61.5897 23.3716 62.2729 24.7381C62.6829 24.5104 63.2295 24.5104 63.685 24.3282C63.5939 23.1438 62.1363 16.9488 62.0452 15.7644C62.2729 15.8555 63.184 16.4021 63.2295 16.4477C63.2751 16.4477 63.3206 16.4477 63.3206 16.4932C63.3662 16.4932 63.3662 16.5388 63.4117 16.5388C63.4573 16.5388 63.4573 16.5843 63.5028 16.5843C63.5028 16.6299 63.5484 16.6299 63.5939 16.6754C64.7783 17.5865 65.2794 18.1331 66.1904 19.4541C67.2836 21.0484 67.5114 21.8684 67.9214 23.6904C68.0125 24.2371 67.9214 24.5559 68.1491 25.1481C69.1513 25.1481 70.4723 25.2392 70.7 26.4236C70.9278 27.8812 69.8345 27.8357 69.0146 27.8357H45.7376C45.4643 27.8357 45.0999 27.8357 44.8721 27.7901C44.0066 27.699 43.7333 27.1979 43.9611 26.2869C44.0522 25.8314 44.5532 25.3759 45.0543 25.3303L46.512 25.1026C46.8308 24.7837 46.7397 24.7381 46.7397 24.0549ZM21.8684 60.3142H22.7339C22.9161 59.9498 22.8705 60.0864 22.8705 59.5398V56.3512H21.7317V53.0714C22.9616 52.9803 23.326 52.6159 23.6905 52.6159C23.7816 52.4793 23.9638 52.3882 24.146 52.2059C24.3737 52.0237 24.6926 51.7049 24.8292 51.386C24.9204 51.2038 24.9659 51.0216 25.0115 50.8849V49.3817C27.7901 50.7483 31.161 50.8849 33.9396 49.2451C33.9396 50.065 33.7574 51.2038 34.304 51.8415C34.4863 52.0693 34.7596 52.2971 34.9418 52.4337C34.9873 52.4793 34.9873 52.5248 35.0329 52.5248H35.0784C34.9418 53.0259 34.8962 52.8437 34.6229 53.3447C34.1674 54.2558 33.9396 55.3946 33.9396 56.4878C33.9396 58.2644 33.9396 59.9953 33.9396 61.7263H21.7317L21.8684 60.3142ZM66.737 55.2124H71.8844C71.8388 55.9412 71.7933 55.9412 71.9755 56.6245C70.7 56.2601 68.1947 56.4878 66.737 56.4878V55.2124ZM42.7312 55.2124H47.833V56.4878H42.9134C42.6856 55.9412 42.7312 55.8501 42.7312 55.2124ZM18.7708 54.2102V53.9369C19.0897 53.7547 19.7274 53.6181 20.183 53.6636C20.183 54.5746 20.0463 55.6223 20.3196 56.4878C19.5908 56.3056 19.4541 56.3512 18.7708 56.3512V54.2102ZM68.2858 49.8372C68.878 50.1106 69.6979 50.1106 70.2901 50.3839V53.6636H68.4224C68.0125 52.6159 68.2858 50.976 68.2858 49.8372ZM47.833 49.5184C48.4707 49.2451 51.3405 48.6529 51.6593 48.2429C51.796 48.0152 51.8415 47.5141 51.8415 47.3774V47.3319V47.2863V44.8721C53.1625 45.1454 53.7092 46.102 57.6266 46.1475C58.9932 46.1475 59.722 45.9653 60.7242 45.6465C61.2252 45.4643 61.4985 45.4187 61.9541 45.1909C62.4551 44.9176 62.774 44.6899 63.184 44.6899V46.9675C63.184 47.0586 63.184 47.1497 63.2295 47.1952C63.2295 47.5597 63.3206 47.833 63.5028 48.0607C63.6395 48.334 63.9128 48.5162 64.095 48.6073C64.1861 48.6529 64.2317 48.6985 64.2772 48.744C64.6416 48.8807 65.2338 49.0173 65.3705 49.0629C65.8715 49.1995 66.2815 49.2906 66.737 49.3817V53.6636C64.8238 53.6636 65.1427 52.9803 65.1427 57.6266C65.1427 58.3555 65.9626 57.8999 66.737 58.1733L66.8737 60.1775H47.833V58.0366H49.2451C49.2451 52.7526 49.7462 53.6636 47.833 53.6636V49.5184ZM44.2799 50.3839C45.0999 50.3383 45.5098 49.9739 46.2842 49.9739C46.2842 51.2038 46.102 52.6159 46.4209 53.8003C45.6465 53.5725 45.0999 53.6636 44.2799 53.6636V50.3839ZM21.5951 41.0002L21.4584 36.9005H37.0827C37.0827 41.0457 37.6293 44.0066 34.6685 46.8764C32.3453 49.154 27.8812 49.5184 25.467 47.9241C24.0093 46.9675 24.8748 47.5597 23.8271 46.6031C23.6449 46.4209 23.5993 46.3297 23.4171 46.1475L22.2328 44.3255C21.8228 43.2778 21.5951 42.4578 21.5951 41.0002ZM47.833 35.8984V29.6577C54.2102 29.6577 60.542 29.6577 66.8737 29.6577C66.2359 32.3909 69.2879 41.2279 60.132 44.2344C58.8565 44.6443 56.8067 44.6899 55.3946 44.4621C55.349 44.4621 55.1668 44.4166 55.1213 44.4166C55.0757 44.4166 55.0302 44.4166 55.0302 44.371C53.8914 44.1433 52.9348 43.5966 52.0237 43.0956C51.1583 42.5945 51.4771 42.5945 50.9305 42.2301C50.2472 41.729 50.5205 41.9112 50.0195 41.2735C49.8828 41.1368 49.8373 41.0913 49.7006 40.9091C48.6985 39.6792 47.833 37.6293 47.833 35.8984ZM33.5297 25.6947C34.4407 26.1047 35.0329 26.7424 35.7617 27.4257C37.2194 28.7923 38.0393 31.0699 38.0393 33.1652C40.1802 33.1652 40.1802 33.3019 40.1802 34.7596C39.087 35.5339 36.1717 35.2151 34.6229 35.2151C32.3909 35.2151 25.0115 35.3062 21.4129 35.2606H19.3175C18.7708 35.2606 18.3609 34.8051 18.3609 34.304C18.3609 34.0307 18.452 33.803 18.5886 33.6663V33.6208H18.6342C18.7708 33.4386 19.0442 33.3475 19.2719 33.3475L19.3175 33.3019C19.4997 33.2108 19.7274 33.1197 19.9552 32.983C20.183 32.8464 20.3196 32.6642 20.4563 32.482C20.5474 32.2998 20.6385 32.1175 20.7296 31.9353C20.7751 31.7987 20.8207 31.662 20.9118 31.4343C20.9118 31.2521 20.9573 31.1154 21.0029 30.9332C21.3218 29.84 21.6406 29.0656 22.3239 28.1545C23.5082 26.6058 23.8271 26.5147 25.2848 25.5581C25.2392 26.5602 24.2371 31.4798 24.2371 32.482C24.7837 32.5275 25.1026 32.7097 25.6492 32.7553L27.1979 24.3737C27.8357 21.8684 27.6079 22.1417 30.5232 22.1417C30.9788 22.7794 31.0699 22.5061 31.2976 23.5082C31.5709 24.5559 33.0286 32.4364 33.0741 33.0741C33.6663 33.0286 33.9396 32.8008 34.6229 32.8008C34.4407 32.0264 33.5297 26.5602 33.5297 25.6947ZM53.2536 13.8968C50.2472 14.6256 47.423 17.632 46.1476 20.4563C45.9198 20.9118 45.7376 21.5951 45.5554 22.1417C45.3732 22.6883 45.2821 23.3716 45.1454 23.9638C42.6856 23.9638 41.5013 27.0157 43.2322 28.6556C44.0977 29.4755 44.8721 29.3844 46.2842 29.3844C46.2842 34.4862 45.6465 38.7681 49.0173 42.5489C49.2906 42.8223 49.8373 43.4144 50.2472 43.5511V47.2408L45.9198 48.4251C45.8287 48.4251 45.2821 48.5618 45.0088 48.6529C42.5945 49.2451 40.1347 49.8372 37.8571 50.5661C37.2194 50.7938 36.9005 51.0672 36.3539 51.386C36.0806 51.2494 35.8528 51.1583 35.4884 51.1127V48.1063C36.2628 47.6052 37.1738 46.3753 37.6293 45.4187C38.9503 42.6856 38.6315 39.7247 38.6315 36.6272C39.5425 36.6272 40.408 36.6272 41.0913 35.9895C42.5034 34.6229 41.5924 31.9809 39.4514 31.9353C39.4514 30.4777 38.7681 29.02 38.0393 27.8812L37.0827 26.5147C36.7183 26.0136 36.1717 25.6492 35.6706 25.2392C35.0784 24.6926 34.3041 24.3282 33.5752 23.9638C33.5297 23.9638 33.4841 23.9182 33.4386 23.9182C32.072 23.1894 32.983 20.5929 29.84 20.5929C28.3823 20.5929 27.7446 20.5018 26.9246 21.2306C26.2869 21.8228 25.8769 22.5972 25.8314 23.6904C24.2371 24.0549 22.415 25.6036 21.504 26.6969C20.3196 28.109 19.773 29.6577 19.3175 31.3887C19.2264 31.8442 19.2264 31.7987 18.8164 31.9809C17.7231 32.3453 16.9032 32.983 16.9032 34.3496C16.9032 34.8507 16.9943 35.0329 17.1765 35.3517C18.042 36.9461 18.6342 36.2172 20.0463 36.7638C20.0463 40.3624 19.6819 43.5966 21.6406 46.3753L22.9161 47.9241C22.9616 47.9696 22.9616 47.9696 23.0072 48.0152L23.4171 48.3796V51.1127L19.2719 52.1604C18.4064 52.4337 18.0876 52.4793 17.131 52.7526C14.5345 53.3903 11.3003 53.8003 10.2982 56.7156C9.66046 58.6743 9.93377 77.0773 9.93377 79.446H11.5281V58.6288C11.5281 57.8544 11.6647 57.2622 12.0292 56.7156C12.758 55.5312 13.8512 55.1668 15.1267 54.8935C15.7644 54.7113 16.5844 54.3013 17.1765 54.4835V56.3512H15.9011C15.9011 60.4053 15.3544 60.3142 17.3132 60.3142C17.131 60.9064 17.1765 61.0886 17.1765 61.7263H15.3544V79.446H16.9032V63.1384H18.7708V60.3142H20.183V63.1384C22.1417 63.1384 32.983 62.9107 33.9396 63.3206C33.9396 64.0494 33.9396 64.8238 33.9396 65.5982C33.9396 67.0103 33.8941 75.8018 34.4407 79.3093C34.6685 80.8581 34.9418 79.1271 35.4884 79.1271V56.3512C35.4884 52.3426 38.9503 51.7049 42.0934 51.0216L42.7312 50.9305C42.7312 51.8871 42.6401 52.8892 42.8678 53.8003C42.1845 53.6181 42.0479 53.6636 41.319 53.6636V58.0366H42.7312C42.7312 60.8153 43.2778 60.1775 40.4536 60.1775V77.5784C40.4536 79.4004 40.4991 79.1271 42.0479 79.1271V61.7263C45.0088 61.7263 44.2799 62.364 44.2799 58.0366H46.2842C46.2842 60.2231 45.9653 61.7263 46.6942 61.7263H67.8758C68.6046 61.7263 68.2858 60.0864 68.2858 58.0366C68.9691 58.0366 69.6979 57.9455 70.2901 58.1733V61.7263H72.5677V78.8538C72.5677 79.3549 73.7976 79.1271 74.1164 79.1271V61.3163C74.1164 60.6331 74.0253 60.7242 73.9798 60.1775H71.8388V58.0366H73.2509V53.6636H71.9755C71.6566 52.8892 71.8388 51.7049 71.8388 50.7938C72.8865 50.8849 74.5264 51.5227 75.5741 51.7504L76.804 52.2515C78.3072 53.0259 79.0816 54.5746 79.0816 56.3512V79.1271C79.5371 79.1271 80.6304 79.4004 80.6304 78.7172V56.4878C80.6304 55.3035 80.4482 54.4835 80.0382 53.5725C79.9926 53.527 79.9471 53.4358 79.9471 53.3903C79.3549 52.2059 78.2617 51.2494 77.1229 50.6572C75.7563 50.0195 73.7065 49.7461 72.2032 49.2906L64.7327 47.2408V43.2778C65.1883 43.05 65.1883 43.1411 65.5527 42.6856C65.6893 42.4578 65.6438 42.5034 65.826 42.2756C69.1057 38.5404 68.4224 34.1674 68.4224 29.3844C69.5157 29.3844 70.6545 29.5211 71.52 28.6556C72.4766 27.6535 72.6132 25.467 71.3833 24.6015C71.0645 24.3737 70.8367 24.2371 70.5634 24.146C70.0623 24.0093 69.5612 24.1004 69.4246 23.5538C69.4246 23.4171 69.379 23.2349 69.379 23.0527L68.878 21.2762C68.7413 20.8662 68.6958 20.8207 68.5135 20.5018C68.3769 20.1374 68.3769 20.0007 68.1947 19.6819L68.0125 19.4541C67.0103 17.8598 65.9171 16.5388 64.4139 15.4L64.1406 15.2178C63.8672 15.0356 64.095 15.1722 63.7761 14.99C63.5028 14.8078 63.3662 14.7623 63.0929 14.5801C62.5007 14.2156 62.0907 14.0334 61.453 13.8968C61.453 12.5758 60.9064 11.5736 60.0409 10.8448C59.9953 10.8448 59.9498 10.7992 59.9498 10.7537C58.9021 9.97931 57.3078 10.2071 56.0779 10.2071C54.3924 10.2071 53.2536 12.3936 53.2536 13.8968Z" fill="#EF7F1A"/>
<path fill-rule="evenodd" clip-rule="evenodd" d="M26.1958 66.3726H34.3496V79.7193H26.1958C24.8293 79.7193 23.736 78.5805 23.736 77.2595V68.7869C23.736 67.4658 24.8293 66.3726 26.1958 66.3726V66.3726Z" stroke="#EF7F1A" stroke-width="0.686695" stroke-miterlimit="22.9256" stroke-linecap="round" stroke-linejoin="round"/>
<path d="M63.7306 66.3726H51.386C49.3986 66.3726 47.7874 67.4535 47.7874 68.7869V77.3051C47.7874 78.6384 49.3986 79.7193 51.386 79.7193H63.7306C65.718 79.7193 67.3292 78.6384 67.3292 77.3051V68.7869C67.3292 67.4535 65.718 66.3726 63.7306 66.3726Z" stroke="#EF7F1A" stroke-width="0.686695" stroke-miterlimit="22.9256" stroke-linecap="round" stroke-linejoin="round"/>
<path d="M19.2263 32.7553L38.4948 32.8008" stroke="#EF7F1A" stroke-width="0.686695" stroke-miterlimit="22.9256" stroke-linecap="round" stroke-linejoin="round"/>
<path d="M46.0565 24.647L69.0146 24.6926" stroke="#EF7F1A" stroke-width="0.686695" stroke-miterlimit="22.9256"/>
<path d="M23.5082 52.2059C24.3737 53.2992 25.2392 54.3924 26.1958 55.2579C27.1979 56.1234 28.3367 56.7156 29.43 56.7611C30.5688 56.7611 31.7076 56.2145 32.6186 55.3946C33.5297 54.5746 34.2129 53.4814 34.9418 52.4337" stroke="#EF7F1A" stroke-width="0.686695" stroke-miterlimit="22.9256" stroke-linecap="round" stroke-linejoin="round"/>
<path d="M51.0671 47.9696C52.0237 49.3361 53.0259 50.7027 54.1647 51.7504C55.3035 52.7981 56.5789 53.5725 57.8544 53.618C59.1754 53.618 60.4508 52.9348 61.4985 51.8871C62.5462 50.8849 63.3662 49.5639 64.1405 48.2429" stroke="#EF7F1A" stroke-width="0.686695" stroke-miterlimit="22.9256" stroke-linecap="round" stroke-linejoin="round"/>
</svg>
