<svg width="114" height="81" viewBox="0 0 114 81" fill="none" xmlns="http://www.w3.org/2000/svg">
<path d="M23.5538 0H108.554C109.282 0 109.875 0.455519 109.875 1.04769V72.2909C109.875 72.8831 109.282 73.3386 108.554 73.3386H23.5538C22.8249 73.3386 22.2327 72.8831 22.2327 72.2909V60.9485H24.8748V71.2888H107.233V2.09539H24.8748V39.448H22.2327V1.04769C22.2327 0.455519 22.8249 0 23.5538 0Z" fill="#EF7F1A"/>
<path fill-rule="evenodd" clip-rule="evenodd" d="M30.0677 8.336H59.5853V65.0481H30.0677V60.9485H43.6422C46.0564 60.9485 48.0152 58.9442 48.0152 56.5299V43.8665C48.0152 41.4522 46.0564 39.448 43.6422 39.448H30.0677V8.336V8.336Z" stroke="#EF7F1A" stroke-width="0.686695" stroke-miterlimit="22.9256" stroke-linecap="round" stroke-linejoin="round"/>
<path fill-rule="evenodd" clip-rule="evenodd" d="M62.2274 6.65057H102.45V66.688H62.2274V6.65057ZM65.006 9.42924H99.6255V63.9549H65.006V36.396H64.1861C63.5939 36.396 63.1384 35.9405 63.1384 35.3938C63.1384 34.8472 63.5939 34.3917 64.1861 34.3917H65.006V9.42924V9.42924Z" stroke="#EF7F1A" stroke-width="0.686695" stroke-miterlimit="22.9256" stroke-linecap="round" stroke-linejoin="round"/>
<path d="M112.972 72.6553H18.8619V79.4426H112.972V72.6553Z" stroke="#EF7F1A" stroke-width="1.37339" stroke-miterlimit="22.9256" stroke-linecap="round" stroke-linejoin="round"/>
<path d="M68.969 34.3917H64.2316C63.6782 34.3917 63.2295 34.8403 63.2295 35.3938C63.2295 35.9473 63.6782 36.3959 64.2316 36.3959H68.969C69.5225 36.3959 69.9712 35.9473 69.9712 35.3938C69.9712 34.8403 69.5225 34.3917 68.969 34.3917Z" stroke="#EF7F1A" stroke-width="0.686695" stroke-miterlimit="22.9256" stroke-linecap="round" stroke-linejoin="round"/>
<path fill-rule="evenodd" clip-rule="evenodd" d="M11.6647 39.4479H43.6422C46.0564 39.4479 48.0151 41.4522 48.0151 43.8665V56.5299C48.0151 58.9442 46.0564 60.9484 43.6422 60.9484H11.6647C9.66042 60.9484 7.92945 59.5363 7.42838 57.6687C3.64757 57.3043 0.686691 54.1612 0.686691 50.3348C0.686691 46.5085 3.60202 43.3654 7.38283 42.9554C7.7928 40.9967 9.56932 39.4479 11.6647 39.4479V39.4479Z" stroke="#EF7F1A" stroke-width="1.37339" stroke-miterlimit="22.9256"/>
<path d="M7.42836 52.7491C8.91267 52.7491 10.1159 51.5458 10.1159 50.0615C10.1159 48.5772 8.91267 47.374 7.42836 47.374C5.94406 47.374 4.7408 48.5772 4.7408 50.0615C4.7408 51.5458 5.94406 52.7491 7.42836 52.7491Z" stroke="#EF7F1A" stroke-width="0.686695" stroke-miterlimit="22.9256"/>
<path d="M35.3062 49.105H31.3887V56.8033H35.3062V49.105Z" stroke="#EF7F1A" stroke-width="0.686695" stroke-miterlimit="22.9256"/>
<path d="M31.3887 49.9249C30.4777 49.1961 29.5666 48.5128 29.02 47.9206C28.4278 47.3284 28.2456 46.8274 28.0634 46.3263C27.8812 45.8252 27.699 45.3241 27.6079 44.8686C27.5168 44.3676 27.5168 43.9576 27.4257 43.6843C27.3801 43.411 27.289 43.2743 27.1068 43.1832C26.9246 43.1377 26.6058 43.1832 26.378 43.1832C26.1502 43.2288 25.968 43.3199 25.7858 43.5932C25.6492 43.8209 25.5125 44.2765 25.467 44.8231C25.4214 45.4153 25.4214 46.0985 25.467 46.7363C25.5581 47.374 25.6492 47.9662 25.7858 48.3306C25.968 48.7405 26.1503 48.9228 26.1958 49.0139C26.2414 49.105 26.1047 49.105 25.2848 49.105C24.4648 49.105 22.9161 49.105 22.0506 49.1505C21.2306 49.1505 21.1395 49.2416 21.0029 49.3783C20.8662 49.5605 20.684 49.7882 20.6385 50.016C20.5474 50.2438 20.5474 50.4715 20.684 50.6993C20.8207 50.9726 21.094 51.2004 21.1851 51.337C21.2762 51.4737 21.2306 51.4737 21.1851 51.5648C21.094 51.6103 21.0484 51.747 21.0029 51.9292C20.9573 52.1569 21.0029 52.3847 21.094 52.6125C21.1851 52.7947 21.3673 53.0224 21.5039 53.1135C21.6862 53.2502 21.7773 53.2957 21.7773 53.3413C21.7773 53.3868 21.7317 53.4324 21.6862 53.5235C21.5951 53.6602 21.5039 53.8879 21.5039 54.1612C21.5039 54.4345 21.6406 54.7078 21.8228 54.8901C22.0506 55.1178 22.3239 55.2545 22.4605 55.3456C22.5972 55.4367 22.5516 55.4367 22.5061 55.5278C22.415 55.6189 22.3694 55.71 22.415 55.9377C22.415 56.12 22.5516 56.3933 22.7338 56.621C22.9161 56.8032 23.1438 56.9399 24.1915 57.031C25.2392 57.0766 27.1068 57.031 28.4278 56.8032C29.7488 56.621 30.5688 56.2111 31.3887 55.8011" stroke="#EF7F1A" stroke-width="0.686695" stroke-miterlimit="22.9256"/>
<path d="M8.38495 52.5669C8.47605 51.7925 8.61271 50.9726 7.97498 50.5626C7.38281 50.1527 6.0618 50.1071 4.7408 51.0637C3.37424 52.0203 2.00767 53.9335 1.82547 56.0744C1.64326 58.2153 2.6454 60.584 4.60414 62.2695C6.56287 63.9549 9.52374 65.0026 11.8924 65.9136C14.3067 66.8247 16.2199 67.599 17.3131 68.6923C18.3608 69.7855 18.6341 71.2432 18.8619 72.6553" stroke="#EF7F1A" stroke-width="0.686695" stroke-miterlimit="22.9256"/>
<path d="M11.6647 60.9485C13.0312 62.5884 14.3523 64.2738 15.5822 65.5037C16.7665 66.7791 17.8597 67.6446 18.4064 68.7379C18.9074 69.8767 18.9074 71.2888 18.8619 72.6553" stroke="#EF7F1A" stroke-width="0.686695" stroke-miterlimit="22.9256"/>
</svg>
