<svg width="85" height="96" viewBox="0 0 85 96" fill="none" xmlns="http://www.w3.org/2000/svg">
<path fill-rule="evenodd" clip-rule="evenodd" d="M0.686691 7.01839H17.5865V11.1181H49.7917V7.01839H67.1925V56.8522C66.327 56.7155 65.4159 56.67 64.5049 56.67C62.8195 56.67 61.1341 56.8977 59.5853 57.3077V16.4476H17.0398L8.7494 23.4626V75.2552H45.6009C45.6009 75.3918 45.6009 75.4829 45.6009 75.574C45.6009 78.3072 46.1475 80.9036 47.1952 83.2723H0.686691V7.01839V7.01839Z" stroke="#EF7F1A" stroke-width="1.37339" stroke-miterlimit="22.9256" stroke-linecap="round" stroke-linejoin="round"/>
<path fill-rule="evenodd" clip-rule="evenodd" d="M17.5865 3.19203H27.3801V4.51304H39.1325V3.19203H49.7917V11.1181H17.5865V3.19203Z" stroke="#EF7F1A" stroke-width="1.37339" stroke-miterlimit="22.9256" stroke-linecap="round" stroke-linejoin="round"/>
<path d="M39.1326 0.686691H27.3802V4.51305H39.1326V0.686691Z" stroke="#EF7F1A" stroke-width="1.37339" stroke-miterlimit="22.9256" stroke-linecap="round" stroke-linejoin="round"/>
<path fill-rule="evenodd" clip-rule="evenodd" d="M17.0398 16.4476H59.5853V57.3077C51.6137 59.4487 45.7375 66.6914 45.6009 75.2552H8.74937V23.4626L17.0398 16.4476V16.4476Z" stroke="#EF7F1A" stroke-width="1.37339" stroke-miterlimit="22.9256" stroke-linecap="round" stroke-linejoin="round"/>
<path fill-rule="evenodd" clip-rule="evenodd" d="M17.0398 16.4476L8.74937 23.5537L17.0398 23.4171V16.4476Z" stroke="#EF7F1A" stroke-width="0.686695" stroke-miterlimit="22.9256" stroke-linecap="round" stroke-linejoin="round"/>
<path d="M18.1786 32.3453H49.7461" stroke="#EF7F1A" stroke-width="0.686695" stroke-miterlimit="22.9256" stroke-linecap="round" stroke-linejoin="round"/>
<path d="M18.4975 36.5816H37.9027" stroke="#EF7F1A" stroke-width="0.686695" stroke-miterlimit="22.9256" stroke-linecap="round" stroke-linejoin="round"/>
<path d="M18.1786 45.7376H49.7461" stroke="#EF7F1A" stroke-width="0.686695" stroke-miterlimit="22.9256" stroke-linecap="round" stroke-linejoin="round"/>
<path d="M18.4975 50.0194H37.9027" stroke="#EF7F1A" stroke-width="0.686695" stroke-miterlimit="22.9256" stroke-linecap="round" stroke-linejoin="round"/>
<path d="M18.1786 57.991H45.9198" stroke="#EF7F1A" stroke-width="0.686695" stroke-miterlimit="22.9256" stroke-linecap="round" stroke-linejoin="round"/>
<path d="M18.4975 62.2729H37.9027" stroke="#EF7F1A" stroke-width="0.686695" stroke-miterlimit="22.9256" stroke-linecap="round" stroke-linejoin="round"/>
<path d="M64.5049 94.5237C74.9705 94.5237 83.4545 86.0396 83.4545 75.5741C83.4545 65.1085 74.9705 56.6245 64.5049 56.6245C54.0394 56.6245 45.5553 65.1085 45.5553 75.5741C45.5553 86.0396 54.0394 94.5237 64.5049 94.5237Z" stroke="#EF7F1A" stroke-width="1.37339" stroke-miterlimit="22.9256"/>
<path fill-rule="evenodd" clip-rule="evenodd" d="M62.774 85.3677C62.8196 85.3677 62.8196 85.3677 62.8651 85.3222H62.9107H62.9562C63.1384 85.3222 63.4573 84.9577 63.6395 84.73L63.7306 84.6389L63.8673 84.5478C64.0495 84.3656 64.4139 84.0011 64.4139 83.8189V83.7734C64.4594 83.7278 64.4594 83.7278 64.4594 83.7278C64.4594 83.6823 64.4594 83.6367 64.4594 83.5912L64.3228 83.3634C64.3228 83.3179 64.3228 83.2723 64.3228 83.2723C64.2772 83.2268 64.2772 83.2268 64.2317 83.1812C64.1861 83.1357 64.1406 83.1357 64.0495 83.0901H64.0039C63.9128 83.0446 63.7762 82.999 63.7306 82.999C63.6395 82.999 63.5939 83.0446 63.5484 83.0901C63.5484 83.1357 63.3206 83.3179 63.2751 83.409C63.2295 83.409 63.184 83.4545 63.1384 83.5001C63.0929 83.5456 63.0473 83.5912 63.0473 83.6367L62.7285 83.91C62.6829 83.9556 62.6374 84.0011 62.5918 84.0011C62.5463 84.0467 62.5463 84.0922 62.5007 84.1378V84.1834C62.4096 84.2745 62.2729 84.4111 62.1818 84.4567C62.1363 84.5022 62.1363 84.5022 62.1363 84.5933C62.1363 84.6844 62.1363 84.73 62.1363 84.7755L62.1818 84.8666C62.1818 84.9577 62.2274 85.0488 62.2729 85.1399C62.3185 85.1855 62.364 85.231 62.4552 85.231L62.5918 85.3222C62.6374 85.3222 62.6829 85.3677 62.774 85.3677ZM55.4401 69.3334L57.3989 70.7C57.7177 70.9277 57.9455 71.2466 57.991 71.611C58.0366 71.8388 57.9911 72.0665 57.9455 72.2943C57.9911 72.2943 58.0366 72.3399 58.1277 72.3399L58.2644 72.3854C58.3099 72.431 58.3555 72.431 58.401 72.431C58.4921 72.4765 58.5832 72.4765 58.6288 72.4765L58.7199 72.5221L59.221 72.5676H59.3121C59.4943 72.6132 59.722 72.6132 59.7676 72.5676L59.8131 72.5221H59.8587C59.9042 72.5676 59.9953 72.5221 60.0864 72.5221C60.1775 72.5221 60.2687 72.4765 60.3142 72.4765L60.3598 72.431C60.4509 72.431 60.542 72.3854 60.6331 72.3854C60.7242 72.3398 60.7697 72.2943 60.8153 72.2943L60.8608 72.2487H60.9064C60.9519 72.2487 61.043 72.2032 61.1341 72.1576C61.2252 72.1576 61.2708 72.1121 61.3164 72.1121C61.4075 72.0665 61.4986 72.0665 61.5897 72.021C61.7263 72.021 61.8174 71.9754 61.9085 71.9754C61.9541 71.9754 61.9996 71.9754 61.9996 71.9754L62.0452 71.9299L62.9107 71.9754H62.9562C63.0018 72.0665 63.184 72.0665 63.3206 72.1121C63.3662 72.1121 63.4573 72.1121 63.5028 72.1121C63.5939 72.1576 63.6851 72.2032 63.7762 72.2487C63.8673 72.2487 63.9584 72.2943 64.0495 72.2943L64.095 72.3399C64.1406 72.3399 64.2317 72.3854 64.3228 72.431C64.4139 72.4765 64.4594 72.4765 64.505 72.5221C64.505 72.5221 64.505 72.5676 64.505 72.5221L65.0061 72.3399C65.3249 72.1576 65.7349 72.0665 66.1448 71.9754C66.1904 71.9754 66.1904 71.9754 66.236 71.9754C66.3271 71.9754 66.3726 71.9754 66.4182 71.9754V71.9299H67.1014V71.9754C67.147 71.9754 67.1925 71.9754 67.2836 72.021C67.4659 72.021 67.6936 72.0665 67.7392 72.1121H67.7847C67.8758 72.1576 68.1491 72.2487 68.4224 72.3399C68.6047 72.3854 68.7413 72.431 68.7413 72.431H68.7869L68.8324 72.4765C68.878 72.4765 68.878 72.4765 68.878 72.4765L68.9235 72.5221H68.9691C69.0146 72.5221 69.1057 72.5221 69.1513 72.5676H69.1968H69.8345H69.9257C70.0623 72.5676 70.3356 72.5676 70.4267 72.4765H70.4723H70.5178C70.5634 72.4765 70.6545 72.4765 70.7 72.4765C70.7912 72.431 70.8822 72.3854 70.9733 72.3399C71.11 72.3399 71.2011 72.2487 71.3378 72.2032C71.2922 72.021 71.2922 71.8388 71.3378 71.6566C71.3833 71.3377 71.5655 71.0188 71.8844 70.7911L73.8887 69.4245C74.2076 69.1968 74.572 69.1057 74.8908 69.1968C75.2552 69.2423 75.5741 69.4245 75.8019 69.7434L79.0816 74.4352C79.3094 74.7541 79.3549 75.1185 79.3094 75.4829C79.2638 75.8018 79.0361 76.1207 78.7628 76.3484L76.7585 77.7605C76.4396 77.9427 76.0752 78.0338 75.7563 77.9883C75.5741 77.9427 75.4375 77.8972 75.3008 77.8061L74.2531 78.626C73.9342 78.9904 73.251 79.4459 72.8866 79.7193L73.0232 79.947C73.1599 80.0837 73.2965 80.3114 73.3876 80.4936C73.4332 80.5847 73.4787 80.6759 73.5243 80.767C73.5243 80.8581 73.5698 80.9947 73.5698 81.0858C73.5698 81.268 73.5698 81.4047 73.5243 81.4958C73.5243 81.5869 73.5243 81.678 73.5243 81.7235V81.7691L73.4787 81.8147C73.4787 81.8147 73.4332 81.8602 73.3876 81.9513C73.2054 82.2246 72.7954 82.8623 71.6566 82.6801V82.8168C71.6111 82.999 71.5655 83.1812 71.4744 83.3179C71.3833 83.4545 71.2467 83.5912 71.11 83.6823C70.7912 83.91 70.6545 83.91 70.4267 83.9556C70.3356 83.9556 70.2445 83.9556 70.0623 83.9556V84.0011C70.0168 83.9556 69.9257 83.91 69.8801 83.91C69.8346 84.0011 69.8345 84.0922 69.8345 84.1378C69.789 84.32 69.7435 84.4567 69.5612 84.6844C69.4246 84.9122 69.1968 85.0033 69.0602 85.0944C68.9691 85.1399 68.9235 85.1399 68.9235 85.1855L68.878 85.231C68.7869 85.231 68.6502 85.231 68.5591 85.231C68.2402 85.2766 68.1036 85.231 67.8758 85.1399H67.7847C67.7392 85.231 67.6936 85.3677 67.6481 85.4588C67.6025 85.5955 67.5114 85.6866 67.4203 85.7777C67.2836 85.9143 67.1014 85.9599 66.9192 86.051L66.737 86.1421L66.1448 86.2332V86.1876C66.0993 86.1876 66.0537 86.1421 65.9626 86.1421C65.9171 86.1421 65.8715 86.1421 65.826 86.0965C65.4616 85.9599 65.3249 85.8232 65.2338 85.6866C65.1883 85.641 65.1883 85.5955 65.0972 85.5955V85.5499L65.0061 85.4588H64.9605C64.9605 85.3677 64.7783 85.231 64.6872 85.1399L64.5961 85.0488H64.5505C64.5505 85.0488 64.505 85.0944 64.4139 85.1855C64.2772 85.3221 64.1406 85.4588 64.095 85.5044V85.5499H64.0495C64.0039 85.5499 64.0039 85.5499 64.0039 85.5955L63.9584 85.641C63.6851 85.9599 63.3662 86.0965 63.0473 86.1876C62.8196 86.2332 62.5918 86.1876 62.364 86.1421C62.1363 86.0965 61.9541 85.9599 61.7719 85.8232C61.5441 85.641 61.4075 85.4132 61.3164 85.1399C61.1797 85.1855 61.043 85.231 60.8608 85.231C60.7697 85.231 60.3142 85.1855 60.2686 85.1855C59.9953 85.0488 59.722 84.9122 59.5398 84.6844C59.4032 84.5022 59.2665 84.2289 59.221 83.91C59.0388 83.9556 58.8565 83.9556 58.6743 84.0011L58.6288 83.9556C58.5832 83.91 58.5377 83.91 58.4466 83.8645C58.2643 83.8189 58.0366 83.7278 57.8088 83.5001C57.7177 83.409 57.6266 83.2268 57.5355 83.0446C57.49 82.9079 57.4444 82.7712 57.4444 82.6346C57.08 82.6801 56.9889 82.6801 56.5789 82.589H56.5334C56.2601 82.4524 56.0779 82.4068 55.9868 82.2702C55.8501 82.1335 55.759 81.9969 55.6224 81.7235C55.6224 81.678 55.6223 81.678 55.5768 81.6324C55.5312 81.3136 55.4857 81.1769 55.5768 80.8125C55.6679 80.5392 55.759 80.4025 55.8501 80.2659L55.9412 80.0837L56.0779 79.9926L56.3056 79.8104V79.7648C56.2145 79.7193 56.0779 79.5826 55.9412 79.4915C55.759 79.3548 55.6224 79.2182 55.4857 79.1271L55.2579 79.036L55.349 78.9904L55.2124 78.8993C55.1213 78.8082 55.0757 78.7627 54.9846 78.7627L54.9391 78.7171V78.6716L54.8935 78.626C54.848 78.626 54.848 78.626 54.8024 78.5805L54.7569 78.5349L54.6658 78.4438L54.5746 78.3527L54.438 78.3072L54.3924 78.2616C54.3924 78.1705 54.1647 78.0338 53.9825 77.8972L53.8458 77.8061C53.7547 77.8516 53.6636 77.8516 53.5725 77.8972C53.2536 77.9427 52.8892 77.8972 52.5704 77.6694L50.5661 76.2573C50.2472 76.0296 50.065 75.7107 50.0195 75.3918C49.9283 75.0274 50.0195 74.663 50.2472 74.3441L53.527 69.6523C53.7547 69.3334 54.0736 69.1512 54.3924 69.1057C54.7569 69.0146 55.1213 69.1057 55.4401 69.3334ZM57.49 72.9776L54.5291 77.2595C54.6202 77.3506 54.8024 77.5328 54.9391 77.6239L54.9846 77.6694C55.1213 77.715 55.1668 77.8061 55.2579 77.8516C55.349 77.9427 55.4401 78.0338 55.5312 78.0794C55.8957 78.3527 56.3056 78.6716 56.6245 78.9449C56.7156 78.9904 56.8067 79.1271 56.9434 79.1726C56.9889 79.0815 57.0345 79.0815 57.08 78.9904C57.1256 78.9449 57.1711 78.9449 57.2622 78.8993C57.3078 78.8538 57.3533 78.8082 57.3989 78.8082C57.49 78.7627 57.5355 78.7171 57.6266 78.7171C57.6722 78.7171 57.7633 78.6716 57.8544 78.6716C58.2188 78.626 58.401 78.6716 58.6743 78.8082C58.7654 78.8082 58.7654 78.8082 58.8565 78.8538C58.9932 78.9904 59.0843 79.036 59.1754 79.1271C59.221 79.1726 59.2665 79.2637 59.3576 79.4459L59.4487 79.5826L59.4943 79.8559L59.5854 79.8104C59.722 79.6737 59.8587 79.5371 60.0409 79.4459C60.0865 79.4459 60.0864 79.4459 60.132 79.4004L60.3142 79.3093L60.8608 79.2637C61.043 79.3548 61.2708 79.4004 61.453 79.4915V79.5371H61.5441L61.9996 80.0837V80.1748L62.0907 80.4936H62.2274C62.3185 80.4936 62.4552 80.4481 62.6374 80.4481C62.774 80.4481 62.8651 80.4936 63.0018 80.4936C63.0473 80.5392 63.0929 80.5847 63.1384 80.5847C63.2751 80.6303 63.4573 80.7214 63.6395 80.9036C63.6851 80.9492 63.685 80.9492 63.685 80.9947C63.7306 81.0403 63.7306 81.0403 63.7762 81.0858L63.8217 81.1314C64.0495 81.7235 64.0495 81.7691 64.0039 81.9513C64.0039 81.9969 64.0039 82.0424 64.0039 82.1791C64.1406 82.2246 64.2772 82.2702 64.4139 82.3157C64.5505 82.3613 64.6872 82.4524 64.7783 82.5435C64.915 82.6346 65.0061 82.7257 65.0516 82.8623C65.1427 82.9534 65.1882 83.1357 65.2794 83.2723C65.2794 83.3179 65.2794 83.3634 65.2794 83.409L65.3249 83.4545V83.5001C65.3249 83.5912 65.3249 83.6367 65.2794 83.7278C65.2794 83.8189 65.2794 83.91 65.2338 84.0467C65.2338 84.1378 65.1883 84.2289 65.1427 84.2745L65.0972 84.4111H65.1883V84.4567C65.2794 84.5933 65.3705 84.6844 65.5071 84.8211L65.6438 84.9122L65.7349 85.0033C65.8716 85.1399 66.0082 85.2766 66.1904 85.3222C66.2815 85.3677 66.3726 85.3677 66.4637 85.3677C66.5093 85.3222 66.6004 85.3221 66.6004 85.2766H66.6459V85.231C66.737 85.231 66.7826 85.1855 66.8281 85.1399C66.8737 85.0944 66.9192 85.0033 66.9648 84.9122C67.0103 84.7755 67.0103 84.6389 67.0103 84.5478C67.0103 84.5022 66.9648 84.4111 66.9192 84.3656L66.8737 84.32C66.7826 84.2289 66.737 84.2289 66.6915 84.1378C66.6459 84.0922 66.6459 84.0922 66.6004 84.0467C66.6004 84.0011 66.5548 83.9556 66.5548 83.9556H66.5093L66.4637 83.91C66.4182 83.8645 66.4182 83.8189 66.3726 83.8189L66.3271 83.7734C66.2815 83.7278 66.2815 83.6823 66.236 83.6367L66.1448 83.5912V83.5456L66.0993 83.5001C66.0993 83.4545 66.0538 83.4545 66.0538 83.4545L65.9626 83.409V83.3634C65.9171 83.3179 65.9171 83.3179 65.8715 83.2723L65.826 83.2268L65.7804 83.1357C65.7804 83.0901 65.7805 83.0901 65.7349 83.0446L65.6893 82.999V82.9534C65.7349 82.8168 65.7349 82.6801 65.826 82.589C65.9171 82.4979 66.0538 82.4979 66.236 82.4979H66.2815C66.5093 82.6801 66.5548 82.7257 66.6004 82.7712C66.6004 82.8168 66.6459 82.8623 66.737 82.9534C66.7826 82.999 66.7826 83.0446 66.8281 83.0446C66.8737 83.0901 66.9192 83.1357 66.9648 83.1812L67.6481 83.91C67.6936 84.0011 67.7392 84.0467 67.7847 84.0922C67.9214 84.2289 68.0125 84.2745 68.1036 84.32L68.1491 84.3656C68.1947 84.3656 68.2858 84.4111 68.3769 84.4111C68.5135 84.4111 68.6502 84.3656 68.7413 84.32L68.7869 84.2745C68.9691 84.1833 69.0146 84.0011 69.0602 83.8189C69.0602 83.6367 69.0146 83.409 68.9691 83.2723L68.9235 83.1812C68.878 83.1357 68.7413 82.999 68.6502 82.8623C68.5591 82.8168 68.5136 82.7712 68.5136 82.7712H68.468L68.4224 82.6801C68.4224 82.6346 68.4224 82.6346 68.3769 82.589L68.2858 82.5435L68.1947 82.4979V82.4524C68.1947 82.4068 68.1947 82.3613 68.1491 82.3613C68.1036 82.3157 68.0581 82.2702 68.0125 82.2246C67.9669 82.1791 67.9669 82.1791 67.9214 82.1335L67.8758 82.088L67.8303 81.9969C67.7847 81.9513 67.7847 81.9513 67.7392 81.9058H67.6936V81.8602C67.6936 81.8147 67.6481 81.8147 67.6481 81.8147C67.6481 81.7691 67.6025 81.7691 67.5569 81.7235C67.4658 81.6324 67.4203 81.5413 67.4203 81.4502C67.4203 81.3591 67.4659 81.268 67.5114 81.1769V81.1314L67.5569 81.0858C67.6025 81.0858 67.6481 81.0403 67.6936 80.9947H67.7392C68.058 80.9492 68.1036 81.0403 68.2402 81.2225C68.3313 81.3136 68.3769 81.3591 68.4224 81.4047C68.468 81.4502 68.468 81.4502 68.5591 81.4958C68.6047 81.5869 68.6502 81.6324 68.6502 81.678C68.6958 81.7235 68.7413 81.7691 68.7869 81.8602C68.9235 81.9058 69.1057 82.1335 69.3335 82.3613C69.6068 82.6801 69.8801 82.999 69.9712 83.0446C70.0168 83.0901 70.0623 83.0901 70.0623 83.0901C70.1079 83.1357 70.1534 83.1357 70.199 83.1357C70.3356 83.1357 70.3356 83.1357 70.3812 83.0901H70.4267C70.5179 83.0901 70.6089 83.0446 70.6545 82.999C70.7 82.9079 70.7456 82.8623 70.7456 82.8168V82.7712L70.7912 82.7257C70.8367 82.6801 70.8823 82.6801 70.9278 82.6801C70.9278 82.6801 70.8367 82.6801 70.8367 82.6346V82.589V82.5435C70.8367 82.4524 70.8367 82.4068 70.8367 82.4068C70.7911 82.3613 70.7912 82.3157 70.7456 82.3157V82.2702V82.2246C70.7001 82.1335 70.5634 81.9969 70.4723 81.9058C70.4268 81.8602 70.3356 81.8146 70.3356 81.7235L69.379 80.6759C69.3335 80.6303 69.2879 80.5847 69.2424 80.5392C69.1057 80.4025 68.9691 80.2659 68.9235 79.9926V79.947C68.9691 79.8559 69.0146 79.7648 69.0602 79.7193C69.1513 79.6737 69.1969 79.6282 69.3335 79.6282H69.379C69.6068 79.6282 69.6524 79.7193 69.789 79.9015C69.8346 79.947 69.9257 80.0381 70.0168 80.1292C70.0623 80.1748 70.1079 80.2203 70.1534 80.2659L70.199 80.3114L71.2467 81.4958C71.4289 81.678 71.6566 81.9058 72.1121 81.8602C72.1577 81.8602 72.2944 81.8147 72.3855 81.7691C72.431 81.7691 72.4766 81.7235 72.4766 81.7235V81.678L72.5221 81.6324C72.6132 81.6324 72.6132 81.5869 72.6588 81.5413C72.7043 81.4958 72.7043 81.4047 72.7043 81.3136C72.7499 81.2225 72.7499 81.0858 72.7043 80.9947C72.6588 80.9036 72.6132 80.767 72.5677 80.7214C72.4766 80.5848 72.3855 80.4936 72.2944 80.4025L72.1121 80.1748L71.7022 79.6282C71.5655 79.4915 71.4289 79.3093 71.2922 79.1271L70.9733 78.6716H70.9278H70.8823L70.8367 78.5805C70.7911 78.4438 70.7001 78.3071 70.5634 78.1705C70.1534 77.6694 69.4246 76.895 69.1513 76.4395C69.1513 76.394 69.0602 76.3029 68.9691 76.1662C68.9235 76.1207 68.878 76.0296 68.8324 76.0296C68.7869 75.984 68.5591 75.984 68.3769 75.984H68.1947H67.8303C67.3748 75.984 66.7826 75.9385 66.6459 75.984L66.6004 76.0296V76.0751C66.5093 76.1662 66.2815 76.4395 66.1904 76.4851C66.0993 76.5306 66.0538 76.5762 66.0082 76.6673L65.9626 76.7128L65.7804 76.895C65.7349 76.895 65.7349 76.9406 65.7349 76.9862L65.6893 77.0317H65.6438C65.5982 77.0772 65.5527 77.1228 65.4616 77.1684C65.416 77.2139 65.416 77.2139 65.3705 77.2595V77.305C65.2338 77.3506 64.7783 77.8061 64.5505 77.9427C64.3683 78.0794 64.1406 78.2616 64.095 78.3072V78.3527H64.0495C64.0039 78.3527 63.8673 78.3983 63.7306 78.4894C63.6851 78.5349 63.6395 78.5349 63.594 78.5805C63.4573 78.626 63.3206 78.6716 63.184 78.7171C63.0473 78.7627 63.0473 78.7627 62.9107 78.8082C62.774 78.8082 62.6829 78.8082 62.6374 78.8538H62.5918C62.0907 78.8538 61.9996 78.8538 61.5897 78.7171C61.4986 78.7171 61.4075 78.6716 61.3164 78.626C61.2252 78.5805 61.1797 78.5349 61.0886 78.4894C60.9975 78.4438 60.9519 78.3983 60.9064 78.3527C60.8608 78.3072 60.8153 78.2616 60.7697 78.216C60.6786 78.1705 60.6331 78.0794 60.5875 78.0794H60.542L60.3142 77.6239V77.5783C60.3142 77.305 60.4053 77.2139 60.4964 77.1228C60.542 77.0772 60.542 77.0317 60.5875 77.0317V76.9862L60.6331 76.895H60.6786C60.7242 76.8495 60.7697 76.8495 60.7697 76.8039L60.8153 76.7128C60.8608 76.6673 60.9064 76.6673 60.9064 76.6217C60.9519 76.6217 60.9519 76.5762 60.9975 76.5306C61.7263 75.7562 62.5007 74.663 63.2295 73.9342C63.2751 73.8886 63.2751 73.8431 63.3206 73.8431C63.3206 73.7975 63.3206 73.7975 63.3662 73.7064L63.4117 73.6609C63.4573 73.6609 63.4573 73.6609 63.4573 73.6609C63.4573 73.6153 63.4573 73.6153 63.5028 73.5698V73.5242H63.5484C63.5939 73.4787 63.6395 73.4331 63.7306 73.342C63.7762 73.2964 63.8217 73.2053 63.8673 73.1598C63.8217 73.1598 63.7306 73.1142 63.6395 73.0687C63.4118 72.9776 63.1384 72.932 63.0018 72.8865H62.9107C62.8196 72.8409 62.7285 72.8409 62.5918 72.8409H62.5462C62.5007 72.7954 62.364 72.7954 62.2274 72.7954H62.1818C62.0907 72.7954 61.9996 72.7954 61.9541 72.8409C61.9085 72.8409 61.9085 72.8409 61.863 72.8865H61.8174C61.7719 72.8865 61.6808 72.8865 61.6352 72.8865C61.5441 72.932 61.4985 72.932 61.4074 72.9776C61.3163 73.0231 61.1797 73.0687 61.0886 73.1142C61.043 73.1142 60.9519 73.1598 60.8608 73.2053C60.8153 73.2053 60.7242 73.2053 60.6786 73.2509C60.542 73.2509 60.3598 73.2964 60.3142 73.342V73.3875H60.2686C60.132 73.3875 59.9953 73.3875 59.9042 73.3875C59.8131 73.4331 59.722 73.4331 59.5854 73.4331C59.4943 73.4331 59.3576 73.4331 59.2665 73.4331C59.1298 73.3875 58.9932 73.3875 58.9021 73.4331H58.8565L58.811 73.3875C58.7654 73.342 58.5832 73.342 58.4466 73.2964C58.3555 73.2964 58.3099 73.2509 58.2644 73.2509C58.1277 73.2509 58.0366 73.2053 57.9455 73.1598C57.8544 73.1142 57.7633 73.0687 57.6722 73.0687C57.6722 73.0687 57.5811 73.0231 57.49 72.9776ZM74.4809 70.2445L72.4766 71.6566C72.431 71.7021 72.3855 71.7932 72.3399 71.8388C72.3399 71.9299 72.3399 72.021 72.3855 72.1121L75.3919 76.394L75.7108 76.8039C75.7563 76.895 75.8474 76.9406 75.893 76.9406C75.9841 76.9861 76.0752 76.9406 76.1663 76.895L78.1706 75.5285C78.2161 75.4374 78.2617 75.3918 78.3072 75.3007C78.3072 75.2096 78.3072 75.1185 78.2161 75.0274L74.9364 70.3356C74.8908 70.2445 74.7997 70.1989 74.7086 70.1989C74.6175 70.1989 74.5264 70.1989 74.4809 70.2445ZM74.6631 77.2139C73.8887 76.2573 72.431 73.9797 71.7022 72.932H71.6566C71.6111 72.9776 71.5655 72.9776 71.5655 73.0231L71.52 73.0687H71.4744C71.4289 73.0687 71.2922 73.1142 71.2011 73.1598C71.1556 73.1598 71.0645 73.2053 71.0189 73.2053C70.9278 73.2509 70.8367 73.2509 70.7456 73.2964C70.5634 73.342 70.4723 73.342 70.2901 73.3875C70.199 73.3875 70.0623 73.3875 70.0168 73.4331H69.3335C69.2424 73.3875 69.0602 73.342 68.878 73.342C68.5135 73.2964 68.1036 73.1142 67.6936 73.0231V72.9776C67.6481 72.932 67.557 72.932 67.4659 72.8865C67.3748 72.8409 67.2837 72.8409 67.1926 72.8409L66.6915 72.7954H66.6004C66.4637 72.7954 66.2815 72.7954 66.236 72.8409L66.1904 72.8865H66.1448C66.0993 72.8865 66.0082 72.8865 65.9171 72.8865C65.826 72.8865 65.7805 72.932 65.7349 72.9776H65.6893C65.5982 72.9776 65.416 73.0687 65.2338 73.1142C65.0516 73.2053 64.9149 73.2964 64.8238 73.342L63.0473 75.4374V75.4829L63.0018 75.5285H62.9562C62.8651 75.6196 62.8196 75.7107 62.7285 75.8018C62.4551 76.1662 62.0907 76.5762 61.7719 76.9406C61.7263 76.9861 61.6808 77.0317 61.5897 77.1228C61.4986 77.2595 61.3619 77.3961 61.2708 77.5328C61.3163 77.5783 61.3619 77.6694 61.453 77.715H61.4986C61.4986 77.7605 61.5897 77.8061 61.6808 77.8516C61.7263 77.8972 61.863 77.9427 61.9085 77.9427H61.9541C62.0452 77.9883 62.1818 78.0338 62.364 78.0338C62.5007 78.0338 62.6374 77.9883 62.774 77.9427C62.774 77.9427 62.8196 77.9427 62.8651 77.9427L62.9107 77.8972L62.9562 77.8516H63.0018C63.1384 77.8516 63.3206 77.7605 63.4573 77.6694L63.8217 77.4417C63.9128 77.3961 63.9584 77.3506 63.9584 77.3506L64.0039 77.305V77.2595C64.1861 77.2139 64.2772 77.1228 64.3683 77.0317C64.3683 77.0317 64.4139 76.9861 64.505 76.9406L64.6416 76.8039C64.7783 76.6673 64.8694 76.6217 64.915 76.5306C65.0516 76.4395 65.1883 76.3484 65.416 76.0296C65.6438 75.8473 65.826 75.6196 66.0538 75.3918C66.0993 75.3463 66.1448 75.3007 66.1448 75.3007C66.1904 75.2552 66.2359 75.2096 66.2815 75.1641L66.3271 75.1185H66.3726C66.6004 75.1641 67.0559 75.1641 67.5569 75.1185C68.2858 75.1185 69.1513 75.1185 69.2879 75.2552C69.5157 75.3918 70.2901 76.4395 70.5634 76.8495H70.609L70.6545 76.895C70.7 76.9861 70.7001 77.0317 70.7456 77.0772L70.7912 77.1228L70.9278 77.305H70.9733L71.0189 77.3506V77.3961H71.0645V77.4417C71.1556 77.5783 71.4289 77.8972 71.6111 78.1249L71.7478 78.3072L71.8388 78.4438C71.9755 78.626 72.2033 78.9449 72.3399 79.0815C72.3855 79.036 72.431 79.036 72.4766 78.9904C73.0687 78.4438 73.9342 77.8061 74.572 77.305L74.6175 77.2139H74.6631ZM56.8522 71.5655L54.848 70.1534C54.7569 70.1078 54.6658 70.1078 54.5746 70.1078C54.4835 70.1078 54.438 70.1534 54.3924 70.2445L51.0672 74.9363C51.0216 75.0274 51.0216 75.1185 51.0216 75.2096C51.0672 75.3007 51.1127 75.3918 51.1583 75.4374L53.1625 76.8039C53.2081 76.8495 53.2992 76.895 53.3903 76.8495L53.6636 76.5306L53.7092 76.4395V76.394L53.7547 76.3484C53.8003 76.3484 53.8003 76.3029 53.8458 76.2573L54.8935 74.7997V74.7541L54.9391 74.7086C55.0302 74.663 55.0302 74.663 55.0757 74.5719L55.1213 74.5263L55.1668 74.4352C55.2124 74.3897 55.2579 74.3441 55.3035 74.253L56.6245 72.431L56.8978 72.021C56.9434 71.9299 56.9889 71.8388 56.9434 71.7932C56.9434 71.7021 56.8978 71.611 56.8522 71.5655ZM60.4509 82.9534C60.4053 82.999 60.4053 83.0446 60.3598 83.0901L60.3142 83.1357C60.2231 83.1812 60.132 83.3179 60.0864 83.5001C60.0864 83.5912 60.0864 83.6823 60.0864 83.7734C60.0864 83.8645 60.132 83.9556 60.132 84.0467C60.2231 84.1834 60.3597 84.32 60.5875 84.3656C61.043 84.4567 61.3164 84.1834 61.6352 83.8189C61.7263 83.7278 61.8174 83.6367 61.863 83.5456L63.0473 82.4068C63.0929 82.3157 63.1384 82.1791 63.184 82.0424C63.184 81.9058 63.184 81.7691 63.0929 81.6324C63.0473 81.5413 63.0018 81.4502 62.8651 81.4047C62.774 81.3136 62.6374 81.3136 62.4552 81.268C62.364 81.3136 62.2729 81.3136 62.1818 81.3591C62.0907 81.3591 62.0452 81.4047 61.9996 81.4502V81.4958H61.9085C61.863 81.5413 61.7719 81.6324 61.7719 81.678C61.7263 81.678 61.7263 81.7235 61.7263 81.7691H61.6808V81.8147C61.5897 81.8147 61.5896 81.8147 61.5441 81.8602L61.453 81.9969C61.3619 82.1335 61.2252 82.2702 61.0886 82.3613L60.8608 82.589H60.8153C60.7697 82.6801 60.6786 82.7712 60.5875 82.8623C60.542 82.8623 60.4964 82.9079 60.4509 82.9534ZM58.5832 83.0446C58.6288 83.0446 58.6288 83.0901 58.7199 83.0901C59.0843 83.1812 59.221 82.999 59.4032 82.8168L60.7697 81.4047C60.8153 81.3591 60.8608 81.3136 60.9064 81.268C61.0886 81.1314 61.2708 80.9947 61.2708 80.7214C61.2252 80.5392 61.1797 80.4025 61.0886 80.3114C60.9975 80.2203 60.9519 80.1748 60.8608 80.1748C60.7697 80.1292 60.7242 80.1292 60.6331 80.1292C60.5875 80.1292 60.542 80.1748 60.4964 80.1748L60.4509 80.2203H60.4053L60.3598 80.2659C60.2231 80.3114 60.2231 80.357 60.1776 80.4025L60.0409 80.5392C59.9954 80.5847 59.9498 80.6303 59.9042 80.6759C59.9042 80.7214 59.8131 80.767 59.8131 80.8125C59.722 80.8125 59.6765 80.8581 59.6309 80.9492L59.4032 81.1314C59.4032 81.1769 59.4032 81.1769 59.3576 81.2225V81.268L59.2665 81.3136L59.221 81.3591C59.1754 81.4047 59.1754 81.4047 59.1754 81.4502H59.1298C59.0843 81.4958 59.0388 81.4958 59.0388 81.5413C59.0388 81.5413 58.9932 81.5869 58.9932 81.6324L58.9476 81.678H58.9021C58.9021 81.678 58.8565 81.678 58.8565 81.7235C58.811 81.7691 58.811 81.7691 58.811 81.8147L58.7654 81.8602L58.6743 81.9058C58.6288 81.9513 58.5377 81.9969 58.4921 82.088C58.4466 82.1335 58.401 82.1791 58.3555 82.3157L58.3099 82.3613C58.3099 82.3613 58.2644 82.4524 58.2644 82.5435C58.2644 82.6346 58.3099 82.6801 58.3099 82.7257H58.3555V82.7712C58.401 82.8623 58.401 82.9079 58.4466 82.9534H58.4921C58.5377 82.999 58.5832 83.0446 58.5832 83.0446ZM57.2622 81.8147C57.3989 81.8147 57.5355 81.7691 57.5811 81.7235V81.678H57.6266C57.8088 81.5869 57.9455 81.4502 58.0822 81.3136L58.1733 81.1769L58.3099 81.0403C58.4466 80.9036 58.6743 80.7214 58.7199 80.6303V80.5847C58.7199 80.1748 58.7199 79.8559 58.4921 79.6282C57.991 79.2182 57.5355 79.7193 57.1256 80.1748L56.8978 80.4025L56.7612 80.4936C56.5789 80.6758 56.3967 80.8581 56.3512 81.1769C56.3967 81.3591 56.4423 81.4502 56.4878 81.5869C56.5789 81.678 56.6701 81.7235 56.8067 81.7691C56.8978 81.8147 57.08 81.8147 57.2622 81.8147ZM70.9278 77.305C70.8823 77.305 70.9278 77.305 70.9278 77.305V77.305Z" fill="#EF7F1A"/>
</svg>
