<svg width="90" height="83" viewBox="0 0 90 83" fill="none" xmlns="http://www.w3.org/2000/svg">
<path fill-rule="evenodd" clip-rule="evenodd" d="M69.0146 19.4541H80.5848C84.8667 19.4541 88.4197 22.9616 88.4197 27.2435V62.8651C88.4197 67.147 84.8667 70.7 80.5848 70.7H72.0211C72.0211 70.7 73.2965 78.3527 65.0971 81.5414C68.8324 75.3008 60.3142 70.7 60.3142 70.7H27.9268C23.5994 70.7 20.0919 67.147 20.0919 62.8651V60.4053C21.0484 61.3163 22.3239 62.1363 23.9638 62.8195C20.2285 56.5789 28.7923 51.9326 28.7923 51.9326H61.1797C65.4616 51.9326 69.0146 48.4251 69.0146 44.0977V19.4541V19.4541Z" stroke="#EF7F1A" stroke-width="1.37339" stroke-miterlimit="22.9256" stroke-linecap="round" stroke-linejoin="round"/>
<path fill-rule="evenodd" clip-rule="evenodd" d="M61.1797 0.686707H8.52165C4.19421 0.686707 0.686707 4.23976 0.686707 8.52164V44.0977C0.686707 48.4251 4.19421 51.9326 8.52165 51.9326H17.0399C17.0399 51.9326 15.81 59.5853 23.9638 62.8195C20.2285 56.5789 28.7923 51.9326 28.7923 51.9326H61.1797C65.4616 51.9326 69.0147 48.4251 69.0147 44.0977V8.52164C69.0147 4.23976 65.4616 0.686707 61.1797 0.686707V0.686707Z" stroke="#EF7F1A" stroke-width="1.37339" stroke-miterlimit="22.9256" stroke-linecap="round" stroke-linejoin="round"/>
<path d="M53.7092 33.1197H50.2472C49.568 33.1197 49.0173 33.6703 49.0173 34.3496V43.5511C49.0173 44.2303 49.568 44.781 50.2472 44.781H53.7092C54.3885 44.781 54.9391 44.2303 54.9391 43.5511V34.3496C54.9391 33.6703 54.3885 33.1197 53.7092 33.1197Z" stroke="#EF7F1A" stroke-width="1.37339" stroke-miterlimit="22.9256"/>
<path d="M49.0173 34.304C47.6508 33.2563 46.2387 32.1631 45.4187 31.2976C44.5532 30.3866 44.2344 29.6577 43.9611 28.9289C43.6878 28.1545 43.4144 27.3801 43.2778 26.6969C43.1411 25.968 43.0956 25.3303 43.05 24.8748C42.9589 24.4648 42.8223 24.2826 42.5034 24.1915C42.2301 24.1004 41.8201 24.146 41.4557 24.1915C41.0913 24.2826 40.7724 24.3737 40.5447 24.7837C40.3169 25.1481 40.1347 25.7858 40.0436 26.6513C39.9525 27.5168 39.9981 28.5189 40.0892 29.5211C40.1803 30.4777 40.3169 31.3887 40.5902 31.9353C40.818 32.5275 41.0913 32.8008 41.1824 32.983C41.228 33.1197 41.0458 33.1197 39.7703 33.1197C38.4948 33.1197 36.1717 33.1197 34.9418 33.1652C33.6663 33.2108 33.5297 33.3019 33.3019 33.5297C33.1197 33.7574 32.8464 34.1218 32.7553 34.4862C32.6186 34.8507 32.6642 35.1695 32.8464 35.5339C33.0286 35.8984 33.4386 36.2628 33.5752 36.445C33.7119 36.6727 33.6663 36.6727 33.5752 36.8094C33.4841 36.9005 33.3475 37.1283 33.3019 37.4016C33.2564 37.6749 33.3019 38.0393 33.4386 38.3582C33.6208 38.677 33.8941 38.9959 34.1219 39.1781C34.3041 39.3603 34.4407 39.4514 34.4863 39.497C34.4863 39.5425 34.4407 39.5881 34.3041 39.8158C34.2129 39.998 34.0763 40.3624 34.0763 40.7269C34.0763 41.1368 34.2585 41.5468 34.5318 41.8657C34.8507 42.1845 35.3062 42.4123 35.4884 42.5489C35.7162 42.6856 35.6251 42.6856 35.534 42.8222C35.4884 42.9134 35.3518 43.0956 35.3973 43.4144C35.4429 43.6877 35.6251 44.0977 35.8984 44.4166C36.1717 44.7354 36.5361 44.9632 38.1304 45.0543C39.7247 45.1454 42.5034 45.0998 44.5077 44.7354C46.5575 44.4166 47.7874 43.8244 49.0173 43.2322" stroke="#EF7F1A" stroke-width="1.37339" stroke-miterlimit="22.9256"/>
<path fill-rule="evenodd" clip-rule="evenodd" d="M10.617 37.5382L11.8925 36.5816L12.4847 34.9418L13.8056 35.8528L15.5822 35.9439L15.1266 37.4927L15.5822 39.1781L13.9423 39.2237L12.4847 40.1347L11.9836 38.6315L10.617 37.5382Z" stroke="#EF7F1A" stroke-width="0.686695" stroke-miterlimit="22.9256" stroke-linecap="round" stroke-linejoin="round"/>
<path fill-rule="evenodd" clip-rule="evenodd" d="M10.617 27.289L11.8925 26.3324L12.4847 24.6926L13.8056 25.6036L15.5822 25.6947L15.1266 27.2435L15.5822 28.9289H13.9423L12.4847 29.8855L11.9836 28.3823L10.617 27.289Z" stroke="#EF7F1A" stroke-width="0.686695" stroke-miterlimit="22.9256" stroke-linecap="round" stroke-linejoin="round"/>
<path fill-rule="evenodd" clip-rule="evenodd" d="M10.617 16.8576L11.8925 15.8555L12.4847 14.2156L13.8056 15.1267L15.5822 15.2178L15.1266 16.7665L15.5822 18.452L13.9423 18.4975L12.4847 19.4541L11.9836 17.9509L10.617 16.8576Z" stroke="#EF7F1A" stroke-width="0.686695" stroke-miterlimit="22.9256" stroke-linecap="round" stroke-linejoin="round"/>
<path fill-rule="evenodd" clip-rule="evenodd" d="M18.7253 32.8009L20.0007 31.8443L20.6384 30.2044L21.9594 31.1154L23.6904 31.2065L23.2349 32.7553L23.6904 34.4407L22.0961 34.4863L20.6384 35.4429L20.0918 33.9397L18.7253 32.8009Z" stroke="#EF7F1A" stroke-width="0.686695" stroke-miterlimit="22.9256" stroke-linecap="round" stroke-linejoin="round"/>
<path fill-rule="evenodd" clip-rule="evenodd" d="M18.7253 22.3695L20.0007 21.4129L20.6384 19.773L21.9594 20.684L23.6904 20.7752L23.2349 22.3239L23.6904 24.0093H22.0961L20.6384 24.9659L20.0918 23.4627L18.7253 22.3695Z" stroke="#EF7F1A" stroke-width="0.686695" stroke-miterlimit="22.9256" stroke-linecap="round" stroke-linejoin="round"/>
<path d="M31.4343 62.7285H54.8024" stroke="#EF7F1A" stroke-width="0.686695" stroke-miterlimit="22.9256" stroke-linecap="round" stroke-linejoin="round"/>
<path d="M64.3684 62.7285H80.3115" stroke="#EF7F1A" stroke-width="0.686695" stroke-miterlimit="22.9256" stroke-linecap="round" stroke-linejoin="round"/>
<path d="M30.8876 15.6733L32.9374 15.4455C32.983 15.8555 33.1196 16.1744 33.3474 16.3566C33.5752 16.5843 33.8485 16.6754 34.1673 16.6754C34.6229 16.6754 34.9873 16.4477 35.3061 16.0833C35.625 15.6733 35.8072 14.8078 35.8983 13.5324C35.3517 14.1701 34.6684 14.4434 33.8485 14.4434C32.983 14.4434 32.2542 14.1245 31.6164 13.4413C30.9787 12.758 30.6599 11.8925 30.6599 10.7992C30.6599 9.66044 30.9787 8.7494 31.662 8.06613C32.3453 7.38285 33.1652 7.01843 34.2129 7.01843C35.3517 7.01843 36.2627 7.47395 36.9916 8.33944C37.7204 9.20492 38.0848 10.6626 38.0848 12.6669C38.0848 14.7167 37.7204 16.1744 36.946 17.0854C36.2172 17.9964 35.215 18.452 34.0307 18.452C33.1652 18.452 32.4364 18.2242 31.9353 17.7687C31.3887 17.2676 31.0242 16.5843 30.8876 15.6733ZM35.7161 10.9814C35.7161 10.2982 35.5339 9.75155 35.215 9.38713C34.8962 8.97716 34.5318 8.79496 34.1218 8.79496C33.7118 8.79496 33.3929 8.97716 33.1652 9.29603C32.8919 9.56934 32.7552 10.116 32.7552 10.7992C32.7552 11.5281 32.8919 12.0291 33.1652 12.3936C33.4385 12.7124 33.8029 12.8946 34.2585 12.8946C34.6684 12.8946 34.9873 12.7124 35.2606 12.3936C35.5339 12.0747 35.7161 11.6192 35.7161 10.9814ZM39.5425 15.6733L41.6378 15.4455C41.6834 15.8555 41.8201 16.1744 42.0023 16.3566C42.23 16.5843 42.5034 16.6754 42.8678 16.6754C43.2777 16.6754 43.6421 16.4477 43.961 16.0833C44.2799 15.6733 44.4621 14.8078 44.5532 13.5324C44.0065 14.1701 43.3233 14.4434 42.5489 14.4434C41.6379 14.4434 40.909 14.1245 40.2713 13.4413C39.6336 12.758 39.3147 11.8925 39.3147 10.7992C39.3147 9.66044 39.6336 8.7494 40.3168 8.06613C41.0001 7.38285 41.8656 7.01843 42.8678 7.01843C44.0066 7.01843 44.9631 7.47395 45.692 8.33944C46.3752 9.20492 46.7397 10.6626 46.7397 12.6669C46.7397 14.7167 46.3753 16.1744 45.6464 17.0854C44.8721 17.9964 43.9155 18.452 42.6856 18.452C41.8201 18.452 41.1368 18.2242 40.5902 17.7687C40.0435 17.2676 39.6791 16.5843 39.5425 15.6733ZM44.371 10.9814C44.371 10.2982 44.1888 9.75155 43.8699 9.38713C43.5511 8.97716 43.1866 8.79496 42.7766 8.79496C42.4122 8.79496 42.0478 8.97716 41.8201 9.29603C41.5467 9.56934 41.4101 10.116 41.4101 10.7992C41.4101 11.5281 41.5467 12.0291 41.8201 12.3936C42.1389 12.7124 42.4578 12.8946 42.9133 12.8946C43.3233 12.8946 43.6421 12.7124 43.961 12.3936C44.2343 12.0747 44.371 11.6192 44.371 10.9814ZM48.1518 9.84265C48.1518 8.84051 48.3795 8.11168 48.7895 7.61061C49.245 7.15509 49.8372 6.88177 50.6116 6.88177C51.386 6.88177 51.9781 7.10953 52.4337 7.61061C52.8436 8.06612 53.0714 8.84051 53.0714 9.84265C53.0714 10.8448 52.8436 11.5736 52.4337 12.0291C51.9781 12.5302 51.386 12.758 50.6116 12.758C49.8372 12.758 49.245 12.5302 48.7895 12.0291C48.3795 11.5736 48.1518 10.8448 48.1518 9.84265ZM49.8372 9.84265C49.8372 10.5259 49.8828 11.027 50.065 11.2548C50.2016 11.437 50.3838 11.5281 50.6116 11.5281C50.8393 11.5281 51.0216 11.437 51.1127 11.2548C51.2949 11.027 51.386 10.5259 51.386 9.84265C51.386 9.11382 51.2949 8.61275 51.1127 8.38499C51.0216 8.20278 50.8393 8.11168 50.6116 8.11168C50.3838 8.11168 50.2016 8.20278 50.065 8.38499C49.8828 8.61275 49.8372 9.11382 49.8372 9.84265ZM52.2059 18.6797H50.6571L56.5789 6.88177H58.1277L52.2059 18.6797ZM55.6678 15.7644C55.6678 14.7623 55.8956 13.9879 56.3511 13.5324C56.7611 13.0313 57.3533 12.8035 58.1277 12.8035C58.902 12.8035 59.4942 13.0313 59.9497 13.5324C60.3597 13.9879 60.5875 14.7623 60.5875 15.7644C60.5875 16.7665 60.3597 17.4954 59.9497 17.9964C59.4942 18.452 58.902 18.6797 58.1732 18.6797C57.3533 18.6797 56.7611 18.452 56.3511 17.9964C55.8956 17.4954 55.6678 16.7665 55.6678 15.7644ZM57.3533 15.7644C57.3533 16.4932 57.4444 16.9488 57.581 17.2221C57.7177 17.4043 57.8999 17.4954 58.1277 17.4954C58.3554 17.4954 58.5376 17.4043 58.6287 17.2221C58.8109 16.9488 58.902 16.4932 58.902 15.7644C58.902 15.0356 58.8109 14.5345 58.6743 14.3067C58.5376 14.079 58.3554 13.9879 58.1277 13.9879C57.8999 13.9879 57.7177 14.079 57.581 14.3067C57.4444 14.5345 57.3533 15.0356 57.3533 15.7644Z" fill="#EF7F1A"/>
<path d="M31.6165 56.67H75.3919" stroke="#EF7F1A" stroke-width="0.686695" stroke-miterlimit="22.9256" stroke-linecap="round" stroke-linejoin="round"/>
<path d="M63.8217 51.0216H79.7649" stroke="#EF7F1A" stroke-width="0.686695" stroke-miterlimit="22.9256" stroke-linecap="round" stroke-linejoin="round"/>
<path d="M68.6046 45.7831H76.804" stroke="#EF7F1A" stroke-width="0.686695" stroke-miterlimit="22.9256" stroke-linecap="round" stroke-linejoin="round"/>
<path d="M68.9691 39.4059H81.4503" stroke="#EF7F1A" stroke-width="0.686695" stroke-miterlimit="22.9256" stroke-linecap="round" stroke-linejoin="round"/>
<path d="M68.9691 32.983H76.3941" stroke="#EF7F1A" stroke-width="0.686695" stroke-miterlimit="22.9256" stroke-linecap="round" stroke-linejoin="round"/>
</svg>
