<svg width="83" height="83" viewBox="0 0 83 83" fill="none" xmlns="http://www.w3.org/2000/svg">
<path fill-rule="evenodd" clip-rule="evenodd" d="M41.2735 6.9729C60.2231 6.9729 75.5741 22.3695 75.5741 41.3191C75.5741 48.6074 73.2965 55.3946 69.3791 60.9519H13.168C9.25055 55.3946 6.97295 48.6074 6.97295 41.3191C6.97295 22.3695 22.3239 6.9729 41.2735 6.9729V6.9729Z" stroke="#EF7F1A" stroke-width="0.686695" stroke-miterlimit="22.9256" stroke-linecap="round" stroke-linejoin="round"/>
<path d="M22.825 60.6786C17.541 55.6224 14.5346 48.6074 14.5346 41.3191C14.5346 26.5147 26.5147 14.5345 41.2735 14.5345C45.7376 14.5345 50.1106 15.6733 53.9825 17.7687" stroke="#EF7F1A" stroke-width="1.37339" stroke-miterlimit="22.9256" stroke-linecap="round" stroke-linejoin="round"/>
<path d="M41.2735 46.6487C44.217 46.6487 46.6031 44.2625 46.6031 41.3191C46.6031 38.3756 44.217 35.9895 41.2735 35.9895C38.3301 35.9895 35.944 38.3756 35.944 41.3191C35.944 44.2625 38.3301 46.6487 41.2735 46.6487Z" stroke="#EF7F1A" stroke-width="1.37339" stroke-miterlimit="22.9256" stroke-linecap="round" stroke-linejoin="round"/>
<path d="M45.191 37.6293L60.4054 22.0961" stroke="#EF7F1A" stroke-width="1.37339" stroke-miterlimit="22.9256" stroke-linecap="round" stroke-linejoin="round"/>
<path d="M61.2253 45.0999L67.9214 46.2842M60.8608 35.8528L67.3748 33.9396L60.8608 35.8528ZM57.5356 53.4814L63.0473 57.49L57.5356 53.4814Z" stroke="#EF7F1A" stroke-width="1.37339" stroke-miterlimit="22.9256" stroke-linecap="round" stroke-linejoin="round"/>
<path fill-rule="evenodd" clip-rule="evenodd" d="M41.2735 0.686707C63.7306 0.686707 81.9058 18.8619 81.9058 41.319C81.9058 49.154 79.6738 56.4878 75.8019 62.6829C76.1663 62.1363 76.4851 61.5441 76.804 60.9519H5.74296C6.06182 61.5441 6.42629 62.1363 6.7907 62.6829C2.91879 56.4878 0.686691 49.154 0.686691 41.319C0.686691 18.8619 18.8619 0.686707 41.2735 0.686707V0.686707ZM75.8019 62.7284C75.4374 63.2751 75.073 63.8217 74.7086 64.3683C75.073 63.8217 75.4374 63.2751 75.8019 62.7284ZM74.6631 64.4138C74.2986 64.9149 73.9342 65.4615 73.5243 65.9626C73.9342 65.4615 74.2986 64.9149 74.6631 64.4138ZM73.4787 66.0082C73.1143 66.5092 72.7043 67.0103 72.2943 67.5114C72.7043 67.0103 73.1143 66.5092 73.4787 66.0082ZM72.2488 67.5569C71.8389 68.058 71.4289 68.5135 71.0189 68.969C71.4289 68.5135 71.8389 68.058 72.2488 67.5569ZM70.9278 69.0601C70.7911 69.1968 70.609 69.379 70.4723 69.5157C70.609 69.379 70.7911 69.1968 70.9278 69.0601ZM70.4723 69.5157C70.199 69.789 69.9257 70.1078 69.6068 70.3811C69.9257 70.1078 70.199 69.789 70.4723 69.5157ZM69.5157 70.4723C69.379 70.6089 69.2424 70.7456 69.1057 70.8822C69.2424 70.7456 69.379 70.6089 69.5157 70.4723ZM68.9691 70.9733C68.7413 71.2466 68.468 71.4744 68.1947 71.7022C68.468 71.4744 68.7413 71.2466 68.9691 70.9733ZM68.058 71.8388C67.9214 71.9755 67.7848 72.0666 67.6481 72.2032C67.7848 72.0666 67.9214 71.9755 68.058 71.8388ZM67.4659 72.3399C67.1925 72.5676 66.9648 72.7498 66.6915 72.9776C66.9648 72.7498 67.1925 72.5676 67.4659 72.3399ZM66.5093 73.1143C66.3726 73.2054 66.2359 73.342 66.0993 73.4331C66.2359 73.342 66.3726 73.2054 66.5093 73.1143ZM65.8716 73.6153C65.6894 73.752 65.4615 73.9342 65.2338 74.1164C65.4615 73.9342 65.6894 73.752 65.8716 73.6153ZM64.9605 74.2986C64.8238 74.3897 64.6872 74.4808 64.5505 74.5719C64.6872 74.4808 64.8238 74.3897 64.9605 74.2986ZM64.2772 74.7997C64.1406 74.8908 64.0039 74.9819 63.8673 75.073C64.0039 74.9819 64.1406 74.8908 64.2772 74.7997ZM63.2751 75.4374C63.184 75.5285 63.0473 75.5741 62.9107 75.6652C63.0473 75.5741 63.184 75.5285 63.2751 75.4374ZM62.5918 75.8929C62.4552 75.9385 62.3185 76.0296 62.2274 76.1207C62.3185 76.0296 62.4552 75.9385 62.5918 75.8929ZM61.5897 76.4851C61.4986 76.5307 61.3619 76.5762 61.2708 76.6673C61.3619 76.5762 61.4986 76.5307 61.5897 76.4851ZM60.8608 76.8951C60.7242 76.9406 60.6331 77.0317 60.4964 77.0773C60.6331 77.0317 60.7242 76.9406 60.8608 76.8951ZM59.8587 77.4417C59.722 77.4873 59.6309 77.5328 59.5398 77.5784C59.6309 77.5328 59.722 77.4873 59.8587 77.4417ZM59.0843 77.8061C58.9477 77.8517 58.8565 77.8972 58.7654 77.9883C58.8565 77.8972 58.9477 77.8517 59.0843 77.8061ZM58.1277 78.2616C58.0366 78.3072 57.9 78.3527 57.8089 78.3983C57.9 78.3527 58.0366 78.3072 58.1277 78.2616ZM57.2622 78.626C57.1711 78.6716 57.0345 78.7172 56.9434 78.7627C57.0345 78.7172 57.1711 78.6716 57.2622 78.626ZM55.3946 79.4004C55.3035 79.446 55.1668 79.446 55.0757 79.4915C55.1668 79.446 55.3035 79.446 55.3946 79.4004ZM54.4836 79.7193C54.3925 79.7193 54.3469 79.7648 54.2558 79.7648C54.3469 79.7648 54.3925 79.7193 54.4836 79.7193ZM52.5703 80.3115C52.4792 80.357 52.4337 80.357 52.3426 80.4026C52.4337 80.357 52.4792 80.357 52.5703 80.3115ZM51.5227 80.5848C51.4316 80.6303 51.3405 80.6303 51.2494 80.6759C51.3405 80.6303 51.4316 80.6303 51.5227 80.5848ZM50.6116 80.8125C50.5205 80.8581 50.475 80.8581 50.3839 80.8581C50.475 80.8581 50.5205 80.8581 50.6116 80.8125ZM49.564 81.0859C49.4729 81.0859 49.3817 81.0859 49.2906 81.1314C49.3817 81.0859 49.4729 81.0859 49.564 81.0859ZM47.5141 81.4503C47.4685 81.4503 47.3775 81.4503 47.3319 81.4503C47.3775 81.4503 47.4685 81.4503 47.5141 81.4503ZM46.6031 81.5414C46.512 81.5869 46.4664 81.5869 46.3753 81.5869C46.4664 81.5869 46.512 81.5869 46.6031 81.5414ZM36.2172 81.5869C36.1261 81.5869 36.035 81.5869 35.9894 81.5414C36.035 81.5869 36.1261 81.5869 36.2172 81.5869ZM35.2607 81.4503C35.1696 81.4503 35.124 81.4503 35.0329 81.4503C35.124 81.4503 35.1696 81.4503 35.2607 81.4503ZM34.1674 81.2681C34.0763 81.2681 34.0307 81.2681 33.9396 81.2225C34.0307 81.2681 34.0763 81.2681 34.1674 81.2681ZM33.2564 81.1314C33.1653 81.0859 33.1197 81.0859 33.0286 81.0859C33.1197 81.0859 33.1653 81.0859 33.2564 81.1314ZM32.1631 80.8581C32.1175 80.8581 32.0265 80.8581 31.9809 80.8125C32.0265 80.8581 32.1175 80.8581 32.1631 80.8581ZM30.2044 80.4026C30.1588 80.357 30.0677 80.357 30.0222 80.3115C30.0677 80.357 30.1588 80.357 30.2044 80.4026ZM29.3844 80.1293C29.2933 80.0837 29.2022 80.0837 29.1111 80.0382C29.2022 80.0837 29.2933 80.0837 29.3844 80.1293ZM28.2912 79.7648C28.2457 79.7648 28.1545 79.7193 28.109 79.7193C28.1545 79.7193 28.2457 79.7648 28.2912 79.7648ZM27.4713 79.4915C27.3801 79.446 27.2891 79.446 27.198 79.4004C27.2891 79.446 27.3801 79.446 27.4713 79.4915ZM25.6492 78.7627C25.5125 78.7172 25.4214 78.6716 25.3303 78.626C25.4214 78.6716 25.5125 78.7172 25.6492 78.7627ZM24.7837 78.3983C24.6471 78.3527 24.5559 78.3072 24.4193 78.2616C24.5559 78.3072 24.6471 78.3527 24.7837 78.3983ZM23.8271 77.9883C23.736 77.8972 23.5994 77.8517 23.5083 77.8061C23.5994 77.8517 23.736 77.8972 23.8271 77.9883ZM23.0527 77.5784C22.9161 77.5328 22.825 77.4873 22.7339 77.4417C22.825 77.4873 22.9161 77.5328 23.0527 77.5784ZM22.0506 77.0773C21.9595 77.0317 21.8228 76.9406 21.7317 76.8951C21.8228 76.9406 21.9595 77.0317 22.0506 77.0773ZM21.3217 76.6673C21.1851 76.5762 21.094 76.5307 20.9574 76.4851C21.094 76.5307 21.1851 76.5762 21.3217 76.6673ZM20.3652 76.1207C20.2285 76.0296 20.0918 75.9385 20.0007 75.8929C20.0918 75.9385 20.2285 76.0296 20.3652 76.1207ZM19.6363 75.6652C19.5452 75.5741 19.4085 75.5285 19.2719 75.4374C19.4085 75.5285 19.5452 75.5741 19.6363 75.6652ZM18.7253 75.073C18.5886 74.9819 18.452 74.8908 18.3153 74.7997C18.452 74.8908 18.5886 74.9819 18.7253 75.073ZM18.042 74.5719C17.9054 74.4808 17.7687 74.3897 17.632 74.2986C17.7687 74.3897 17.9054 74.4808 18.042 74.5719ZM17.3587 74.1164C17.131 73.9342 16.9032 73.752 16.6755 73.6153C16.9032 73.752 17.131 73.9342 17.3587 74.1164ZM16.4477 73.4331C16.311 73.342 16.1744 73.2054 16.0377 73.1143C16.1744 73.2054 16.311 73.342 16.4477 73.4331ZM15.9011 72.9776C15.6278 72.7498 15.3544 72.5676 15.1266 72.3399C15.3544 72.5676 15.6278 72.7498 15.9011 72.9776ZM14.9445 72.2032C14.8078 72.0666 14.6712 71.9755 14.5345 71.8388C14.6712 71.9755 14.8078 72.0666 14.9445 72.2032ZM14.3979 71.7022C14.1246 71.4744 13.8512 71.2466 13.5779 70.9733C13.8512 71.2466 14.1246 71.4744 14.3979 71.7022ZM13.4868 70.8822C13.3502 70.7456 13.2135 70.6089 13.0313 70.4723C13.2135 70.6089 13.3502 70.7456 13.4868 70.8822ZM12.9402 70.3811C12.6669 70.1078 12.3935 69.789 12.0747 69.5157C12.3935 69.789 12.6669 70.1078 12.9402 70.3811ZM12.0747 69.5157C11.938 69.379 11.8014 69.1968 11.6647 69.0601C11.8014 69.1968 11.938 69.379 12.0747 69.5157ZM11.5736 68.969C11.1636 68.5135 10.7537 68.058 10.3437 67.5569C10.7537 68.058 11.1636 68.5135 11.5736 68.969ZM10.2526 67.5114C9.84266 67.0103 9.47827 66.5092 9.0683 66.0082C9.47827 66.5092 9.84266 67.0103 10.2526 67.5114ZM9.0227 65.9626C8.61274 65.4615 8.24832 64.9149 7.88391 64.4138C8.24832 64.9149 8.61274 65.4615 9.0227 65.9626ZM7.88391 64.3683C7.47394 63.8217 7.15512 63.2751 6.7907 62.7284C7.15512 63.2751 7.47394 63.8217 7.88391 64.3683Z" stroke="#EF7F1A" stroke-width="1.37339" stroke-miterlimit="22.9256" stroke-linecap="round" stroke-linejoin="round"/>
<path fill-rule="evenodd" clip-rule="evenodd" d="M76.8041 60.9519C69.8802 73.4787 56.579 81.9058 41.2735 81.9058C26.0136 81.9058 12.6669 73.4787 5.74303 60.9519H76.8041V60.9519Z" stroke="#EF7F1A" stroke-width="1.37339" stroke-miterlimit="22.9256" stroke-linecap="round" stroke-linejoin="round"/>
<path fill-rule="evenodd" clip-rule="evenodd" d="M73.0688 66.6003C65.5983 75.9385 54.1647 81.9058 41.2735 81.9058C28.4279 81.9058 16.9488 75.9385 9.52385 66.6003H73.0688Z" stroke="#EF7F1A" stroke-width="0.686695" stroke-miterlimit="22.9256" stroke-linecap="round" stroke-linejoin="round"/>
</svg>
