<svg width="83" height="100" viewBox="0 0 83 100" fill="none" xmlns="http://www.w3.org/2000/svg">
<path fill-rule="evenodd" clip-rule="evenodd" d="M0.686691 6.83621H17.0853V10.7992H48.4251V6.83621H65.3704L65.4615 56.9889L62.7739 54.5291L59.7675 57.1255L56.26 55.6679L54.3469 59.1298L50.5204 58.9476L49.9283 62.8651L46.2841 64.0039L47.0585 67.8758L44.0521 70.1989L46.102 73.6153L44.0521 76.804L47.1496 79.3093L46.7397 80.9492H45.9197V80.9948H0.686691V80.9492V19.2719V6.83621Z" stroke="#EF7F1A" stroke-width="1.37339" stroke-miterlimit="22.9256" stroke-linecap="round" stroke-linejoin="round"/>
<path fill-rule="evenodd" clip-rule="evenodd" d="M17.0853 3.10095H26.6057V4.42196H38.0392V3.10095H48.4251V10.7992H17.0853V3.10095Z" stroke="#EF7F1A" stroke-width="1.37339" stroke-miterlimit="22.9256" stroke-linecap="round" stroke-linejoin="round"/>
<path d="M38.0393 0.686707H26.6056V4.42196H38.0393V0.686707Z" stroke="#EF7F1A" stroke-width="1.37339" stroke-miterlimit="22.9256" stroke-linecap="round" stroke-linejoin="round"/>
<path fill-rule="evenodd" clip-rule="evenodd" d="M16.5842 15.9922H57.9454V32.3453H57.991V56.3967L56.26 55.6679L54.3468 59.1298L50.5204 58.9476L49.9283 62.8651L46.2841 64.0039L47.0585 67.8758L44.0521 70.1989L45.8286 73.1143H44.371L44.3254 73.2054H8.52159V22.8249L16.5842 15.9922Z" stroke="#EF7F1A" stroke-width="1.37339" stroke-miterlimit="22.9256" stroke-linecap="round" stroke-linejoin="round"/>
<path fill-rule="evenodd" clip-rule="evenodd" d="M16.5843 15.9922L8.52159 22.916L16.5843 22.7794V15.9922Z" stroke="#EF7F1A" stroke-width="0.686695" stroke-miterlimit="22.9256" stroke-linecap="round" stroke-linejoin="round"/>
<path d="M22.8249 29.8399H15.1266V37.4927H22.8249V29.8399Z" stroke="#EF7F1A" stroke-width="0.686695" stroke-miterlimit="22.9256" stroke-linecap="round" stroke-linejoin="round"/>
<path d="M22.8249 44.2799H15.1266V51.9326H22.8249V44.2799Z" stroke="#EF7F1A" stroke-width="0.686695" stroke-miterlimit="22.9256" stroke-linecap="round" stroke-linejoin="round"/>
<path d="M22.8249 58.2188H15.1266V65.8715H22.8249V58.2188Z" stroke="#EF7F1A" stroke-width="0.686695" stroke-miterlimit="22.9256" stroke-linecap="round" stroke-linejoin="round"/>
<path d="M27.6534 32.2997H52.1603" stroke="#EF7F1A" stroke-width="0.686695" stroke-miterlimit="22.9256" stroke-linecap="round" stroke-linejoin="round"/>
<path d="M27.8812 35.0329H42.9589" stroke="#EF7F1A" stroke-width="0.686695" stroke-miterlimit="22.9256" stroke-linecap="round" stroke-linejoin="round"/>
<path d="M27.6534 46.7397H52.1603" stroke="#EF7F1A" stroke-width="0.686695" stroke-miterlimit="22.9256" stroke-linecap="round" stroke-linejoin="round"/>
<path d="M27.8812 49.4728H42.9589" stroke="#EF7F1A" stroke-width="0.686695" stroke-miterlimit="22.9256" stroke-linecap="round" stroke-linejoin="round"/>
<path d="M27.6534 60.9064H49.154" stroke="#EF7F1A" stroke-width="0.686695" stroke-miterlimit="22.9256" stroke-linecap="round" stroke-linejoin="round"/>
<path d="M27.8812 63.6395H42.9589" stroke="#EF7F1A" stroke-width="0.686695" stroke-miterlimit="22.9256" stroke-linecap="round" stroke-linejoin="round"/>
<path d="M16.6299 33.3019L18.7252 35.625L21.5495 31.2976" stroke="#EF7F1A" stroke-width="0.686695" stroke-miterlimit="22.9256" stroke-linecap="round" stroke-linejoin="round"/>
<path d="M16.6299 47.9696L18.7252 50.2928L21.5495 45.9198" stroke="#EF7F1A" stroke-width="0.686695" stroke-miterlimit="22.9256" stroke-linecap="round" stroke-linejoin="round"/>
<path d="M16.6299 61.8629L18.7252 64.2316L21.5495 59.8586" stroke="#EF7F1A" stroke-width="0.686695" stroke-miterlimit="22.9256" stroke-linecap="round" stroke-linejoin="round"/>
<path fill-rule="evenodd" clip-rule="evenodd" d="M62.7739 59.8131L64.7782 61.6807L67.4202 60.633L68.6957 63.0928L71.5655 63.0017L71.9299 65.7349L74.6174 66.6459L74.0252 69.3335L76.2573 71.1555L74.7541 73.4331L76.2573 75.8929L74.0708 77.5784L74.6174 80.357L71.9754 81.177L71.5655 84.0012L68.8323 83.8645L67.4202 86.3699L64.9149 85.3222L62.7739 87.1898L60.7241 85.3677L58.0821 86.3699L56.8066 83.9556L53.9368 84.0012L53.618 81.2681L50.8848 80.357L51.477 77.6695L49.2906 75.8929L50.7482 73.5698L49.2906 71.1555L51.4315 69.4701L50.8848 66.6459L53.5269 65.826L53.9368 63.0017L56.7155 63.1384L58.0821 60.633L60.633 61.6807L62.7739 59.8131Z" stroke="#EF7F1A" stroke-width="0.686695" stroke-miterlimit="22.9256" stroke-linecap="round" stroke-linejoin="round"/>
<path fill-rule="evenodd" clip-rule="evenodd" d="M56.3967 99.0789V91.2895L59.9498 89.9229L62.7739 92.5194L65.7349 89.9229L69.2423 91.3806L70.4722 89.1941V99.0789L63.3661 95.9813L56.3967 99.0789Z" stroke="#EF7F1A" stroke-width="1.37339" stroke-miterlimit="22.9256" stroke-linecap="round" stroke-linejoin="round"/>
<path fill-rule="evenodd" clip-rule="evenodd" d="M62.7739 54.5291L65.5526 57.08L69.2423 55.6679L71.0188 59.0388L74.9819 58.9476L75.4373 62.7285L79.2182 64.0039L78.3983 67.7392L81.4502 70.199L79.4004 73.4332L81.4502 76.804L78.4438 79.1271L79.2182 82.9991L75.574 84.1379L74.9819 88.0553L71.1555 87.8731L69.2423 91.3806L65.7348 89.923L62.7739 92.5194L59.9497 89.923L56.26 91.3806L54.4835 87.9642L50.5204 88.0553L50.0649 84.2745L46.2841 82.9991L47.1496 79.3094L44.052 76.804L46.1019 73.6154L44.052 70.199L47.0585 67.8758L46.2841 64.0039L49.9283 62.8651L50.5204 58.9476L54.3468 59.1299L56.26 55.6679L59.7675 57.1256L62.7739 54.5291Z" stroke="#EF7F1A" stroke-width="1.37339" stroke-miterlimit="22.9256" stroke-linecap="round" stroke-linejoin="round"/>
<path d="M70.0167 71.3378H66.0081V79.2183H70.0167V71.3378Z" stroke="#EF7F1A" stroke-width="0.686695" stroke-miterlimit="22.9256" stroke-linecap="round" stroke-linejoin="round"/>
<path d="M66.0081 72.1577C65.0515 71.4288 64.1404 70.7 63.5483 70.1078C62.9561 69.5157 62.7739 69.0146 62.5917 68.5135C62.364 68.0124 62.2273 67.4658 62.1362 67.0103C62.0451 66.5092 61.9995 66.0993 61.954 65.7804C61.9084 65.5071 61.8173 65.3704 61.5896 65.3249C61.4074 65.2338 61.134 65.2793 60.8607 65.3249C60.633 65.3704 60.4508 65.416 60.2686 65.6893C60.1319 65.9626 59.9953 66.4181 59.9497 66.9647C59.8586 67.5569 59.8586 68.2402 59.9497 68.9235C59.9953 69.5612 60.1319 70.1534 60.2686 70.5633C60.4508 70.9733 60.633 71.1555 60.6785 71.2466C60.7241 71.3377 60.5874 71.3377 59.7219 71.3377C58.902 71.3377 57.3077 71.3377 56.4422 71.3833C55.6223 71.4288 55.5312 71.4744 55.349 71.6566C55.2123 71.7932 55.0301 72.021 54.9846 72.2943C54.8935 72.5221 54.8934 72.7498 55.0301 72.9776C55.1668 73.2509 55.4401 73.4787 55.5312 73.6153C55.6678 73.752 55.6223 73.7975 55.5312 73.8431C55.4856 73.9342 55.3945 74.0708 55.349 74.2531C55.3034 74.4353 55.3489 74.7086 55.44 74.8908C55.5767 75.1185 55.7589 75.3463 55.8956 75.483C56.0322 75.5741 56.1233 75.6196 56.1689 75.6652C56.1689 75.7107 56.1233 75.7563 56.0322 75.8929C55.9867 76.0296 55.8956 76.2573 55.8956 76.5307C55.8956 76.804 55.9867 77.0773 56.2144 77.305C56.3966 77.4872 56.7156 77.6695 56.8522 77.7606C56.9889 77.8061 56.9433 77.8517 56.8977 77.9428C56.8066 77.9883 56.7611 78.125 56.8066 78.3072C56.8066 78.5349 56.9433 78.8083 57.1255 79.036C57.3077 79.2182 57.581 79.4004 58.6287 79.446C59.722 79.4915 61.5896 79.446 62.9561 79.2638C64.3227 79.036 65.1882 78.626 66.0081 78.2161" stroke="#EF7F1A" stroke-width="0.686695" stroke-miterlimit="22.9256" stroke-linecap="round" stroke-linejoin="round"/>
</svg>
